<svg width="344" height="73" viewBox="0 0 344 73" fill="none" xmlns="http://www.w3.org/2000/svg">
<path d="M33.7211 20.3514C33.7185 20.1607 33.7553 19.9715 33.829 19.7956C33.9027 19.6197 34.0119 19.4609 34.1496 19.329C34.2827 19.1932 34.4419 19.0858 34.6176 19.0132C34.7933 18.9406 34.9819 18.9043 35.172 18.9066H47.5633C48.853 18.8908 50.1368 19.0831 51.3652 19.4759C52.5093 19.8612 53.5215 20.5615 54.2855 21.4963C55.1121 22.4987 55.5471 23.7668 55.51 25.0655C55.5021 25.8501 55.3116 26.6222 54.9535 27.3204C54.5954 28.0185 54.0795 28.6237 53.4468 29.0878C54.3819 29.5532 55.159 30.2841 55.6807 31.1891C56.2023 32.0941 56.4453 33.1329 56.3793 34.1753C56.421 35.1163 56.2287 36.0529 55.8195 36.9013C55.4102 37.7497 54.7969 38.4833 54.0345 39.0364C52.3613 40.2205 50.3467 40.8246 48.298 40.7567H35.172C34.9825 40.7587 34.7945 40.7229 34.6189 40.6514C34.4434 40.58 34.2838 40.4742 34.1496 40.3404C34.0116 40.2113 33.9021 40.0547 33.8283 39.8807C33.7545 39.7067 33.718 39.5192 33.7211 39.3302V20.3514ZM39.4698 36.6426H48.1878C48.5266 36.6703 48.8673 36.622 49.185 36.5012C49.5028 36.3805 49.7896 36.1903 50.0245 35.9446C50.4288 35.3852 50.6465 34.7125 50.6465 34.0223C50.6465 33.332 50.4288 32.6593 50.0245 32.0999C49.7934 31.8595 49.5126 31.6725 49.2017 31.552C48.8908 31.4314 48.5573 31.3802 48.2245 31.402H39.4698V36.6426ZM39.4698 27.2879H47.6246C47.9053 27.3009 48.1858 27.2578 48.4497 27.1611C48.7135 27.0644 48.9555 26.916 49.1612 26.7246C49.3674 26.5208 49.5284 26.276 49.6338 26.006C49.7393 25.736 49.7869 25.4469 49.7735 25.1573C49.7973 24.8723 49.759 24.5855 49.6612 24.3167C49.5634 24.0479 49.4085 23.8035 49.2072 23.6004C49.0058 23.3973 48.7627 23.2403 48.4948 23.1402C48.2269 23.0401 47.9404 22.9993 47.6552 23.0207H39.4698V27.3062V27.2879ZM61.3444 38.5037C59.2588 36.6834 58.216 33.7957 58.216 29.8408C58.216 25.8859 59.2588 22.9982 61.3444 21.1779C63.4178 19.3576 66.4666 18.4474 70.491 18.4474C74.5153 18.4474 77.5641 19.3576 79.6375 21.1779C81.7109 22.9982 82.7496 25.8859 82.7537 29.8408C82.7578 33.7957 81.7191 36.6834 79.6375 38.5037C77.556 40.32 74.5071 41.2301 70.491 41.2342C66.4748 41.2383 63.4259 40.3281 61.3444 38.5037ZM65.5075 24.3921C64.479 25.6165 63.9647 27.4532 63.9647 29.8469C63.9647 32.2407 64.479 34.0774 65.5075 35.2957C66.536 36.514 68.2013 37.1323 70.491 37.1323C72.7807 37.1323 74.4398 36.5201 75.4683 35.2957C76.4968 34.0712 77.005 32.2652 77.005 29.8469C77.005 27.4287 76.4907 25.6165 75.4683 24.3921C74.4459 23.1676 72.7807 22.5554 70.491 22.5554C68.2013 22.5554 66.536 23.1676 65.5075 24.3921ZM84.0577 39.4772L87.927 24.8451C88.9677 20.8983 92.337 18.9188 98.0347 18.9066H105.657C105.831 18.9065 106.004 18.9462 106.161 19.0226C106.318 19.0989 106.455 19.21 106.563 19.3474C106.806 19.625 106.939 19.9823 106.936 20.3514V39.3302C106.94 39.517 106.906 39.7026 106.836 39.8761C106.767 40.0496 106.664 40.2074 106.532 40.3404C106.404 40.4758 106.25 40.5829 106.078 40.6546C105.906 40.7264 105.721 40.7611 105.534 40.7567H102.626C102.438 40.7575 102.252 40.7212 102.078 40.65C101.904 40.5787 101.745 40.4739 101.612 40.3414C101.478 40.209 101.372 40.0515 101.299 39.878C101.226 39.7045 101.188 39.5183 101.188 39.3302V23.2166H97.4837C96.5668 23.1973 95.6707 23.491 94.943 24.0492C94.2186 24.609 93.7032 25.396 93.4798 26.2838L89.9963 39.3363C89.8905 39.7468 89.6461 40.108 89.3045 40.3587C88.9806 40.6116 88.5827 40.7514 88.1719 40.7567H85.0557C84.8965 40.763 84.7382 40.7307 84.5942 40.6625C84.4503 40.5942 84.325 40.4921 84.2292 40.3649C84.0885 40.192 84.0127 39.9755 84.0149 39.7526C84.0149 39.6608 84.0455 39.5567 84.0577 39.4588V39.4772ZM111.295 39.3547V20.3759C111.289 20.1845 111.322 19.9939 111.393 19.8159C111.463 19.6379 111.57 19.4764 111.706 19.3413C111.842 19.206 112.005 19.0999 112.184 19.0294C112.363 18.9589 112.554 18.9254 112.746 18.9311H127.44C127.63 18.9246 127.82 18.9577 127.997 19.0283C128.174 19.0989 128.334 19.2054 128.468 19.3413C128.602 19.4775 128.707 19.6394 128.776 19.8173C128.845 19.9951 128.878 20.1851 128.872 20.3759V21.8085C128.879 21.9985 128.847 22.1878 128.777 22.3647C128.708 22.5417 128.602 22.7023 128.468 22.8367C128.333 22.9712 128.173 23.0764 127.996 23.146C127.819 23.2156 127.63 23.2479 127.44 23.2411H117.032V39.3792C117.036 39.566 117.001 39.7516 116.928 39.9236C116.855 40.0957 116.747 40.2503 116.609 40.3771C116.477 40.5089 116.319 40.6127 116.146 40.6821C115.972 40.7515 115.786 40.7852 115.599 40.7812H112.734C112.353 40.7871 111.986 40.6418 111.712 40.3771C111.572 40.2516 111.462 40.0974 111.388 39.9251C111.314 39.7529 111.278 39.5666 111.283 39.3792L111.295 39.3547ZM129.582 39.3547L133.409 24.8451C134.45 20.8983 137.823 18.9188 143.529 18.9066H151.745C151.922 18.9049 152.098 18.9418 152.26 19.0148C152.421 19.0877 152.565 19.1949 152.681 19.329C152.925 19.6013 153.059 19.9552 153.055 20.3208V39.3547C153.06 39.5421 153.024 39.7284 152.95 39.9006C152.876 40.0729 152.766 40.2271 152.626 40.3526C152.492 40.4835 152.333 40.5866 152.158 40.6559C151.984 40.7253 151.798 40.7595 151.61 40.7567H148.769C148.578 40.7637 148.388 40.7315 148.21 40.662C148.032 40.5925 147.87 40.4872 147.735 40.3526C147.6 40.2193 147.495 40.0596 147.426 39.8837C147.356 39.7077 147.324 39.5193 147.331 39.3302V35.4855H136.525L135.496 39.3363C135.396 39.7489 135.15 40.1117 134.805 40.3587C134.482 40.6145 134.083 40.7547 133.672 40.7567H130.654C130.481 40.7683 130.309 40.7369 130.152 40.6653C129.995 40.5937 129.858 40.4842 129.754 40.3465C129.615 40.1727 129.539 39.9568 129.54 39.7343C129.551 39.6109 129.569 39.4882 129.595 39.3669L129.582 39.3547ZM137.67 31.1693H147.306V23.2105H142.978C142.062 23.1915 141.167 23.4841 140.44 24.0403C139.713 24.5964 139.196 25.3832 138.974 26.2716L137.67 31.1693ZM155.614 39.3547L159.44 24.8451C160.481 20.8983 163.854 18.9188 169.56 18.9066H177.776C177.954 18.9049 178.129 18.9418 178.291 19.0148C178.453 19.0877 178.597 19.1949 178.713 19.329C178.957 19.6013 179.09 19.9552 179.086 20.3208V39.3547C179.091 39.5421 179.056 39.7284 178.982 39.9006C178.908 40.0729 178.797 40.2271 178.658 40.3526C178.523 40.4835 178.364 40.5866 178.19 40.6559C178.016 40.7253 177.829 40.7595 177.642 40.7567H174.776C174.585 40.7637 174.395 40.7315 174.217 40.662C174.039 40.5925 173.877 40.4872 173.742 40.3526C173.608 40.2193 173.502 40.0596 173.433 39.8837C173.363 39.7077 173.331 39.5193 173.338 39.3302V35.4855H162.544L161.516 39.3363C161.415 39.7489 161.169 40.1117 160.824 40.3587C160.502 40.6145 160.103 40.7547 159.691 40.7567H156.673C156.501 40.7683 156.328 40.7369 156.171 40.6653C156.014 40.5937 155.877 40.4842 155.773 40.3465C155.634 40.1727 155.559 39.9568 155.559 39.7343C155.57 39.6109 155.588 39.4882 155.614 39.3669V39.3547ZM163.701 31.1693H173.338V23.2105H169.009C168.094 23.1915 167.199 23.4841 166.472 24.0403C165.744 24.5964 165.227 25.3832 165.005 26.2716L163.701 31.1693ZM183.445 39.3547V20.3759C183.439 20.1846 183.473 19.994 183.543 19.816C183.614 19.6381 183.72 19.4764 183.855 19.341C183.991 19.2057 184.152 19.0994 184.33 19.0289C184.508 18.9584 184.699 18.9251 184.89 18.9311H199.614C199.804 18.9239 199.993 18.9567 200.169 19.0274C200.345 19.0981 200.504 19.205 200.637 19.3413C200.772 19.4764 200.879 19.6379 200.949 19.8159C201.02 19.9939 201.053 20.1845 201.047 20.3759V21.8085C201.053 21.9982 201.02 22.1872 200.95 22.3637C200.88 22.5402 200.775 22.7005 200.64 22.8347C200.506 22.969 200.346 23.0743 200.169 23.1442C199.993 23.214 199.804 23.247 199.614 23.2411H189.176V39.3792C189.18 39.566 189.145 39.7516 189.072 39.9236C188.999 40.0957 188.891 40.2503 188.753 40.3771C188.62 40.5094 188.461 40.6134 188.286 40.6828C188.112 40.7523 187.925 40.7857 187.737 40.7812H184.89C184.703 40.784 184.516 40.7497 184.342 40.6804C184.167 40.6111 184.008 40.508 183.874 40.3771C183.735 40.2516 183.624 40.0974 183.55 39.9251C183.476 39.7529 183.441 39.5666 183.445 39.3792V39.3547ZM203.532 39.3547V20.3759C203.529 20.1868 203.564 19.9989 203.634 19.8233C203.705 19.6477 203.81 19.488 203.943 19.3535C204.072 19.2163 204.229 19.1078 204.403 19.035C204.577 18.9622 204.764 18.9268 204.953 18.9311H216.585C222.707 18.9311 225.78 21.7616 225.805 27.4226C225.829 33.0835 222.756 35.9161 216.585 35.9201H209.281V39.3486C209.281 39.5372 209.244 39.724 209.171 39.8982C209.099 40.0724 208.993 40.2306 208.859 40.3637C208.726 40.4969 208.567 40.6023 208.392 40.6739C208.218 40.7455 208.031 40.782 207.842 40.7812H204.977C204.788 40.7832 204.6 40.7474 204.424 40.6759C204.249 40.6044 204.089 40.4987 203.955 40.3649C203.819 40.2345 203.711 40.0776 203.638 39.9038C203.566 39.73 203.53 39.5431 203.532 39.3547ZM209.281 31.6101H214.84C216.191 31.695 217.539 31.3957 218.728 30.7469C219.609 30.1714 220.05 29.0633 220.05 27.4226C220.05 25.7818 219.609 24.6737 218.728 24.0982C217.537 23.4547 216.191 23.1577 214.84 23.2411H209.281V31.5856V31.6101ZM230.464 38.5282C228.374 36.7079 227.331 33.8202 227.335 29.8653C227.339 25.9104 228.382 23.0227 230.464 21.2024C232.545 19.3821 235.594 18.4719 239.61 18.4719C243.627 18.4719 246.675 19.3821 248.757 21.2024C250.83 23.0227 251.869 25.9104 251.873 29.8653C251.877 33.8202 250.839 36.7079 248.757 38.5282C246.675 40.3445 243.627 41.2546 239.61 41.2587C235.594 41.2628 232.545 40.3526 230.464 38.5282ZM234.627 24.4166C233.598 25.641 233.084 27.4777 233.084 29.8714C233.084 32.2652 233.598 34.1019 234.627 35.3202C235.655 36.5385 237.321 37.1568 239.61 37.1568C241.9 37.1568 243.559 36.5446 244.588 35.3202C245.616 34.0957 246.124 32.2897 246.124 29.8714C246.124 27.4532 245.61 25.641 244.588 24.4166C243.565 23.1921 241.9 22.5799 239.61 22.5799C237.321 22.5799 235.662 23.1921 234.627 24.4166ZM254.977 39.3241V20.382C254.973 20.1877 255.008 19.9944 255.079 19.8136C255.151 19.6328 255.258 19.4681 255.393 19.329C255.524 19.1922 255.682 19.0841 255.857 19.0114C256.032 18.9387 256.22 18.903 256.41 18.9066H262.642C263.059 18.9142 263.46 19.0631 263.781 19.329C264.12 19.5887 264.372 19.9453 264.503 20.3514L269.04 33.3672L273.576 20.3514C273.708 19.9438 273.963 19.5867 274.305 19.329C274.624 19.0605 275.027 18.9112 275.444 18.9066H281.707C281.894 18.9032 282.08 18.939 282.253 19.0118C282.426 19.0845 282.582 19.1926 282.711 19.329C282.846 19.4684 282.952 19.6333 283.022 19.8141C283.092 19.995 283.126 20.188 283.121 20.382V39.2996C283.126 39.4939 283.089 39.687 283.014 39.8663C282.939 40.0456 282.828 40.2071 282.686 40.3404C282.55 40.4754 282.389 40.5818 282.211 40.6534C282.033 40.7249 281.843 40.76 281.652 40.7567H278.835C278.644 40.7593 278.454 40.7239 278.276 40.6524C278.099 40.5809 277.937 40.4749 277.801 40.3404C277.661 40.2059 277.551 40.044 277.477 39.8649C277.404 39.6858 277.368 39.4933 277.372 39.2996V24.4104L271.991 39.3853C271.845 39.7739 271.587 40.1105 271.25 40.3526C270.928 40.6106 270.529 40.7529 270.117 40.7567H267.938C267.531 40.7521 267.138 40.6097 266.824 40.3526C266.486 40.1061 266.224 39.7714 266.064 39.3853L260.701 24.4104V39.2996C260.707 39.4929 260.672 39.6852 260.599 39.8644C260.527 40.0435 260.418 40.2056 260.279 40.3404C260.142 40.4746 259.981 40.5805 259.803 40.6519C259.626 40.7234 259.436 40.759 259.244 40.7567H256.459C256.266 40.7594 256.075 40.7241 255.897 40.6526C255.718 40.5812 255.555 40.475 255.418 40.3404C255.275 40.2082 255.161 40.047 255.085 39.8675C255.009 39.688 254.972 39.4944 254.977 39.2996V39.3241ZM285.557 39.3792L289.384 24.8696C290.421 20.9228 293.794 18.9433 299.504 18.9311H307.72C307.897 18.9294 308.073 18.9663 308.235 19.0393C308.396 19.1122 308.54 19.2194 308.656 19.3535C308.901 19.6258 309.034 19.9797 309.03 20.3453V39.3792C309.035 39.5666 308.999 39.7529 308.925 39.9251C308.851 40.0974 308.741 40.2516 308.601 40.3771C308.329 40.6409 307.964 40.7862 307.585 40.7812H304.714C304.524 40.7874 304.335 40.7547 304.158 40.6853C303.981 40.6158 303.82 40.5109 303.685 40.3771C303.551 40.2438 303.446 40.0841 303.376 39.9082C303.307 39.7322 303.274 39.5438 303.281 39.3547V35.51H292.488L291.459 39.3608C291.358 39.7734 291.113 40.1361 290.767 40.3832C290.445 40.639 290.046 40.7791 289.635 40.7812H286.617C286.444 40.7928 286.272 40.7614 286.115 40.6898C285.958 40.6182 285.821 40.5086 285.717 40.371C285.578 40.1972 285.502 39.9813 285.502 39.7588C285.514 39.6354 285.532 39.5127 285.557 39.3914V39.3792ZM293.639 31.1938H303.281V23.235H298.953C298.037 23.2138 297.141 23.5055 296.413 24.062C295.685 24.6185 295.169 25.4065 294.949 26.2961L293.639 31.1938ZM313.389 39.3547V20.3759C313.391 19.9932 313.543 19.6266 313.814 19.356C314.085 19.0854 314.451 18.9327 314.834 18.9311H317.699C317.887 18.9263 318.075 18.9602 318.25 19.0307C318.425 19.1013 318.583 19.207 318.715 19.3413C318.852 19.47 318.96 19.6258 319.033 19.7987C319.105 19.9716 319.141 20.1578 319.138 20.3453V36.4712H325.811V20.3208C325.807 20.1326 325.843 19.9458 325.917 19.7727C325.991 19.5996 326.101 19.4442 326.239 19.3168C326.373 19.1836 326.531 19.0787 326.706 19.0083C326.88 18.9378 327.067 18.9032 327.256 18.9066H330.127C330.316 18.9031 330.503 18.9388 330.677 19.0116C330.85 19.0843 331.007 19.1924 331.137 19.329C331.273 19.4621 331.38 19.6213 331.453 19.797C331.526 19.9727 331.562 20.1613 331.56 20.3514V36.4467H338.245V20.3208C338.242 20.1333 338.278 19.9471 338.35 19.7742C338.423 19.6013 338.531 19.4455 338.668 19.3168C338.8 19.1838 338.957 19.079 339.131 19.0085C339.304 18.938 339.49 18.9033 339.678 18.9066H342.555C342.744 18.9037 342.932 18.9397 343.107 19.0124C343.282 19.0851 343.44 19.1928 343.571 19.329C343.707 19.4621 343.815 19.6213 343.887 19.797C343.96 19.9727 343.996 20.1613 343.994 20.3514V39.3302C343.993 39.5183 343.955 39.7045 343.882 39.878C343.81 40.0515 343.703 40.209 343.57 40.3414C343.436 40.4739 343.278 40.5787 343.104 40.65C342.93 40.7212 342.743 40.7575 342.555 40.7567H314.834C314.645 40.7589 314.458 40.7232 314.283 40.6517C314.109 40.5802 313.95 40.4743 313.818 40.3404C313.68 40.2113 313.57 40.0547 313.496 39.8807C313.422 39.7067 313.386 39.5192 313.389 39.3302V39.3547Z" fill="white"/>
<path fill-rule="evenodd" clip-rule="evenodd" d="M68.1645 56.27C67.8155 57.1271 67.4298 57.9598 67.0074 58.7618C64.3749 58.3883 62.777 57.1822 60.7015 56.0313C60.7647 55.8737 60.8583 55.7302 60.977 55.6088C61.5599 55.0973 62.1138 54.5536 62.6362 53.9803C62.9851 53.662 63.1259 53.6375 63.6647 53.9252C65.2503 54.7885 66.536 55.6945 68.1645 56.27ZM58.9812 67.6328V67.7675C57.5497 68.753 56.0215 69.5899 54.4202 70.2654C51.4387 67.994 50.2816 65.7411 48.4572 63.231C48.0347 62.6494 47.8449 62.5637 47.3368 62.582L46.443 62.7167C46.5225 62.3984 46.6083 62.1045 46.7001 61.7616C46.8899 61.1004 47.0368 60.9964 47.5939 60.9045C48.5704 60.8519 49.5433 60.7456 50.5081 60.5862C51.0346 60.5862 51.1999 60.6535 51.6223 61.2351C53.459 63.7513 54.6038 65.9982 57.5854 68.2695C58.0629 68.0736 58.5282 67.8594 58.9812 67.6573V67.6328ZM41.4779 70.2409C41.1048 70.9987 40.675 71.7273 40.1922 72.4204C39.1269 72.3469 38.0556 72.2245 36.9597 72.0469C35.8638 71.8694 34.7373 71.6857 33.6721 71.3674C31.8354 67.3635 31.9334 64.688 31.462 61.3698C31.4622 61.1073 31.3843 60.8508 31.2382 60.6327C31.0921 60.4147 30.8844 60.245 30.6416 60.1454C29.5627 59.6784 28.512 59.1489 27.4948 58.5597C27.3723 58.501 27.2453 58.4518 27.1152 58.4128C27.8192 57.8618 28.5172 57.2986 29.2825 56.7353C29.4522 56.5446 29.6855 56.422 29.939 56.3905C30.1924 56.359 30.4486 56.4206 30.6599 56.5639C31.6793 57.1531 32.732 57.6826 33.8129 58.1496C34.0594 58.2521 34.2692 58.4268 34.4145 58.6508C34.5599 58.8749 34.634 59.1376 34.6271 59.4046C35.0985 62.7228 35.0006 65.3982 36.8372 69.4021C37.9331 69.6899 39.0412 69.898 40.1371 70.0817C40.5901 70.1552 41.0371 70.2164 41.484 70.2715L41.4779 70.2409ZM23.5521 60.6658C21.8334 62.0339 19.8639 63.0529 17.7544 63.6656C15.7552 62.1655 13.8799 60.5072 12.1464 58.7067C12.6974 54.4211 14.2953 52.4008 15.7218 49.5846C16.0585 48.9295 16.0095 48.7336 15.6238 48.103C14.9382 47.1888 14.2953 46.248 13.6953 45.2807C13.5618 45.035 13.355 44.837 13.1038 44.7141C12.8526 44.5912 12.5693 44.5496 12.2934 44.595C8.9935 44.595 6.39157 45.0725 2.1795 43.7808C1.30599 41.7166 0.607635 39.5826 0.0918327 37.4014C1.35041 36.1428 2.81413 35.1076 4.42022 34.3403C4.04065 34.6464 3.64883 34.9954 3.25701 35.3811C3.77116 37.5685 4.46323 39.7103 5.32631 41.7849C9.53838 43.0767 12.1403 42.6053 15.4463 42.5992C15.7214 42.5533 16.004 42.5947 16.2544 42.7177C16.5048 42.8407 16.7103 43.039 16.8422 43.2849C17.4544 44.2522 18.0666 45.195 18.7706 46.1072C19.1563 46.7194 19.2053 46.9337 18.8747 47.5888C17.4421 50.405 15.8442 52.4437 15.2994 56.7108C17.03 58.5143 18.9056 60.1729 20.9073 61.6698C21.8148 61.4078 22.6993 61.072 23.5521 60.6658ZM8.79759 31.7996V31.7262C8.67776 30.7329 8.62458 29.7328 8.63842 28.7324C8.57719 28.1753 8.47311 28.0222 7.83641 27.6794C5.08142 26.1733 2.69989 25.3223 0 22.6531C0.196181 21.7695 0.445605 20.8985 0.746907 20.045C1.02162 19.2098 1.34669 18.392 1.72034 17.5961C2.52969 17.4548 3.34802 17.3709 4.16921 17.3451C4.0835 17.5655 4.00391 17.792 3.92433 18.0247C3.62302 18.8782 3.3736 19.7491 3.17742 20.6327C5.87731 23.302 8.25884 24.153 11.0199 25.6591C11.6322 26.0019 11.7546 26.155 11.822 26.7121C11.8091 27.7122 11.8602 28.7122 11.975 29.7058C11.975 30.2691 11.8771 30.416 11.2465 30.7099C10.4138 31.0956 9.60572 31.4262 8.79759 31.7751V31.7996ZM12.8566 15.8207L13.0709 15.5452C13.2913 15.1717 13.2852 15.0309 12.9301 14.5473C11.424 12.4902 9.91183 11.0086 9.11595 8.27815C10.1912 7.46951 11.3272 6.74496 12.5138 6.11091L12.2872 6.28233C13.077 9.01283 14.5892 10.4944 16.0952 12.5514C16.4503 13.0351 16.4626 13.1637 16.2361 13.5494C15.7247 14.1847 15.2563 14.8535 14.8341 15.5513C14.528 15.9309 14.3749 15.9921 13.7137 15.9187L12.8566 15.8207ZM24.201 7.45778C23.9194 5.84152 23.5276 4.45791 24.1153 2.68247C25.0581 2.59676 26.0132 2.55389 26.9744 2.55389C27.0511 3.7212 27.2128 4.88137 27.458 6.02519C27.5254 6.4966 27.458 6.57619 27.0234 6.74149C26.3142 6.92456 25.6153 7.14526 24.9296 7.40268C24.6982 7.4869 24.4446 7.4869 24.2133 7.40268L24.201 7.45778Z" fill="white"/>
<path fill-rule="evenodd" clip-rule="evenodd" d="M68.4461 42.8627C68.4032 43.53 68.3603 44.2157 68.3114 44.632C68.5624 45.5197 68.3114 45.2442 68.6726 45.7279C70.2644 47.7972 71.5684 48.9849 72.9581 52.0766C72.4956 53.5317 71.9014 54.9416 71.1827 56.2887C68.4644 55.8969 66.8543 54.6296 64.6748 53.4419C64.136 53.1541 63.9952 53.1786 63.6463 53.497C63.123 54.0692 62.5713 54.6147 61.9933 55.1316C61.6504 55.5173 61.6076 55.6703 61.7729 56.356C62.4892 59.1845 63.3891 61.4007 63.3218 65.0924C61.8906 66.0801 60.3623 66.9191 58.7608 67.5964C55.7854 65.3189 54.6221 63.0721 52.8039 60.5497C52.3814 59.9742 52.1916 59.8885 51.6835 59.9375C50.7191 60.1 49.7461 60.2063 48.7693 60.2558C48.2122 60.3477 48.0714 60.4518 47.8816 61.113C47.0368 64.0455 46.7612 66.5801 44.5389 69.7759C43.4736 69.7085 42.3961 69.5799 41.3064 69.4024C40.2166 69.2249 39.1024 69.0106 38.0126 68.7228C36.176 64.7189 36.2678 62.0435 35.7964 58.7253C35.805 58.458 35.7316 58.1945 35.586 57.9701C35.4405 57.7458 35.2297 57.5713 34.9821 57.4703C33.901 56.9898 32.8501 56.4439 31.8353 55.8356C31.6226 55.6931 31.3657 55.6321 31.1116 55.6635C30.8575 55.695 30.6233 55.817 30.4517 56.0071C27.9294 57.8437 26.1662 59.7783 22.1072 60.9721C20.1172 59.4725 18.252 57.8141 16.5299 56.0132C17.0747 51.7276 18.6726 49.7134 20.1052 46.8911C20.263 46.671 20.3394 46.403 20.3216 46.1328C20.3037 45.8626 20.1926 45.6069 20.0073 45.4095C19.3216 44.4973 18.6726 43.5729 18.0788 42.5872C17.9466 42.3402 17.7401 42.1411 17.4885 42.0181C17.2368 41.895 16.9529 41.8542 16.6768 41.9015C13.3708 41.9015 10.7689 42.379 6.56292 41.0873C5.6942 39.0141 4.99998 36.8721 4.4875 34.6834C7.28534 31.9468 9.73422 31.2979 12.4464 30.0245C13.0586 29.7306 13.1749 29.5837 13.181 29.0204C13.0612 28.0272 13.008 27.027 13.0218 26.0267C12.9606 25.4696 12.8565 25.3165 12.2198 24.9737C9.45872 23.4676 7.07719 22.6227 4.38342 19.9473C4.57836 19.0614 4.8278 18.1883 5.13033 17.3332C5.40701 16.4987 5.73204 15.681 6.10376 14.8843C9.72198 14.2721 12.03 14.8843 14.9442 15.1904C15.5993 15.2639 15.7585 15.1904 16.0584 14.8231C16.4807 14.1238 16.9512 13.4549 17.4666 12.8211C17.6869 12.4476 17.6747 12.3068 17.3196 11.8293C15.8197 9.76613 14.3014 8.28456 13.5116 5.55406C14.7334 4.62884 16.032 3.80957 17.3931 3.10518C20.6317 4.09086 22.248 5.3459 24.5009 6.67441C24.6619 6.81056 24.8568 6.90065 25.0648 6.93514C25.2728 6.96963 25.4862 6.94723 25.6825 6.87033C26.37 6.60511 27.0709 6.37624 27.7824 6.18465C28.2049 6.01935 28.2845 5.93363 28.2171 5.46834C27.9477 3.59495 27.3906 2.10725 28.0457 0.12366C29.5256 -0.00727412 31.0129 -0.0338537 32.4965 0.0440874C34.8413 1.88075 35.6433 3.29496 37.0208 5.02754C37.1847 5.29599 37.4456 5.49111 37.7494 5.57243V5.6214C36.0239 5.44719 34.2842 5.46979 32.5639 5.68875C25.4499 6.6132 21.0358 10.4579 18.7828 15.674C16.7258 20.4555 16.7074 26.443 18.9665 32.6509C21.2154 38.5789 24.9462 43.8315 29.8028 47.9074C34.5965 51.9725 40.4982 54.9418 46.5776 55.8662C53.0977 56.8519 58.822 55.3581 62.8626 51.8623C65.5543 49.4919 67.4093 46.3164 68.1522 42.8076L68.4461 42.8627Z" fill="white"/>
<path fill-rule="evenodd" clip-rule="evenodd" d="M35.5393 8.66407C41.4594 7.96002 48.3469 10.5558 53.9058 15.2883C54.5181 15.7842 55.0446 16.2923 55.5894 16.8188H48.6591C44.0185 13.6782 38.7534 12.0619 34.1067 12.6129C28.6334 13.2618 25.303 16.4331 23.8704 20.7554C23.9767 19.6552 24.2005 18.5694 24.5377 17.5168C26.0437 12.821 29.613 9.36812 35.5576 8.66407H35.5393ZM63.3034 42.8627C62.5815 44.4355 61.5344 45.8375 60.2312 46.9762C58.9279 48.1148 57.398 48.9643 55.7425 49.4685C56.4651 49.0165 57.1346 48.4846 57.7383 47.8828C59.1257 46.479 60.1456 44.7547 60.7076 42.8627H63.3034Z" fill="white"/>
<path fill-rule="evenodd" clip-rule="evenodd" d="M33.4517 6.24538C39.5311 5.4495 46.5838 7.4331 52.6938 11.4799C46.8287 7.67186 40.1004 5.82908 34.3272 6.58211C27.6295 7.45146 23.497 11.0758 21.391 15.9736C19.4564 20.4489 19.438 26.0568 21.5563 31.8913C23.6716 37.4284 27.168 42.3326 31.713 46.1376C36.2006 49.9395 41.7289 52.7251 47.4226 53.5883C53.5448 54.5128 58.9139 53.1169 62.673 49.8354C64.8025 47.9743 66.3766 45.5612 67.2217 42.8622H67.583C66.7703 45.9312 65.0658 48.6902 62.6852 50.7905C58.8098 54.1638 53.2631 55.6025 46.9757 54.6536C41.1106 53.7597 35.417 50.9007 30.7947 46.9764C26.109 43.0418 22.5091 37.9728 20.338 32.2525C18.1585 26.2711 18.1769 20.4917 20.1666 15.8817C22.3338 10.8554 26.5887 7.13922 33.4578 6.24538H33.4517Z" fill="white"/>
<path d="M82.4047 50.9255V46.0277C82.4027 45.979 82.4109 45.9304 82.4289 45.8851C82.4468 45.8397 82.474 45.7986 82.5088 45.7645C82.5403 45.7292 82.579 45.7011 82.6223 45.6821C82.6656 45.6631 82.7125 45.6536 82.7598 45.6543H87.8045C87.8526 45.6543 87.9002 45.664 87.9444 45.683C87.9886 45.7019 88.0285 45.7296 88.0616 45.7645C88.1295 45.8352 88.1669 45.9297 88.1657 46.0277V50.9255C88.1664 50.9737 88.157 51.0215 88.138 51.0658C88.119 51.1101 88.0909 51.1499 88.0555 51.1826C88.0216 51.2182 87.9807 51.2464 87.9354 51.2653C87.8901 51.2843 87.8414 51.2937 87.7922 51.2928H87.0698C87.0217 51.2928 86.9741 51.283 86.9299 51.2641C86.8857 51.2452 86.8459 51.2174 86.8127 51.1826C86.7773 51.1499 86.7492 51.1101 86.7302 51.0658C86.7112 51.0215 86.7017 50.9737 86.7025 50.9255V46.7501H83.874V50.9255C83.8748 50.9737 83.8653 51.0215 83.8464 51.0658C83.8274 51.1101 83.7993 51.1499 83.7638 51.1826C83.7316 51.2187 83.6919 51.2472 83.6475 51.2662C83.6031 51.2853 83.555 51.2944 83.5067 51.2928H82.772C82.7229 51.2937 82.6742 51.2843 82.6289 51.2653C82.5835 51.2464 82.5427 51.2182 82.5088 51.1826C82.4742 51.1496 82.447 51.1096 82.429 51.0653C82.4111 51.0209 82.4028 50.9733 82.4047 50.9255ZM89.2738 50.9255V46.0277C89.2726 45.9297 89.31 45.8352 89.3779 45.7645C89.4111 45.7296 89.451 45.7019 89.4952 45.683C89.5394 45.664 89.5869 45.6543 89.635 45.6543H92.5982C94.1614 45.6543 94.945 46.3869 94.9491 47.8521C94.9532 49.3174 94.1695 50.0521 92.5982 50.0561H90.7615V50.9377C90.7639 50.9865 90.7559 51.0352 90.7379 51.0806C90.72 51.126 90.6925 51.167 90.6574 51.201C90.6243 51.2358 90.5844 51.2635 90.5402 51.2825C90.496 51.3014 90.4484 51.3112 90.4003 51.3112H89.6718C89.6226 51.312 89.5739 51.3027 89.5286 51.2837C89.4833 51.2647 89.4424 51.2366 89.4085 51.201C89.3731 51.1683 89.345 51.1285 89.326 51.0842C89.307 51.0398 89.2976 50.992 89.2983 50.9438L89.2738 50.9255ZM90.737 48.9174H92.1574C92.5003 48.9399 92.8424 48.8634 93.143 48.697C93.2685 48.5938 93.3657 48.4605 93.4257 48.3095C93.4856 48.1586 93.5063 47.9949 93.4859 47.8338C93.5064 47.6735 93.4857 47.5107 93.4257 47.3607C93.3657 47.2107 93.2684 47.0785 93.143 46.9767C92.8442 46.8052 92.5011 46.7263 92.1574 46.7501H90.737V48.9174ZM96.1368 50.7112C95.6223 50.0766 95.3416 49.2844 95.3416 48.4674C95.3416 47.6504 95.6223 46.8583 96.1368 46.2236C96.8269 45.7645 97.6374 45.5196 98.4663 45.5196C99.2952 45.5196 100.106 45.7645 100.796 46.2236C101.307 46.8597 101.586 47.6513 101.586 48.4674C101.586 49.2835 101.307 50.0751 100.796 50.7112C100.106 51.1703 99.2952 51.4152 98.4663 51.4152C97.6374 51.4152 96.8269 51.1703 96.1368 50.7112ZM97.1959 47.0379C96.9053 47.4496 96.7668 47.9495 96.8041 48.4521C96.7662 48.9528 96.9048 49.4511 97.1959 49.8602C97.3588 50.0281 97.5571 50.1574 97.7764 50.239C97.9956 50.3205 98.2302 50.3522 98.4632 50.3316C98.6963 50.3535 98.9314 50.3225 99.1508 50.2409C99.3702 50.1593 99.5684 50.0291 99.7305 49.8602C100.022 49.4511 100.16 48.9528 100.122 48.4521C100.16 47.9495 100.021 47.4496 99.7305 47.0379C99.5692 46.8679 99.3712 46.737 99.1515 46.6553C98.9319 46.5736 98.6964 46.5432 98.4632 46.5665C98.2301 46.5441 97.9949 46.5749 97.7754 46.6566C97.5559 46.7382 97.3578 46.8686 97.1959 47.0379ZM102.381 50.9071V46.0094C102.38 45.9598 102.388 45.9103 102.406 45.864C102.424 45.8177 102.451 45.7755 102.486 45.74C102.56 45.6708 102.659 45.6335 102.761 45.6359H103.465C103.565 45.635 103.661 45.6723 103.734 45.74C103.77 45.7738 103.798 45.8147 103.817 45.8601C103.836 45.9054 103.845 45.9541 103.845 46.0032V49.952L106.073 46.0094C106.137 45.9047 106.223 45.8149 106.324 45.7461C106.407 45.6808 106.507 45.6424 106.612 45.6359H107.751C107.8 45.6351 107.848 45.6444 107.894 45.6634C107.939 45.6824 107.98 45.7105 108.014 45.7461C108.082 45.8168 108.119 45.9113 108.118 46.0094V50.9071C108.119 50.9559 108.109 51.0043 108.089 51.0487C108.068 51.0932 108.039 51.1326 108.002 51.1642C107.968 51.1998 107.927 51.228 107.882 51.247C107.836 51.2659 107.787 51.2753 107.738 51.2744H107.028C106.979 51.2753 106.93 51.2659 106.885 51.247C106.84 51.228 106.799 51.1998 106.765 51.1642C106.73 51.1315 106.701 51.0917 106.682 51.0474C106.663 51.0031 106.654 50.9553 106.655 50.9071V47.2338L104.604 50.9071C104.54 51.0099 104.454 51.0977 104.353 51.1642C104.259 51.23 104.149 51.2682 104.034 51.2744H102.73C102.634 51.2714 102.542 51.2317 102.474 51.1635C102.406 51.0952 102.366 51.0036 102.363 50.9071H102.381ZM108.834 49.7317C108.829 49.6684 108.839 49.6048 108.864 49.5462C108.888 49.4876 108.926 49.4357 108.975 49.3949C109.049 49.3336 109.142 49.2991 109.238 49.297H109.691C109.819 49.3017 109.942 49.3462 110.043 49.4241C110.144 49.502 110.218 49.6096 110.255 49.7317C110.321 49.8765 110.436 49.9934 110.579 50.0622C110.734 50.1491 110.909 50.1934 111.087 50.1908H112.312C112.525 50.2 112.736 50.1513 112.924 50.05C112.991 49.9925 113.045 49.9212 113.082 49.8409C113.119 49.7605 113.138 49.6731 113.138 49.5847C113.138 49.4963 113.119 49.4089 113.082 49.3286C113.045 49.2483 112.991 49.1769 112.924 49.1194C112.736 49.0181 112.525 48.9695 112.312 48.9786H111.301C111.253 48.9802 111.205 48.9711 111.161 48.9521C111.116 48.933 111.077 48.9045 111.044 48.8684C111.009 48.8357 110.981 48.7959 110.962 48.7516C110.943 48.7073 110.933 48.6595 110.934 48.6113V48.2868C110.935 48.1893 110.972 48.0956 111.038 48.0236C111.069 47.9888 111.106 47.9609 111.149 47.9419C111.191 47.9229 111.237 47.9132 111.283 47.9134H112.159C112.396 47.9292 112.633 47.8805 112.844 47.7725C112.911 47.7151 112.965 47.6437 113.002 47.5634C113.039 47.4831 113.059 47.3957 113.059 47.3073C113.059 47.2188 113.039 47.1314 113.002 47.0511C112.965 46.9708 112.911 46.8995 112.844 46.842C112.633 46.734 112.396 46.6854 112.159 46.7012H111.216C111.039 46.6857 110.862 46.7236 110.707 46.8098C110.552 46.896 110.426 47.0266 110.346 47.1848C110.308 47.294 110.237 47.3886 110.143 47.4556C110.048 47.5225 109.936 47.5584 109.82 47.5583H109.361C109.31 47.5637 109.259 47.5637 109.208 47.5583C109.143 47.5264 109.088 47.4778 109.048 47.4175C108.99 47.3376 108.96 47.2407 108.963 47.142C108.966 46.9164 109.03 46.696 109.148 46.5033C109.265 46.3107 109.431 46.1528 109.63 46.0461C110.059 45.7595 110.565 45.6081 111.081 45.6114H112.269C113.775 45.6114 114.528 46.1869 114.528 47.3379C114.536 47.5555 114.492 47.772 114.4 47.9691C114.307 48.1662 114.168 48.3382 113.995 48.4705C114.191 48.5869 114.351 48.7543 114.459 48.955C114.567 49.1556 114.618 49.3817 114.607 49.6092C114.631 49.8582 114.591 50.109 114.493 50.3389C114.395 50.5688 114.24 50.7704 114.044 50.9255C113.565 51.2239 113.004 51.3652 112.44 51.3295H110.952C110.435 51.3326 109.93 51.1789 109.502 50.8887C109.3 50.776 109.132 50.6117 109.015 50.4127C108.897 50.2137 108.835 49.9871 108.834 49.7561V49.7317ZM115.397 45.991C115.397 45.8919 115.437 45.797 115.507 45.7269C115.577 45.6569 115.672 45.6175 115.771 45.6175H118.924C119.252 45.6133 119.579 45.6629 119.891 45.7645C120.185 45.8651 120.444 46.0478 120.638 46.291C120.846 46.5508 120.955 46.8765 120.944 47.2093C120.942 47.4124 120.893 47.6122 120.802 47.7936C120.71 47.975 120.579 48.1333 120.417 48.2562C120.657 48.3781 120.856 48.5679 120.989 48.802C121.122 49.036 121.183 49.304 121.164 49.5725C121.169 49.8109 121.116 50.047 121.01 50.2603C120.903 50.4737 120.746 50.6578 120.552 50.7969C120.127 51.104 119.613 51.2612 119.089 51.2438H115.771C115.722 51.2447 115.673 51.2353 115.627 51.2163C115.582 51.1974 115.541 51.1692 115.507 51.1336C115.472 51.1009 115.444 51.0611 115.425 51.0168C115.406 50.9725 115.396 50.9247 115.397 50.8765V45.9788V45.991ZM116.867 50.2092H119.083C119.168 50.2151 119.254 50.2016 119.333 50.1698C119.413 50.138 119.484 50.0887 119.542 50.0255C119.655 49.8858 119.712 49.709 119.701 49.5296C119.71 49.3505 119.653 49.1743 119.542 49.0337C119.484 48.9706 119.413 48.9212 119.333 48.8894C119.254 48.8576 119.168 48.8442 119.083 48.8501H116.867V50.2582V50.2092ZM116.867 47.7603H118.942C119.086 47.7658 119.226 47.7153 119.334 47.6195C119.434 47.5074 119.489 47.3625 119.489 47.2124C119.489 47.0622 119.434 46.9173 119.334 46.8052C119.282 46.7558 119.22 46.7174 119.153 46.6922C119.085 46.6669 119.014 46.6554 118.942 46.6583H116.867V47.8093V47.7603ZM122.432 50.6684C121.917 50.0337 121.636 49.2415 121.636 48.4246C121.636 47.6076 121.917 46.8154 122.432 46.1808C123.122 45.7217 123.932 45.4767 124.761 45.4767C125.59 45.4767 126.4 45.7217 127.091 46.1808C127.605 46.8154 127.886 47.6076 127.886 48.4246C127.886 49.2415 127.605 50.0337 127.091 50.6684C126.4 51.1275 125.59 51.3724 124.761 51.3724C123.932 51.3724 123.122 51.1275 122.432 50.6684ZM123.497 46.995C123.204 47.406 123.063 47.906 123.099 48.4093C123.063 48.9107 123.204 49.409 123.497 49.8174C123.849 50.1211 124.299 50.2883 124.764 50.2883C125.229 50.2883 125.679 50.1211 126.031 49.8174C126.323 49.4082 126.461 48.91 126.423 48.4093C126.461 47.9067 126.322 47.4068 126.031 46.995C125.679 46.6913 125.229 46.5241 124.764 46.5241C124.299 46.5241 123.849 46.6913 123.497 46.995ZM128.125 50.8642V50.4847C128.124 50.4356 128.134 50.3868 128.153 50.3415C128.172 50.2962 128.2 50.2553 128.235 50.2214C128.269 50.1874 128.309 50.1606 128.353 50.1427C128.397 50.1248 128.445 50.1162 128.493 50.1173H128.793L129.515 47.1297C129.76 46.0951 130.605 45.5747 132.037 45.5747H134.137C134.233 45.5751 134.325 45.6123 134.394 45.6788C134.429 45.7129 134.456 45.754 134.474 45.7994C134.492 45.8447 134.5 45.8933 134.498 45.942V50.8704C134.501 50.9182 134.493 50.966 134.475 51.0104C134.457 51.0548 134.429 51.0948 134.394 51.1275C134.325 51.1939 134.233 51.2312 134.137 51.2316H128.493C128.396 51.2285 128.304 51.1888 128.236 51.1206C128.168 51.0524 128.128 50.9607 128.125 50.8642ZM130.299 50.1173H133.035V46.6889H131.884C131.662 46.6812 131.444 46.7553 131.272 46.8971C131.104 47.0491 130.988 47.2506 130.941 47.4726L130.293 50.1173H130.299ZM136.011 50.5643C135.544 49.9405 135.291 49.1823 135.291 48.4031C135.291 47.624 135.544 46.8657 136.011 46.242C136.62 45.7363 137.401 45.4862 138.19 45.5441H139.059C139.619 45.5334 140.169 45.6959 140.633 46.0094C140.846 46.1452 141.021 46.3338 141.14 46.5569C141.259 46.78 141.318 47.03 141.312 47.2828C141.319 47.3462 141.31 47.4103 141.285 47.4692C141.261 47.528 141.222 47.5797 141.172 47.6195C141.095 47.6801 141 47.7144 140.902 47.7175H140.425C140.295 47.7152 140.17 47.672 140.066 47.5938C139.963 47.5157 139.887 47.4068 139.849 47.2828C139.773 47.0943 139.64 46.934 139.469 46.8243C139.298 46.7146 139.097 46.6609 138.894 46.6706H138.202C137.995 46.6459 137.785 46.6665 137.586 46.731C137.387 46.7955 137.205 46.9023 137.051 47.044C136.854 47.4742 136.752 47.942 136.752 48.4154C136.752 48.8887 136.854 49.3565 137.051 49.7868C137.204 49.9296 137.386 50.037 137.585 50.1016C137.784 50.1661 137.995 50.1861 138.202 50.1602H138.974C139.177 50.1699 139.378 50.1161 139.549 50.0064C139.72 49.8967 139.853 49.7365 139.929 49.548C139.965 49.4268 140.039 49.32 140.138 49.2422C140.238 49.1643 140.36 49.1193 140.486 49.1133H140.945C140.997 49.1152 141.049 49.1255 141.098 49.1439C141.163 49.1748 141.22 49.221 141.263 49.2786C141.319 49.3573 141.347 49.4519 141.343 49.548C141.35 49.8002 141.291 50.0498 141.173 50.2729C141.055 50.4959 140.882 50.6848 140.67 50.8214C140.212 51.1345 139.669 51.2972 139.115 51.2867H138.166C137.382 51.3462 136.606 51.0956 136.005 50.5888L136.011 50.5643ZM141.625 46.3216V45.9481C141.624 45.8484 141.661 45.752 141.729 45.6788C141.801 45.6099 141.898 45.5725 141.998 45.5747H146.896C146.944 45.5738 146.993 45.5825 147.038 45.6003C147.083 45.6182 147.124 45.6449 147.159 45.6788C147.227 45.752 147.264 45.8484 147.263 45.9481V46.3216C147.264 46.3702 147.255 46.4185 147.238 46.4636C147.22 46.5088 147.193 46.55 147.159 46.5848C147.125 46.6199 147.084 46.6474 147.039 46.6653C146.993 46.6833 146.945 46.6913 146.896 46.6889H145.163V50.8704C145.164 50.9181 145.156 50.9655 145.138 51.0097C145.12 51.054 145.093 51.094 145.059 51.1275C144.99 51.1939 144.898 51.2312 144.802 51.2316H144.067C144.02 51.2327 143.972 51.2241 143.928 51.2062C143.884 51.1883 143.844 51.1615 143.81 51.1275C143.774 51.0953 143.746 51.0556 143.727 51.0112C143.708 50.9668 143.699 50.9187 143.7 50.8704V46.6889H141.974C141.924 46.6914 141.874 46.6834 141.828 46.6655C141.781 46.6476 141.739 46.6201 141.704 46.5848C141.67 46.55 141.644 46.5088 141.626 46.4636C141.608 46.4185 141.599 46.3702 141.6 46.3216H141.625ZM147.924 45.9481C147.922 45.8994 147.931 45.8508 147.949 45.8055C147.967 45.7601 147.994 45.7191 148.029 45.6849C148.062 45.6493 148.103 45.6211 148.149 45.6022C148.194 45.5832 148.243 45.5738 148.292 45.5747H151.445C151.773 45.5704 152.1 45.62 152.412 45.7216C152.706 45.8222 152.965 46.0049 153.159 46.2481C153.367 46.5079 153.476 46.8336 153.465 47.1665C153.463 47.3695 153.414 47.5693 153.323 47.7508C153.232 47.9322 153.1 48.0904 152.939 48.2133C153.179 48.3346 153.378 48.5243 153.511 48.7585C153.644 48.9927 153.705 49.261 153.685 49.5296C153.69 49.7681 153.637 50.0042 153.531 50.2175C153.424 50.4308 153.267 50.615 153.073 50.7541C152.649 51.0612 152.134 51.2184 151.61 51.201H148.273C148.224 51.2018 148.176 51.1924 148.13 51.1735C148.085 51.1545 148.044 51.1263 148.01 51.0908C147.976 51.0578 147.948 51.0178 147.93 50.9734C147.912 50.9291 147.904 50.8814 147.906 50.8336V45.9359L147.924 45.9481ZM149.382 50.2582H151.598C151.683 50.264 151.769 50.2506 151.848 50.2188C151.928 50.187 151.999 50.1377 152.057 50.0745C152.17 49.9347 152.227 49.7579 152.216 49.5786C152.225 49.3995 152.168 49.2233 152.057 49.0827C151.999 49.0195 151.928 48.9702 151.848 48.9384C151.769 48.9066 151.683 48.8931 151.598 48.899H149.382V50.2582ZM149.382 47.8093H151.457C151.601 47.8147 151.741 47.7643 151.849 47.6685C151.949 47.5563 152.004 47.4115 152.004 47.2614C152.004 47.1112 151.949 46.9663 151.849 46.8542C151.797 46.8048 151.735 46.7664 151.668 46.7411C151.6 46.7159 151.529 46.7044 151.457 46.7073H149.382V47.8093ZM154.947 50.7173C154.432 50.0827 154.151 49.2905 154.151 48.4735C154.151 47.6566 154.432 46.8644 154.947 46.2298C155.638 45.7709 156.449 45.5261 157.279 45.5261C158.109 45.5261 158.92 45.7709 159.612 46.2298C160.123 46.8658 160.402 47.6574 160.402 48.4735C160.402 49.2896 160.123 50.0812 159.612 50.7173C158.92 51.1762 158.109 51.4209 157.279 51.4209C156.449 51.4209 155.638 51.1762 154.947 50.7173ZM156.012 47.044C155.721 47.4557 155.583 47.9557 155.62 48.4582C155.582 48.959 155.721 49.4572 156.012 49.8663C156.364 50.1701 156.814 50.3372 157.279 50.3372C157.744 50.3372 158.194 50.1701 158.546 49.8663C158.838 49.4572 158.976 48.959 158.938 48.4582C158.976 47.9557 158.837 47.4557 158.546 47.044C158.194 46.7402 157.744 46.5731 157.279 46.5731C156.814 46.5731 156.364 46.7402 156.012 47.044ZM163.971 50.9132V46.0155C163.97 45.9654 163.979 45.9157 163.998 45.8694C164.017 45.8231 164.045 45.7811 164.081 45.7461C164.156 45.6769 164.255 45.6396 164.356 45.642H165.06C165.16 45.6423 165.256 45.6794 165.33 45.7461C165.399 45.8162 165.439 45.9106 165.44 46.0094V49.9582L167.669 46.0155C167.732 45.9108 167.818 45.821 167.92 45.7522C168.002 45.687 168.102 45.6485 168.207 45.642H169.364C169.413 45.6405 169.461 45.6495 169.505 45.6686C169.55 45.6876 169.589 45.7162 169.621 45.7522C169.657 45.7861 169.685 45.827 169.704 45.8723C169.723 45.9176 169.733 45.9664 169.732 46.0155V50.9132C169.732 50.962 169.722 51.0104 169.702 51.0548C169.682 51.0993 169.653 51.1387 169.615 51.1704C169.58 51.2061 169.538 51.2343 169.492 51.2533C169.446 51.2722 169.396 51.2815 169.346 51.2806H168.642C168.593 51.2814 168.544 51.272 168.499 51.2531C168.453 51.2341 168.413 51.2059 168.379 51.1704C168.343 51.1377 168.315 51.0979 168.296 51.0536C168.277 51.0092 168.268 50.9614 168.268 50.9132V47.2399L166.218 50.9132C166.153 51.0176 166.065 51.1056 165.96 51.1704C165.87 51.2382 165.761 51.2767 165.648 51.2806H164.344C164.295 51.2807 164.247 51.271 164.201 51.2521C164.156 51.2332 164.115 51.2054 164.081 51.1704C164.045 51.1377 164.017 51.0979 163.998 51.0536C163.979 51.0092 163.97 50.9614 163.971 50.9132ZM174.048 50.699C173.529 50.0663 173.245 49.2734 173.245 48.4552C173.245 47.637 173.529 46.8441 174.048 46.2114C174.738 45.7523 175.548 45.5074 176.377 45.5074C177.206 45.5074 178.017 45.7523 178.707 46.2114C179.218 46.8475 179.497 47.6391 179.497 48.4552C179.497 49.2713 179.218 50.0629 178.707 50.699C178.017 51.1581 177.206 51.403 176.377 51.403C175.548 51.403 174.738 51.1581 174.048 50.699ZM175.107 47.0256C174.816 47.4374 174.678 47.9373 174.715 48.4399C174.677 48.9406 174.816 49.4388 175.107 49.848C175.459 50.1517 175.909 50.3189 176.374 50.3189C176.839 50.3189 177.289 50.1517 177.642 49.848C177.933 49.4388 178.071 48.9406 178.033 48.4399C178.071 47.9373 177.932 47.4374 177.642 47.0256C177.289 46.7219 176.839 46.5547 176.374 46.5547C175.909 46.5547 175.459 46.7219 175.107 47.0256ZM180.286 50.901V46.0032C180.285 45.9532 180.295 45.9035 180.314 45.8572C180.333 45.8108 180.361 45.7689 180.397 45.7338C180.431 45.6994 180.472 45.6723 180.517 45.6544C180.563 45.6365 180.611 45.6282 180.66 45.6298H185.031C185.079 45.6298 185.127 45.6396 185.171 45.6585C185.215 45.6774 185.255 45.7052 185.288 45.74C185.356 45.8107 185.393 45.9052 185.392 46.0032V46.3767C185.393 46.4747 185.356 46.5692 185.288 46.6399C185.255 46.6732 185.216 46.6995 185.173 46.7174C185.13 46.7353 185.084 46.7443 185.037 46.744H181.756V47.6991H183.666C184.213 47.6715 184.753 47.8313 185.196 48.1521C185.38 48.3239 185.526 48.5316 185.626 48.7622C185.726 48.9928 185.778 49.2415 185.778 49.4929C185.778 49.7443 185.726 49.993 185.626 50.2236C185.526 50.4542 185.38 50.6618 185.196 50.8336C184.753 51.1544 184.213 51.3142 183.666 51.2867H180.635C180.589 51.2877 180.542 51.279 180.499 51.2611C180.456 51.2432 180.417 51.2164 180.384 51.1826C180.35 51.1491 180.324 51.1091 180.306 51.0648C180.288 51.0206 180.279 50.9732 180.28 50.9255L180.286 50.901ZM181.756 50.148H183.666C184.1 50.148 184.315 49.9214 184.315 49.4684C184.315 49.0153 184.1 48.7888 183.666 48.7888H181.75V50.148H181.756ZM186.972 50.5949C186.503 49.9719 186.249 49.2134 186.249 48.4337C186.249 47.6541 186.503 46.8955 186.972 46.2726C187.589 45.7676 188.382 45.5277 189.176 45.6053H190.051C190.609 45.5947 191.157 45.7572 191.619 46.0706C191.833 46.2057 192.009 46.3939 192.129 46.6171C192.249 46.8402 192.309 47.0906 192.304 47.344C192.309 47.4073 192.299 47.4709 192.275 47.5294C192.25 47.588 192.212 47.6399 192.163 47.6807C192.084 47.7417 191.988 47.7761 191.888 47.7787H191.41C191.282 47.7721 191.159 47.7271 191.056 47.6496C190.953 47.5721 190.876 47.4657 190.835 47.344C190.759 47.1565 190.627 46.997 190.458 46.8874C190.288 46.7778 190.088 46.7234 189.886 46.7318H189.176C188.967 46.7074 188.756 46.7282 188.557 46.7926C188.357 46.8571 188.174 46.9637 188.019 47.1052C187.821 47.5355 187.719 48.0032 187.719 48.4766C187.719 48.95 187.821 49.4177 188.019 49.848C188.173 49.9909 188.356 50.0984 188.556 50.1629C188.756 50.2274 188.967 50.2474 189.176 50.2214H189.947C190.149 50.2307 190.349 50.1767 190.519 50.067C190.69 49.9573 190.821 49.7972 190.896 49.6092C190.933 49.4871 191.007 49.3796 191.108 49.3017C191.209 49.2237 191.332 49.1793 191.459 49.1745H191.919C191.969 49.1765 192.019 49.1868 192.065 49.2051C192.132 49.2344 192.189 49.2809 192.231 49.3398C192.288 49.4178 192.318 49.5124 192.316 49.6092C192.32 49.8613 192.258 50.1101 192.137 50.3311C192.016 50.5522 191.839 50.738 191.625 50.8704C191.168 51.1843 190.624 51.347 190.07 51.3357H189.121C188.337 51.3946 187.561 51.144 186.96 50.6377L186.972 50.5949ZM192.61 50.9316L193.596 47.142C193.857 46.1216 194.714 45.6094 196.167 45.6053H198.108C198.153 45.605 198.198 45.6155 198.238 45.6357C198.279 45.6559 198.314 45.6853 198.341 45.7216C198.401 45.7935 198.434 45.8848 198.433 45.9788V50.8765C198.434 50.9243 198.426 50.9719 198.408 51.0163C198.39 51.0606 198.363 51.1006 198.328 51.1336C198.297 51.1695 198.259 51.1981 198.215 51.2171C198.172 51.2362 198.125 51.2453 198.077 51.2438H197.337C197.288 51.2454 197.24 51.2363 197.196 51.2173C197.151 51.1982 197.112 51.1697 197.08 51.1336C197.044 51.1009 197.016 51.0611 196.997 51.0168C196.978 50.9725 196.969 50.9247 196.969 50.8765V46.7012H196.033C195.798 46.699 195.57 46.7766 195.385 46.9212C195.2 47.0658 195.07 47.2688 195.016 47.497L194.129 50.8765C194.102 50.9824 194.039 51.0755 193.951 51.1398C193.869 51.2043 193.768 51.2408 193.663 51.2438H192.849C192.808 51.2469 192.767 51.2389 192.731 51.2206C192.694 51.2022 192.663 51.1743 192.641 51.1398C192.605 51.097 192.585 51.0427 192.586 50.9867C192.583 50.9623 192.583 50.9376 192.586 50.9132L192.61 50.9316ZM199.1 45.9788C199.082 45.934 199.071 45.8863 199.069 45.8379C199.07 45.7953 199.081 45.7535 199.1 45.7155C199.122 45.6793 199.154 45.6499 199.192 45.6305C199.229 45.6111 199.272 45.6023 199.314 45.6053H200.134C200.248 45.6002 200.36 45.6328 200.453 45.6982C200.546 45.7636 200.615 45.8579 200.649 45.9665L201.096 47.0624C201.198 47.3387 201.371 47.5835 201.598 47.7725C201.825 47.9376 202.101 48.0197 202.381 48.0052H202.859L203.563 45.9726C203.595 45.8642 203.661 45.7695 203.753 45.7032C203.837 45.6393 203.941 45.6048 204.047 45.6053H204.83C204.874 45.6026 204.917 45.6106 204.957 45.6288C204.996 45.647 205.031 45.6747 205.057 45.7094C205.086 45.7525 205.101 45.804 205.1 45.8563C205.105 45.8929 205.105 45.9299 205.1 45.9665L203.832 49.6398C203.694 50.1177 203.417 50.5438 203.036 50.8642C202.601 51.1649 202.077 51.3114 201.549 51.2806H200.618C200.569 51.2826 200.521 51.2743 200.476 51.2564C200.43 51.2385 200.389 51.2113 200.355 51.1765C200.32 51.1462 200.292 51.1085 200.273 51.0662C200.254 51.0239 200.244 50.978 200.245 50.9316V50.5153C200.244 50.4695 200.253 50.4241 200.271 50.3819C200.289 50.3398 200.315 50.3018 200.349 50.2704C200.384 50.2351 200.426 50.2077 200.472 50.1897C200.519 50.1718 200.568 50.1638 200.618 50.1663H201.475C201.99 50.1663 202.338 49.8235 202.528 49.1439H202.198C201.657 49.1757 201.121 49.0341 200.667 48.7398C200.245 48.3878 199.923 47.9321 199.73 47.4175L199.118 45.9971L199.1 45.9788ZM205.222 51.1581C205.219 51.1358 205.219 51.1131 205.222 51.0908C205.224 51.0201 205.247 50.9517 205.289 50.8949L206.257 49.3215C206.394 49.1015 206.554 48.8963 206.734 48.7092C206.874 48.5522 207.057 48.4395 207.261 48.3848C207.032 48.3382 206.82 48.2302 206.649 48.0725C206.484 47.9071 206.345 47.7171 206.238 47.5093L205.4 45.9604C205.358 45.8966 205.334 45.8224 205.332 45.7461C205.329 45.7279 205.329 45.7093 205.332 45.691C205.332 45.6175 205.412 45.5808 205.51 45.5808H206.41C206.53 45.5826 206.646 45.6195 206.745 45.687C206.844 45.7545 206.921 45.8495 206.967 45.9604L207.579 47.0501C207.698 47.2861 207.865 47.4946 208.069 47.6624C208.246 47.7921 208.462 47.8589 208.681 47.8521H208.859V45.9665C208.858 45.9166 208.868 45.8671 208.887 45.8208C208.906 45.7746 208.934 45.7326 208.969 45.6971C209.001 45.6611 209.041 45.6325 209.085 45.6135C209.13 45.5944 209.178 45.5854 209.226 45.5869H209.955C210.004 45.5861 210.052 45.5954 210.098 45.6144C210.143 45.6334 210.184 45.6615 210.218 45.6971C210.284 45.771 210.322 45.8669 210.322 45.9665V47.8521H210.499C210.718 47.8588 210.933 47.7943 211.112 47.6685C211.315 47.5014 211.48 47.2926 211.595 47.0562L212.207 45.9665C212.253 45.8556 212.33 45.7606 212.429 45.6931C212.528 45.6256 212.645 45.5887 212.765 45.5869H213.665C213.763 45.5869 213.824 45.6237 213.842 45.6971C213.845 45.7154 213.845 45.734 213.842 45.7522C213.839 45.8275 213.818 45.9009 213.781 45.9665L212.936 47.5154C212.829 47.7232 212.691 47.9132 212.526 48.0787C212.354 48.2364 212.142 48.3443 211.914 48.3909C212.117 48.4456 212.3 48.5584 212.44 48.7154C212.618 48.9037 212.778 49.1087 212.918 49.3276L213.885 50.8949C213.923 50.956 213.946 51.0252 213.952 51.0969C213.958 51.119 213.958 51.1422 213.952 51.1642C213.952 51.2316 213.867 51.2683 213.763 51.2683H212.869C212.752 51.2632 212.64 51.225 212.544 51.1581C212.436 51.0937 212.344 51.0058 212.275 50.901L211.589 49.799C211.463 49.5679 211.297 49.3607 211.099 49.1868C210.927 49.0467 210.709 48.9748 210.487 48.9848H210.31V50.901C210.311 50.9487 210.302 50.9961 210.284 51.0403C210.266 51.0846 210.24 51.1247 210.206 51.1581C210.135 51.226 210.04 51.2634 209.942 51.2622H209.195C209.148 51.2634 209.1 51.2547 209.056 51.2368C209.012 51.2189 208.972 51.1921 208.938 51.1581C208.902 51.1259 208.874 51.0862 208.855 51.0418C208.836 50.9974 208.826 50.9493 208.828 50.901V49.0337H208.65C208.429 49.0237 208.211 49.0956 208.038 49.2357C207.84 49.4109 207.673 49.6178 207.542 49.848L206.863 50.95C206.793 51.0548 206.701 51.1426 206.593 51.2071C206.498 51.274 206.385 51.3122 206.269 51.3173H205.375C205.271 51.3173 205.21 51.2806 205.185 51.2132L205.222 51.1581ZM214.503 50.8949V45.9971C214.502 45.9473 214.512 45.8979 214.531 45.8518C214.549 45.8057 214.577 45.7639 214.613 45.7289C214.648 45.694 214.691 45.6667 214.737 45.6486C214.783 45.6305 214.833 45.622 214.883 45.6237H215.587C215.687 45.6228 215.783 45.66 215.856 45.7277C215.892 45.7616 215.92 45.8025 215.939 45.8478C215.958 45.8931 215.967 45.9419 215.967 45.991V49.9398L218.201 45.9971C218.263 45.8926 218.346 45.8027 218.446 45.7338C218.53 45.6677 218.633 45.6293 218.74 45.6237H219.897C219.945 45.6237 219.993 45.6334 220.037 45.6524C220.081 45.6713 220.121 45.699 220.154 45.7338C220.222 45.8045 220.259 45.8991 220.258 45.9971V50.8949C220.259 50.9431 220.249 50.9909 220.23 51.0352C220.211 51.0795 220.183 51.1193 220.148 51.152C220.113 51.1877 220.071 51.216 220.025 51.2349C219.978 51.2539 219.929 51.2632 219.879 51.2622H219.175C219.124 51.2632 219.075 51.2539 219.028 51.2349C218.982 51.216 218.94 51.1877 218.905 51.152C218.87 51.1193 218.842 51.0795 218.823 51.0352C218.804 50.9909 218.794 50.9431 218.795 50.8949V47.2216L216.744 50.8949C216.684 51.0005 216.597 51.089 216.493 51.152C216.4 51.22 216.289 51.2584 216.175 51.2622H214.889C214.84 51.263 214.791 51.2537 214.746 51.2347C214.7 51.2157 214.66 51.1876 214.626 51.152C214.59 51.1193 214.562 51.0795 214.543 51.0352C214.524 50.9909 214.515 50.9431 214.516 50.8949H214.503ZM221.317 45.9971C221.316 45.948 221.326 45.8992 221.345 45.8539C221.364 45.8086 221.392 45.7677 221.427 45.7338C221.46 45.6984 221.5 45.6703 221.544 45.6513C221.589 45.6324 221.636 45.6229 221.685 45.6237H224.838C225.168 45.6198 225.497 45.6694 225.811 45.7706C226.103 45.8713 226.361 46.0541 226.552 46.2971C226.763 46.5555 226.871 46.8822 226.858 47.2154C226.857 47.4181 226.809 47.6177 226.719 47.7992C226.629 47.9806 226.498 48.1391 226.337 48.2623C226.576 48.3851 226.774 48.5753 226.905 48.8093C227.037 49.0433 227.097 49.3108 227.078 49.5786C227.083 49.8171 227.03 50.0531 226.923 50.2665C226.817 50.4798 226.66 50.664 226.466 50.803C226.042 51.111 225.527 51.2683 225.003 51.25H221.666C221.57 51.2469 221.478 51.2072 221.41 51.139C221.342 51.0707 221.302 50.9791 221.299 50.8826V45.9849L221.317 45.9971ZM222.781 50.2153H224.997C225.083 50.2192 225.169 50.2048 225.249 50.1732C225.329 50.1415 225.402 50.0933 225.462 50.0316C225.564 49.8864 225.619 49.7132 225.619 49.5357C225.619 49.3583 225.564 49.1851 225.462 49.0398C225.404 48.9767 225.333 48.9274 225.253 48.8956C225.174 48.8638 225.088 48.8503 225.003 48.8562H222.787V50.2582L222.781 50.2153ZM222.781 47.7664H224.856C224.963 47.759 225.066 47.7218 225.153 47.659C225.24 47.5961 225.308 47.5101 225.349 47.4107C225.39 47.3113 225.402 47.2025 225.384 47.0966C225.366 46.9907 225.319 46.8919 225.248 46.8114C225.196 46.7614 225.134 46.7226 225.067 46.6973C225 46.672 224.928 46.6608 224.856 46.6644H222.781V47.8093V47.7664ZM227.415 50.8949L228.358 47.1971C228.619 46.1767 229.478 45.6645 230.935 45.6604H233.029C233.074 45.6603 233.119 45.6701 233.161 45.6891C233.202 45.7082 233.238 45.736 233.268 45.7706C233.328 45.8425 233.361 45.9338 233.36 46.0277V50.9561C233.361 51.0044 233.352 51.0525 233.333 51.0969C233.314 51.1413 233.285 51.181 233.249 51.2132C233.216 51.2472 233.176 51.274 233.132 51.2919C233.087 51.3098 233.04 51.3185 232.992 51.3173H232.276C232.227 51.3189 232.179 51.3105 232.134 51.2926C232.088 51.2747 232.047 51.2477 232.013 51.2132C231.979 51.1784 231.952 51.1372 231.934 51.092C231.916 51.0468 231.908 50.9986 231.909 50.95V49.952H229.16L228.897 50.95C228.875 51.0563 228.814 51.1503 228.725 51.2132C228.641 51.279 228.538 51.3155 228.431 51.3173H227.666C227.622 51.3195 227.578 51.3112 227.537 51.2931C227.497 51.275 227.461 51.2476 227.433 51.2132C227.397 51.1657 227.378 51.1076 227.378 51.0479C227.378 51.0479 227.378 50.9928 227.378 50.9561L227.415 50.8949ZM229.472 48.7766H231.921V46.7134H230.807C230.571 46.7095 230.342 46.7874 230.158 46.9338C229.973 47.0792 229.842 47.2815 229.784 47.5093L229.454 48.7766H229.472ZM234.505 50.8887V45.991C234.503 45.9423 234.511 45.8937 234.529 45.8483C234.547 45.803 234.574 45.7619 234.609 45.7277C234.644 45.692 234.686 45.6638 234.732 45.6448C234.778 45.6259 234.828 45.6166 234.878 45.6175H235.6C235.649 45.616 235.697 45.6251 235.741 45.6441C235.786 45.6631 235.825 45.6917 235.857 45.7277C235.893 45.7616 235.921 45.8025 235.94 45.8478C235.959 45.8931 235.969 45.9419 235.968 45.991V47.8093H238.637V46.0338C238.636 45.9358 238.673 45.8413 238.741 45.7706C238.775 45.735 238.816 45.7069 238.861 45.6879C238.906 45.6689 238.955 45.6595 239.004 45.6604H239.727C239.776 45.6592 239.825 45.6684 239.87 45.6873C239.915 45.7063 239.956 45.7347 239.99 45.7706C240.026 45.8045 240.054 45.8453 240.073 45.8907C240.092 45.936 240.101 45.9847 240.1 46.0338V50.9316C240.101 50.9798 240.091 51.0276 240.073 51.0719C240.054 51.1162 240.025 51.156 239.99 51.1887C239.956 51.2243 239.915 51.2525 239.87 51.2714C239.825 51.2904 239.776 51.2998 239.727 51.2989H239.004C238.906 51.3001 238.812 51.2627 238.741 51.1949C238.707 51.1614 238.68 51.1213 238.662 51.0771C238.644 51.0328 238.636 50.9854 238.637 50.9377V48.9113H235.949V50.9377C235.951 50.986 235.942 51.0341 235.923 51.0785C235.904 51.1229 235.875 51.1627 235.839 51.1949C235.806 51.2289 235.766 51.2556 235.721 51.2735C235.677 51.2914 235.63 51.3001 235.582 51.2989H234.86C234.811 51.2991 234.762 51.2894 234.717 51.2704C234.672 51.2515 234.631 51.2237 234.596 51.1887C234.561 51.156 234.533 51.1162 234.514 51.0719C234.495 51.0276 234.485 50.9798 234.486 50.9316L234.505 50.8887ZM241.208 50.8887V45.991C241.207 45.9409 241.217 45.8912 241.236 45.8449C241.255 45.7986 241.283 45.7566 241.319 45.7216C241.393 45.6524 241.492 45.6151 241.594 45.6175H242.298C242.396 45.6163 242.491 45.6537 242.561 45.7216C242.597 45.7555 242.625 45.7964 242.644 45.8417C242.663 45.887 242.672 45.9357 242.672 45.9849V49.9337L244.906 45.991C244.968 45.8864 245.051 45.7966 245.151 45.7277C245.236 45.6623 245.338 45.6239 245.445 45.6175H246.602C246.65 45.616 246.698 45.6251 246.743 45.6441C246.787 45.6631 246.827 45.6917 246.859 45.7277C246.895 45.7616 246.923 45.8025 246.942 45.8478C246.961 45.8931 246.97 45.9419 246.969 45.991V50.8887C246.969 50.9373 246.958 50.9853 246.938 51.0296C246.918 51.0739 246.889 51.1135 246.853 51.1459C246.818 51.1816 246.776 51.2099 246.73 51.2288C246.683 51.2478 246.634 51.257 246.584 51.2561H245.88C245.829 51.257 245.78 51.2478 245.733 51.2288C245.687 51.2099 245.645 51.1816 245.61 51.1459C245.575 51.1132 245.547 51.0734 245.528 51.0291C245.509 50.9847 245.499 50.9369 245.5 50.8887V47.2154L243.455 50.8887C243.39 50.9931 243.302 51.0812 243.198 51.1459C243.105 51.2139 242.994 51.2523 242.88 51.2561H241.582C241.533 51.2569 241.484 51.2476 241.439 51.2286C241.393 51.2096 241.352 51.1815 241.319 51.1459C241.283 51.1132 241.255 51.0734 241.236 51.0291C241.217 50.9847 241.208 50.9369 241.208 50.8887ZM248.022 50.8887V45.991C248.021 45.9419 248.031 45.8931 248.05 45.8478C248.069 45.8025 248.097 45.7616 248.132 45.7277C248.202 45.6613 248.294 45.624 248.39 45.6237H252.847C252.895 45.6221 252.943 45.6312 252.987 45.6502C253.032 45.6693 253.072 45.6978 253.104 45.7338C253.139 45.7677 253.167 45.8086 253.186 45.8539C253.205 45.8992 253.215 45.948 253.214 45.9971V46.3706C253.215 46.4197 253.205 46.4684 253.186 46.5138C253.167 46.5591 253.139 46.5999 253.104 46.6338C253.07 46.6678 253.03 46.6946 252.986 46.7125C252.942 46.7304 252.894 46.739 252.847 46.7379H249.467V47.8827H252.381C252.429 47.8827 252.477 47.8925 252.521 47.9115C252.565 47.9304 252.605 47.9581 252.638 47.9929C252.706 48.0636 252.744 48.1582 252.743 48.2562V48.6297C252.744 48.7277 252.706 48.8222 252.638 48.8929C252.605 48.9277 252.565 48.9555 252.521 48.9744C252.477 48.9933 252.429 49.0031 252.381 49.0031H249.467V50.1663H252.847C252.893 50.1653 252.94 50.174 252.983 50.1919C253.026 50.2098 253.065 50.2366 253.098 50.2704C253.132 50.3046 253.16 50.3457 253.178 50.391C253.195 50.4363 253.204 50.4849 253.202 50.5337V50.9132C253.202 50.9608 253.193 51.0081 253.175 51.0522C253.157 51.0963 253.131 51.1365 253.098 51.1704C253.064 51.2059 253.023 51.2341 252.978 51.2531C252.932 51.272 252.883 51.2814 252.834 51.2806H248.377C248.328 51.2798 248.28 51.2693 248.235 51.2498C248.19 51.2303 248.149 51.2021 248.115 51.1669C248.081 51.1316 248.054 51.09 248.036 51.0444C248.018 50.9988 248.009 50.95 248.01 50.901L248.022 50.8887ZM257.132 50.6255C256.661 50.0034 256.407 49.2445 256.407 48.4644C256.407 47.6842 256.661 46.9254 257.132 46.3032C257.737 45.795 258.518 45.5444 259.305 45.6053H260.193C260.751 45.5939 261.299 45.7565 261.761 46.0706C261.976 46.2048 262.152 46.3929 262.273 46.6162C262.393 46.8396 262.453 47.0904 262.446 47.344C262.451 47.4073 262.441 47.4709 262.417 47.5294C262.392 47.588 262.354 47.6399 262.305 47.6807C262.227 47.7425 262.13 47.7769 262.03 47.7787H261.552C261.424 47.7752 261.3 47.7313 261.197 47.6533C261.095 47.5753 261.02 47.4671 260.983 47.344C260.906 47.156 260.773 46.9963 260.602 46.8867C260.431 46.7771 260.231 46.723 260.028 46.7318H259.336C259.129 46.7071 258.918 46.7277 258.72 46.7922C258.521 46.8567 258.339 46.9635 258.185 47.1052C257.984 47.5343 257.879 48.0025 257.879 48.4766C257.879 48.9506 257.984 49.4189 258.185 49.848C258.338 49.9908 258.52 50.0982 258.719 50.1628C258.918 50.2273 259.129 50.2473 259.336 50.2214H260.108C260.311 50.2311 260.512 50.1773 260.683 50.0676C260.854 49.9579 260.987 49.7977 261.063 49.6092C261.099 49.4881 261.172 49.3812 261.272 49.3034C261.372 49.2255 261.493 49.1805 261.62 49.1745H262.03C262.082 49.1764 262.134 49.1867 262.183 49.2051C262.246 49.2365 262.301 49.2827 262.342 49.3398C262.399 49.4178 262.43 49.5124 262.428 49.6092C262.434 49.8614 262.376 50.1111 262.258 50.3341C262.14 50.5571 261.967 50.746 261.754 50.8826C261.295 51.1958 260.749 51.3585 260.193 51.3479H259.25C258.477 51.3907 257.718 51.1317 257.132 50.6255ZM263.254 50.9132V46.0155C263.253 45.9664 263.263 45.9176 263.282 45.8723C263.301 45.827 263.329 45.7861 263.365 45.7522C263.398 45.7182 263.438 45.6914 263.482 45.6735C263.527 45.6556 263.574 45.647 263.622 45.6481H268.097C268.145 45.6489 268.193 45.6592 268.237 45.6784C268.281 45.6976 268.321 45.7254 268.355 45.76C268.388 45.7947 268.415 45.8357 268.433 45.8806C268.45 45.9254 268.459 45.9734 268.458 46.0216V46.3951C268.46 46.4438 268.452 46.4924 268.434 46.5377C268.416 46.583 268.389 46.6241 268.354 46.6583C268.285 46.7247 268.193 46.762 268.097 46.7624H264.662V47.9072H267.57C267.619 47.9057 267.667 47.9148 267.711 47.9338C267.756 47.9528 267.795 47.9814 267.828 48.0174C267.863 48.0513 267.891 48.0922 267.91 48.1375C267.929 48.1828 267.939 48.2316 267.938 48.2807V48.6541C267.939 48.7033 267.929 48.752 267.91 48.7973C267.891 48.8426 267.863 48.8835 267.828 48.9174C267.795 48.9534 267.756 48.982 267.711 49.001C267.667 49.0201 267.619 49.0291 267.57 49.0276H264.662V50.1908H268.036C268.082 50.1905 268.129 50.1995 268.172 50.2174C268.215 50.2353 268.254 50.2616 268.287 50.2949C268.355 50.3656 268.392 50.4601 268.391 50.5581V50.9377C268.392 50.9859 268.382 51.0337 268.363 51.078C268.344 51.1224 268.316 51.1621 268.281 51.1949C268.247 51.2297 268.208 51.2574 268.163 51.2764C268.119 51.2953 268.072 51.305 268.024 51.305H263.567C263.518 51.3066 263.47 51.2975 263.426 51.2785C263.381 51.2595 263.342 51.2309 263.309 51.1949C263.273 51.1605 263.244 51.1187 263.225 51.0722C263.206 51.0257 263.197 50.9757 263.199 50.9255L263.254 50.9132Z" fill="white"/>
<path d="M268.66 50.9626L269.646 47.173C269.911 46.1526 270.768 45.6404 272.217 45.6363H274.158C274.203 45.6356 274.248 45.6458 274.289 45.666C274.329 45.6863 274.364 45.716 274.391 45.7526C274.453 45.824 274.488 45.9151 274.489 46.0098V50.9075C274.489 50.9551 274.48 51.0023 274.462 51.0465C274.444 51.0906 274.418 51.1308 274.385 51.1647C274.352 51.2007 274.313 51.2293 274.268 51.2483C274.224 51.2673 274.176 51.2764 274.127 51.2749H273.387C273.338 51.2764 273.29 51.2673 273.246 51.2483C273.201 51.2293 273.162 51.2007 273.129 51.1647C273.094 51.132 273.066 51.0921 273.047 51.0478C273.028 51.0035 273.019 50.9557 273.019 50.9075V46.7322H272.076C271.842 46.7322 271.615 46.8106 271.431 46.9549C271.247 47.0991 271.116 47.3009 271.06 47.5281L270.172 50.9075C270.146 51.0134 270.083 51.1066 269.995 51.1708C269.913 51.2353 269.812 51.2718 269.707 51.2749H268.911C268.843 51.2734 268.778 51.246 268.729 51.1983C268.68 51.1505 268.651 51.086 268.648 51.0177C268.645 50.9933 268.645 50.9687 268.648 50.9443L268.66 50.9626ZM275.597 50.9137V46.0159C275.596 45.9161 275.633 45.8198 275.701 45.7465C275.771 45.6786 275.866 45.6412 275.964 45.6424H276.723C276.772 45.6416 276.821 45.651 276.866 45.6699C276.912 45.6889 276.953 45.7171 276.986 45.7526C277.054 45.8233 277.092 45.9179 277.091 46.0159V47.5648H279.007C279.556 47.5436 280.094 47.7195 280.525 48.0607C280.714 48.2361 280.866 48.4487 280.969 48.6852C281.072 48.9217 281.125 49.177 281.125 49.4351C281.125 49.6932 281.072 49.9485 280.969 50.1851C280.866 50.4216 280.714 50.6342 280.525 50.8096C280.092 51.1457 279.555 51.3191 279.007 51.2994H275.976C275.93 51.2999 275.884 51.2904 275.842 51.2713C275.799 51.2523 275.762 51.2242 275.731 51.1891C275.664 51.1159 275.626 51.0195 275.627 50.9198L275.597 50.9137ZM277.06 50.179H278.976C279.411 50.179 279.631 49.928 279.631 49.426C279.631 48.9239 279.411 48.6729 278.976 48.6729H277.06V50.179ZM281.345 51.1769C281.342 51.1566 281.342 51.1359 281.345 51.1157C281.35 51.0452 281.378 50.9783 281.425 50.9259L283.384 48.3852L281.547 46.0098C281.502 45.9564 281.474 45.89 281.468 45.82C281.464 45.7977 281.464 45.775 281.468 45.7526C281.484 45.7135 281.512 45.6809 281.549 45.6598C281.586 45.6387 281.628 45.6305 281.67 45.6363H282.503C282.638 45.6388 282.77 45.674 282.888 45.7391C283.007 45.8042 283.108 45.8971 283.182 46.0098L284.247 47.3873L285.313 46.0098C285.388 45.8978 285.489 45.8055 285.607 45.7405C285.725 45.6755 285.857 45.6398 285.992 45.6363H286.825C286.867 45.6305 286.909 45.6387 286.946 45.6598C286.982 45.6809 287.011 45.7135 287.027 45.7526C287.03 45.775 287.03 45.7977 287.027 45.82C287.02 45.8897 286.992 45.9557 286.947 46.0098L285.111 48.3852L287.07 50.9259C287.118 50.9778 287.146 51.045 287.149 51.1157C287.156 51.1356 287.156 51.157 287.149 51.1769C287.133 51.216 287.105 51.2487 287.068 51.2697C287.032 51.2908 286.989 51.2991 286.947 51.2932H286.09C285.956 51.2899 285.824 51.2549 285.706 51.1911C285.588 51.1273 285.487 51.0364 285.411 50.9259L284.229 49.3892L283.047 50.9259C282.971 51.0364 282.87 51.1273 282.752 51.1911C282.634 51.2549 282.502 51.2899 282.368 51.2932H281.541C281.5 51.2991 281.457 51.2908 281.42 51.2697C281.384 51.2487 281.355 51.216 281.339 51.1769H281.345ZM288.251 50.7116C287.737 50.077 287.456 49.2848 287.456 48.4678C287.456 47.6509 287.737 46.8587 288.251 46.224C288.941 45.765 289.752 45.52 290.581 45.52C291.41 45.52 292.22 45.765 292.91 46.224C293.422 46.8601 293.7 47.6518 293.7 48.4678C293.7 49.2839 293.422 50.0755 292.91 50.7116C292.22 51.1707 291.41 51.4156 290.581 51.4156C289.752 51.4156 288.941 51.1707 288.251 50.7116ZM289.31 47.0383C289.02 47.45 288.881 47.9499 288.919 48.4525C288.881 48.9533 289.019 49.4515 289.31 49.8606C289.473 50.0285 289.672 50.1579 289.891 50.2394C290.11 50.321 290.345 50.3526 290.578 50.332C290.811 50.3539 291.046 50.3229 291.265 50.2413C291.485 50.1597 291.683 50.0295 291.845 49.8606C292.136 49.4515 292.275 48.9533 292.237 48.4525C292.274 47.9499 292.136 47.45 291.845 47.0383C291.684 46.8683 291.486 46.7374 291.266 46.6557C291.046 46.574 290.811 46.5436 290.578 46.5669C290.345 46.5445 290.109 46.5753 289.89 46.657C289.67 46.7387 289.472 46.869 289.31 47.0383ZM294.135 49.7321C294.13 49.6688 294.14 49.6052 294.164 49.5466C294.189 49.488 294.227 49.4362 294.276 49.3953C294.35 49.334 294.443 49.2995 294.539 49.2974H294.992C295.119 49.3021 295.242 49.3466 295.343 49.4245C295.444 49.5024 295.518 49.61 295.555 49.7321C295.621 49.8769 295.736 49.9939 295.88 50.0627C296.035 50.1487 296.21 50.193 296.388 50.1912H297.612C297.825 50.2004 298.037 50.1517 298.224 50.0504C298.292 49.9929 298.346 49.9216 298.383 49.8413C298.42 49.761 298.439 49.6736 298.439 49.5851C298.439 49.4967 298.42 49.4093 298.383 49.329C298.346 49.2487 298.292 49.1773 298.224 49.1199C298.037 49.0182 297.825 48.9696 297.612 48.979H296.608C296.512 48.976 296.42 48.9363 296.352 48.8681C296.284 48.7998 296.244 48.7082 296.241 48.6117V48.2872C296.242 48.1897 296.279 48.096 296.345 48.024C296.375 47.9892 296.413 47.9614 296.455 47.9423C296.498 47.9233 296.543 47.9136 296.59 47.9138H297.465C297.699 47.939 297.935 47.9031 298.151 47.8097C298.218 47.7522 298.272 47.6809 298.309 47.6006C298.346 47.5202 298.365 47.4328 298.365 47.3444C298.365 47.256 298.346 47.1686 298.309 47.0883C298.272 47.0079 298.218 46.9366 298.151 46.8791C297.937 46.7721 297.698 46.7235 297.459 46.7383H296.516C296.34 46.7237 296.163 46.7619 296.008 46.848C295.853 46.9341 295.728 47.0643 295.647 47.222C295.609 47.3312 295.538 47.4258 295.443 47.4927C295.349 47.5596 295.236 47.5955 295.12 47.5954H294.661C294.61 47.6008 294.559 47.6008 294.508 47.5954C294.443 47.5635 294.389 47.5149 294.349 47.4546C294.291 47.3748 294.261 47.2779 294.263 47.1791C294.268 46.9539 294.332 46.7339 294.45 46.5415C294.567 46.3491 294.733 46.191 294.931 46.0832C295.36 45.7966 295.865 45.6452 296.382 45.6486H297.539C299.045 45.6486 299.798 46.2241 299.798 47.375C299.806 47.5927 299.762 47.8092 299.67 48.0063C299.577 48.2034 299.438 48.3753 299.265 48.5076C299.461 48.624 299.621 48.7915 299.729 48.9921C299.837 49.1927 299.888 49.4189 299.877 49.6464C299.9 49.8947 299.861 50.1448 299.764 50.3745C299.667 50.6041 299.514 50.8062 299.32 50.9626C298.838 51.2612 298.276 51.4024 297.71 51.3667H296.222C295.705 51.3697 295.199 51.216 294.771 50.9259C294.571 50.8117 294.404 50.6471 294.287 50.4484C294.17 50.2497 294.107 50.0239 294.104 49.7933L294.135 49.7321ZM300.226 46.3649V45.9914C300.224 45.9422 300.231 45.893 300.249 45.8469C300.266 45.8009 300.293 45.7589 300.328 45.7238C300.362 45.6887 300.404 45.6611 300.45 45.6429C300.495 45.6247 300.544 45.6162 300.594 45.618H305.491C305.54 45.6163 305.589 45.6247 305.634 45.6426C305.679 45.6605 305.72 45.6876 305.755 45.722C305.79 45.757 305.819 45.799 305.838 45.8453C305.856 45.8917 305.866 45.9414 305.865 45.9914V46.3649C305.866 46.414 305.857 46.4629 305.838 46.5083C305.819 46.5536 305.791 46.5945 305.755 46.6281C305.721 46.6639 305.68 46.6917 305.635 46.7097C305.589 46.7277 305.54 46.7354 305.491 46.7322H303.783V50.9137C303.785 50.962 303.776 51.01 303.757 51.0545C303.738 51.0989 303.709 51.1386 303.673 51.1708C303.64 51.2048 303.6 51.2316 303.555 51.2495C303.511 51.2674 303.464 51.276 303.416 51.2749H302.681C302.585 51.2745 302.493 51.2372 302.424 51.1708C302.389 51.138 302.362 51.0981 302.344 51.0537C302.326 51.0093 302.318 50.9615 302.32 50.9137V46.7322H300.6C300.551 46.7339 300.503 46.7256 300.457 46.7077C300.412 46.6899 300.371 46.6629 300.336 46.6284C300.302 46.5939 300.275 46.5528 300.257 46.5074C300.239 46.4621 300.231 46.4136 300.232 46.3649H300.226ZM306.52 50.8953V45.9975C306.519 45.9484 306.528 45.8997 306.547 45.8543C306.566 45.809 306.595 45.7681 306.63 45.7343C306.699 45.6678 306.791 45.6306 306.887 45.6302H311.363C311.411 45.6295 311.459 45.6389 311.503 45.6579C311.547 45.6769 311.587 45.705 311.62 45.7404C311.655 45.7743 311.683 45.8152 311.702 45.8605C311.721 45.9058 311.731 45.9545 311.73 46.0036V46.3771C311.731 46.4262 311.721 46.475 311.702 46.5203C311.683 46.5656 311.655 46.6065 311.62 46.6404C311.586 46.6744 311.546 46.7011 311.502 46.719C311.458 46.737 311.41 46.7456 311.363 46.7444H307.983V47.8893H310.897C310.945 47.8893 310.993 47.8991 311.037 47.918C311.081 47.9369 311.121 47.9647 311.154 47.9995C311.222 48.0702 311.26 48.1647 311.258 48.2627V48.6362C311.26 48.7342 311.222 48.8288 311.154 48.8994C311.121 48.9343 311.081 48.962 311.037 48.9809C310.993 48.9999 310.945 49.0096 310.897 49.0096H307.983V50.1729H311.356C311.403 50.1725 311.449 50.1816 311.493 50.1995C311.536 50.2173 311.575 50.2437 311.607 50.2769C311.675 50.3476 311.713 50.4422 311.712 50.5402V50.9198C311.712 50.968 311.703 51.0158 311.684 51.0601C311.665 51.1044 311.637 51.1442 311.601 51.1769C311.568 51.2117 311.528 51.2395 311.484 51.2584C311.44 51.2773 311.392 51.2871 311.344 51.2871H306.887C306.838 51.2863 306.79 51.2759 306.745 51.2563C306.7 51.2368 306.659 51.2087 306.625 51.1734C306.591 51.1382 306.564 51.0965 306.546 51.0509C306.528 51.0053 306.519 50.9566 306.52 50.9075V50.8953ZM311.975 51.1585C311.971 51.1383 311.971 51.1176 311.975 51.0973C311.979 51.0269 312.007 50.96 312.054 50.9075L314.013 48.3668L312.177 45.9914C312.127 45.9401 312.097 45.873 312.091 45.8016C312.088 45.7793 312.088 45.7566 312.091 45.7343C312.107 45.6952 312.136 45.6625 312.172 45.6414C312.209 45.6204 312.251 45.6121 312.293 45.618H313.132C313.266 45.6209 313.397 45.6564 313.515 45.7214C313.632 45.7865 313.732 45.8792 313.805 45.9914L314.871 47.3689L315.936 45.9914C316.011 45.8794 316.112 45.7871 316.23 45.7221C316.348 45.6571 316.481 45.6214 316.615 45.618H317.448C317.49 45.6121 317.532 45.6204 317.569 45.6414C317.606 45.6625 317.634 45.6952 317.65 45.7343C317.654 45.7566 317.654 45.7793 317.65 45.8016C317.646 45.8721 317.618 45.939 317.57 45.9914L315.734 48.3668L317.693 50.9075C317.741 50.9594 317.769 51.0266 317.773 51.0973C317.779 51.1172 317.779 51.1387 317.773 51.1585C317.757 51.1976 317.728 51.2303 317.691 51.2514C317.655 51.2724 317.612 51.2807 317.57 51.2749H316.744C316.611 51.2716 316.48 51.2366 316.363 51.1727C316.246 51.1088 316.146 51.0179 316.071 50.9075L314.883 49.3708L313.701 50.9075C313.626 51.0175 313.526 51.1082 313.409 51.172C313.292 51.2359 313.161 51.2711 313.028 51.2749H312.171C312.129 51.2807 312.086 51.2724 312.05 51.2514C312.013 51.2303 311.985 51.1976 311.969 51.1585H311.975ZM318.403 50.9075V46.0098C318.402 45.9118 318.439 45.8172 318.507 45.7465C318.542 45.7108 318.584 45.6826 318.63 45.6636C318.677 45.6447 318.727 45.6354 318.777 45.6363H319.499C319.547 45.6348 319.595 45.6438 319.64 45.6629C319.684 45.6819 319.724 45.7105 319.756 45.7465C319.792 45.7804 319.82 45.8213 319.839 45.8666C319.858 45.9119 319.867 45.9607 319.866 46.0098V47.8097H322.536V46.0343C322.535 45.9851 322.544 45.9364 322.563 45.8911C322.582 45.8458 322.61 45.8049 322.646 45.771C322.679 45.7362 322.719 45.7085 322.763 45.6895C322.807 45.6706 322.855 45.6608 322.903 45.6608H323.625C323.675 45.6595 323.725 45.6686 323.772 45.6876C323.818 45.7065 323.86 45.735 323.895 45.771C323.963 45.8417 324 45.9363 323.999 46.0343V50.932C324 50.9802 323.99 51.028 323.971 51.0723C323.952 51.1166 323.924 51.1564 323.889 51.1891C323.855 51.2247 323.814 51.2529 323.769 51.2719C323.723 51.2908 323.674 51.3002 323.625 51.2994H322.903C322.807 51.299 322.715 51.2617 322.646 51.1953C322.61 51.1631 322.581 51.1234 322.562 51.0789C322.543 51.0345 322.534 50.9864 322.536 50.9381V48.9117H319.866V50.9381C319.868 50.9864 319.859 51.0345 319.84 51.0789C319.821 51.1234 319.792 51.1631 319.756 51.1953C319.723 51.2293 319.683 51.2561 319.638 51.274C319.594 51.2919 319.547 51.3005 319.499 51.2994H318.777C318.728 51.2995 318.679 51.2898 318.634 51.2709C318.589 51.2519 318.548 51.2241 318.513 51.1891C318.478 51.1564 318.45 51.1166 318.431 51.0723C318.412 51.028 318.402 50.9802 318.403 50.932V50.9075ZM325.107 50.9075V46.0098C325.106 45.9597 325.115 45.91 325.134 45.8637C325.153 45.8174 325.181 45.7754 325.217 45.7404C325.292 45.6712 325.391 45.6339 325.493 45.6363H326.197C326.296 45.6366 326.392 45.6737 326.466 45.7404C326.536 45.8105 326.575 45.9049 326.576 46.0036V49.9525L328.805 46.0098C328.869 45.9051 328.954 45.8153 329.056 45.7465C329.138 45.6812 329.239 45.6428 329.343 45.6363H330.501C330.549 45.6348 330.597 45.6438 330.641 45.6629C330.686 45.6819 330.725 45.7105 330.758 45.7465C330.793 45.7804 330.821 45.8213 330.84 45.8666C330.859 45.9119 330.869 45.9607 330.868 46.0098V50.9075C330.869 50.9563 330.859 51.0047 330.839 51.0491C330.818 51.0936 330.789 51.133 330.752 51.1647C330.717 51.2004 330.675 51.2286 330.628 51.2476C330.582 51.2665 330.532 51.2758 330.482 51.2749H329.778C329.729 51.2757 329.68 51.2663 329.635 51.2474C329.59 51.2284 329.549 51.2002 329.515 51.1647C329.479 51.132 329.451 51.0921 329.432 51.0478C329.413 51.0035 329.404 50.9557 329.405 50.9075V47.2342L327.354 50.9075C327.289 51.0119 327.201 51.0999 327.097 51.1647C327.006 51.2315 326.897 51.2699 326.784 51.2749H325.48C325.431 51.275 325.383 51.2653 325.338 51.2464C325.292 51.2274 325.251 51.1997 325.217 51.1647C325.182 51.132 325.154 51.0921 325.135 51.0478C325.116 51.0035 325.106 50.9557 325.107 50.9075ZM331.921 50.9075V46.0098C331.921 45.9598 331.93 45.9103 331.949 45.8641C331.968 45.8179 331.996 45.7758 332.031 45.7404C332.065 45.7048 332.106 45.6766 332.151 45.6577C332.196 45.6387 332.245 45.6294 332.294 45.6302H333.047C333.096 45.6295 333.143 45.6389 333.188 45.6579C333.232 45.6769 333.272 45.705 333.305 45.7404C333.34 45.7758 333.368 45.8179 333.386 45.8641C333.405 45.9103 333.415 45.9598 333.415 46.0098V47.8954H334.247C334.466 47.9021 334.681 47.8376 334.86 47.7117C335.065 47.5453 335.232 47.3365 335.349 47.0995L335.962 46.0098C336.007 45.898 336.085 45.8023 336.186 45.7347C336.286 45.6672 336.404 45.6308 336.525 45.6302H337.419C337.517 45.6302 337.578 45.6669 337.596 45.7404C337.599 45.7586 337.599 45.7772 337.596 45.7955C337.593 45.8707 337.572 45.9442 337.535 46.0098L336.69 47.5587C336.583 47.7665 336.445 47.9565 336.28 48.1219C336.11 48.2823 335.897 48.3907 335.668 48.4342C335.872 48.4875 336.055 48.6005 336.194 48.7586C336.376 48.9437 336.537 49.1491 336.672 49.3708L337.639 50.9443C337.68 51.0014 337.704 51.0696 337.706 51.1402C337.712 51.1623 337.712 51.1854 337.706 51.2075C337.706 51.2748 337.621 51.3116 337.517 51.3116H336.629C336.512 51.3065 336.4 51.2683 336.304 51.2014C336.195 51.1388 336.103 51.0505 336.035 50.9443L335.349 49.8423C335.219 49.6121 335.051 49.4053 334.853 49.23C334.681 49.0899 334.463 49.018 334.241 49.028H333.409V50.9443C333.41 50.9926 333.401 51.0406 333.382 51.0851C333.363 51.1295 333.334 51.1692 333.298 51.2014C333.264 51.2348 333.224 51.2612 333.18 51.2791C333.136 51.297 333.089 51.3059 333.041 51.3055H332.313C332.264 51.3063 332.215 51.2969 332.17 51.278C332.124 51.259 332.083 51.2308 332.049 51.1953C332.014 51.1602 331.986 51.1183 331.967 51.072C331.948 51.0256 331.938 50.9759 331.939 50.9259L331.921 50.9075ZM338.245 50.9075V46.0098C338.243 45.9602 338.252 45.9107 338.27 45.8644C338.287 45.8181 338.315 45.7759 338.349 45.7404C338.424 45.6712 338.523 45.6339 338.625 45.6363H339.329C339.429 45.6355 339.525 45.6727 339.598 45.7404C339.634 45.7743 339.662 45.8152 339.681 45.8605C339.7 45.9058 339.709 45.9545 339.708 46.0036V49.9525L341.937 46.0098C342.001 45.9051 342.086 45.8153 342.188 45.7465C342.27 45.6812 342.371 45.6428 342.476 45.6363H343.633C343.682 45.6355 343.731 45.6448 343.776 45.6638C343.821 45.6828 343.862 45.7109 343.896 45.7465C343.964 45.8172 344.001 45.9118 344 46.0098V50.9075C344.001 50.9557 343.991 51.0035 343.972 51.0478C343.953 51.0921 343.925 51.132 343.89 51.1647C343.854 51.1999 343.812 51.2277 343.766 51.2466C343.72 51.2655 343.67 51.2751 343.62 51.2749H342.904C342.855 51.2757 342.806 51.2663 342.761 51.2474C342.716 51.2284 342.675 51.2002 342.641 51.1647C342.605 51.132 342.577 51.0921 342.558 51.0478C342.539 51.0035 342.53 50.9557 342.531 50.9075V47.2342L340.48 50.9075C340.416 51.0104 340.33 51.0981 340.229 51.1647C340.135 51.2304 340.025 51.2686 339.91 51.2749H338.606C338.558 51.2749 338.511 51.2651 338.466 51.2461C338.422 51.2272 338.382 51.1995 338.349 51.1647C338.314 51.132 338.286 51.0921 338.267 51.0478C338.248 51.0035 338.238 50.9557 338.239 50.9075H338.245Z" fill="white"/>
</svg>
