<svg width="324" height="69" viewBox="0 0 324 69" fill="none" xmlns="http://www.w3.org/2000/svg">
<path fill-rule="evenodd" clip-rule="evenodd" d="M64.2014 52.9984C63.8728 53.8057 63.5095 54.5899 63.1116 55.3452C60.6321 54.9935 59.1271 53.8575 57.1724 52.7735C57.2319 52.6251 57.3201 52.4899 57.4319 52.3756C57.9809 51.8938 58.5025 51.3817 58.9945 50.8418C59.3232 50.5419 59.4558 50.5189 59.9633 50.7899C61.4567 51.6029 62.6676 52.4563 64.2014 52.9984ZM55.5521 63.7005V63.8274C54.2038 64.7555 52.7644 65.5438 51.2562 66.18C48.448 64.0407 47.3582 61.9188 45.6399 59.5546C45.242 59.0068 45.0633 58.9261 44.5847 58.9434L43.7428 59.0702C43.8177 58.7704 43.8985 58.4936 43.985 58.1707C44.1637 57.548 44.3021 57.4499 44.8268 57.3634C45.7466 57.3139 46.6628 57.2138 47.5716 57.0636C48.0675 57.0636 48.2232 57.127 48.621 57.6748C50.3509 60.0447 51.4292 62.161 54.2374 64.3002C54.6871 64.1157 55.1254 63.9139 55.5521 63.7236V63.7005ZM39.0664 66.157C38.7149 66.8707 38.3102 67.5569 37.8554 68.2098C36.8521 68.1406 35.843 68.0252 34.8109 67.858C33.7787 67.6908 32.7177 67.5178 31.7144 67.218C29.9845 63.4468 30.0768 60.927 29.6328 57.8017C29.633 57.5545 29.5596 57.3128 29.422 57.1074C29.2844 56.902 29.0888 56.7423 28.8601 56.6484C27.844 56.2086 26.8543 55.7099 25.8962 55.1549C25.7808 55.0996 25.6613 55.0533 25.5387 55.0166C26.2018 54.4976 26.8592 53.9671 27.58 53.4366C27.7399 53.257 27.9596 53.1415 28.1983 53.1118C28.437 53.0821 28.6783 53.1402 28.8774 53.2751C29.8375 53.8301 30.829 54.3288 31.847 54.7686C32.0792 54.8652 32.2768 55.0298 32.4137 55.2408C32.5506 55.4518 32.6204 55.6993 32.6139 55.9507C33.0579 59.076 32.9657 61.5958 34.6955 65.367C35.7277 65.638 36.7714 65.8341 37.8035 66.007C38.2302 66.0762 38.6512 66.1339 39.0721 66.1858L39.0664 66.157ZM22.1828 57.1385C20.564 58.4271 18.709 59.3869 16.7221 59.964C14.8392 58.5511 13.0729 56.9892 11.4402 55.2933C11.9592 51.257 13.4642 49.3541 14.8077 46.7016C15.1249 46.0846 15.0787 45.9001 14.7155 45.3062C14.0697 44.4451 13.4642 43.559 12.8991 42.6479C12.7733 42.4165 12.5786 42.23 12.3419 42.1143C12.1053 41.9986 11.8385 41.9594 11.5786 42.0021C8.47062 42.0021 6.01997 42.4519 2.05279 41.2352C1.23006 39.2911 0.572307 37.2812 0.0864936 35.2268C1.2719 34.0413 2.65052 33.0663 4.16323 32.3437C3.80573 32.632 3.43669 32.9607 3.06765 33.3239C3.5519 35.3842 4.20374 37.4014 5.01664 39.3554C8.98382 40.5721 11.4345 40.1281 14.5483 40.1223C14.8074 40.0791 15.0736 40.1181 15.3094 40.234C15.5452 40.3498 15.7388 40.5366 15.863 40.7681C16.4396 41.6792 17.0162 42.5672 17.6793 43.4264C18.0426 44.003 18.0887 44.2048 17.7774 44.8218C16.4281 47.4743 14.9231 49.3945 14.4099 53.4135C16.0399 55.1122 17.8064 56.6743 19.6917 58.0842C20.5465 57.8374 21.3796 57.5211 22.1828 57.1385ZM8.2861 29.9507V29.8815C8.17324 28.946 8.12315 28.004 8.13618 27.0618C8.07852 26.537 7.98049 26.3929 7.3808 26.07C4.78599 24.6515 2.54292 23.85 0 21.3359C0.184775 20.5037 0.419698 19.6833 0.703482 18.8795C0.962225 18.0928 1.2684 17.3226 1.62032 16.573C2.38261 16.4399 3.15337 16.3609 3.92682 16.3365C3.84609 16.5441 3.77113 16.7575 3.69617 16.9766C3.41238 17.7805 3.17746 18.6008 2.99268 19.433C5.5356 21.9471 7.77867 22.7486 10.3793 24.1671C10.9559 24.49 11.0712 24.6342 11.1346 25.1589C11.1225 26.1009 11.1707 27.0427 11.2788 27.9786C11.2788 28.5091 11.1865 28.6475 10.5926 28.9243C9.80839 29.2875 9.04725 29.5989 8.2861 29.9276V29.9507ZM12.1091 14.9007L12.3109 14.6413C12.5185 14.2895 12.5128 14.1569 12.1783 13.7014C10.7598 11.7639 9.33556 10.3685 8.58595 7.79672C9.59868 7.0351 10.6686 6.35267 11.7862 5.75548L11.5729 5.91694C12.3167 8.48868 13.741 9.88411 15.1595 11.8216C15.4939 12.2771 15.5055 12.3982 15.2921 12.7615C14.8105 13.3599 14.3693 13.9898 13.9716 14.647C13.6833 15.0045 13.5392 15.0622 12.9164 14.993L12.1091 14.9007ZM22.794 7.02405C22.5287 5.50176 22.1597 4.19859 22.7133 2.52638C23.6013 2.44565 24.5008 2.40527 25.4061 2.40527C25.4784 3.50471 25.6306 4.59743 25.8616 5.67475C25.9251 6.11875 25.8616 6.19372 25.4522 6.34941C24.7843 6.52183 24.126 6.7297 23.4802 6.97215C23.2623 7.05148 23.0234 7.05148 22.8055 6.97215L22.794 7.02405Z" fill="#1D1D1B"/>
<path fill-rule="evenodd" clip-rule="evenodd" d="M64.4667 40.3702C64.4264 40.9987 64.386 41.6446 64.3399 42.0367C64.5763 42.8728 64.3399 42.6133 64.6801 43.0688C66.1793 45.0178 67.4075 46.1365 68.7164 49.0484C68.2809 50.4189 67.7211 51.7468 67.0442 53.0156C64.484 52.6466 62.9675 51.453 60.9147 50.3343C60.4073 50.0633 60.2747 50.0864 59.946 50.3862C59.4531 50.9252 58.9335 51.439 58.3891 51.9258C58.0662 52.2891 58.0258 52.4332 58.1815 53.079C58.8562 55.743 59.7038 57.8304 59.6404 61.3075C58.2924 62.2377 56.853 63.028 55.3445 63.6659C52.5421 61.5208 51.4465 59.4046 49.7339 57.0289C49.3361 56.4869 49.1573 56.4062 48.6787 56.4523C47.7704 56.6053 46.8539 56.7054 45.934 56.7521C45.4093 56.8386 45.2766 56.9367 45.0979 57.5594C44.3021 60.3215 44.0427 62.7087 41.9495 65.7187C40.9462 65.6552 39.9313 65.5341 38.9049 65.3669C37.8785 65.1997 36.8291 64.9979 35.8027 64.7269C34.0728 60.9557 34.1593 58.4359 33.7153 55.3106C33.7234 55.0588 33.6542 54.8106 33.5172 54.5993C33.3801 54.388 33.1816 54.2237 32.9484 54.1285C31.9301 53.676 30.9403 53.1619 29.9845 52.5889C29.7842 52.4547 29.5422 52.3972 29.3029 52.4268C29.0636 52.4565 28.8429 52.5713 28.6814 52.7504C26.3057 54.4802 24.645 56.3024 20.822 57.4268C18.9477 56.0144 17.1909 54.4524 15.5689 52.7561C16.0821 48.7197 17.5871 46.8227 18.9364 44.1644C19.085 43.9571 19.157 43.7047 19.1402 43.4502C19.1233 43.1957 19.0187 42.9549 18.8441 42.769C18.1983 41.9098 17.5871 41.0391 17.0278 40.1107C16.9033 39.8781 16.7088 39.6906 16.4718 39.5747C16.2348 39.4588 15.9673 39.4204 15.7073 39.4649C12.5935 39.4649 10.1429 39.9147 6.18145 38.698C5.36323 36.7454 4.70938 34.7279 4.22669 32.6665C6.86187 30.089 9.16837 29.4778 11.7228 28.2784C12.2994 28.0016 12.409 27.8632 12.4148 27.3327C12.3019 26.3972 12.2518 25.4552 12.2648 24.513C12.2072 23.9883 12.1092 23.8442 11.5095 23.5212C8.90888 22.1027 6.66581 21.307 4.12866 18.7871C4.31226 17.9527 4.5472 17.1304 4.83215 16.325C5.09274 15.539 5.39887 14.7688 5.74898 14.0185C9.15683 13.4418 11.3307 14.0185 14.0754 14.3068C14.6924 14.376 14.8424 14.3068 15.1249 13.9608C15.5226 13.3022 15.9657 12.6721 16.4511 12.0752C16.6587 11.7235 16.6472 11.5909 16.3128 11.1411C14.9 9.19787 13.47 7.80244 12.7261 5.23069C13.8769 4.35926 15.1 3.58763 16.3819 2.92419C19.4323 3.85256 20.9546 5.03463 23.0766 6.28591C23.2282 6.41414 23.4117 6.49899 23.6076 6.53148C23.8035 6.56396 24.0045 6.54286 24.1894 6.47043C24.8369 6.22064 25.4971 6.00507 26.1673 5.82461C26.5651 5.66893 26.6401 5.58819 26.5767 5.14995C26.323 3.38548 25.7982 1.98428 26.4152 0.116011C27.8091 -0.0073111 29.2099 -0.0323453 30.6073 0.0410643C32.8158 1.77094 33.5711 3.10293 34.8686 4.73478C35.0229 4.98763 35.2686 5.1714 35.5547 5.24799V5.29411C33.9296 5.13003 32.2911 5.15132 30.6707 5.35755C23.9703 6.22825 19.8129 9.84946 17.6909 14.7623C15.7534 19.2657 15.7361 24.9051 17.8639 30.7521C19.982 36.3355 23.4959 41.2827 28.0701 45.1216C32.5851 48.9504 38.1438 51.747 43.8697 52.6177C50.0107 53.5461 55.4022 52.1391 59.2079 48.8466C61.743 46.614 63.4903 43.6231 64.1899 40.3183L64.4667 40.3702Z" fill="#BBC406"/>
<path fill-rule="evenodd" clip-rule="evenodd" d="M33.473 8.15997C39.049 7.49685 45.536 9.94175 50.7718 14.3991C51.3484 14.8661 51.8443 15.3447 52.3575 15.8406H45.8301C41.4593 12.8825 36.5003 11.3602 32.1237 11.8792C26.9687 12.4904 23.8318 15.4773 22.4825 19.5483C22.5827 18.512 22.7934 17.4894 23.1111 16.498C24.5296 12.0753 27.8913 8.82309 33.4903 8.15997H33.473ZM59.623 40.3703C58.9431 41.8517 57.9569 43.1722 56.7294 44.2446C55.5018 45.3171 54.0609 46.1171 52.5017 46.592C53.1823 46.1663 53.8128 45.6653 54.3814 45.0986C55.6882 43.7763 56.6487 42.1523 57.1781 40.3703H59.623Z" fill="#1D1D1B"/>
<path fill-rule="evenodd" clip-rule="evenodd" d="M31.5068 5.88226C37.2327 5.13265 43.8754 7.00092 49.6301 10.8124C44.106 7.22581 37.7689 5.49017 32.3314 6.19941C26.0231 7.01822 22.1309 10.4318 20.1473 15.0448C18.3251 19.26 18.3078 24.5419 20.3029 30.0371C22.2953 35.2524 25.5884 39.8714 29.8692 43.4552C34.0958 47.036 39.3027 49.6597 44.6654 50.4727C50.4316 51.3434 55.4886 50.0287 59.0291 46.938C61.0348 45.1851 62.5174 42.9123 63.3134 40.3702H63.6536C62.8882 43.2607 61.2829 45.8593 59.0406 47.8375C55.3906 51.0147 50.1664 52.3698 44.2444 51.476C38.7204 50.6341 33.3577 47.9413 29.0042 44.2452C24.591 40.5394 21.2004 35.7651 19.1555 30.3773C17.1027 24.7437 17.12 19.3003 18.994 14.9584C21.0353 10.2243 25.0428 6.72413 31.5125 5.88226H31.5068Z" fill="#1D1D1B"/>
<path d="M31.7605 19.1678C31.7581 18.9882 31.7927 18.81 31.8622 18.6443C31.9316 18.4787 32.0344 18.3291 32.1642 18.2049C32.2895 18.077 32.4395 17.9758 32.605 17.9074C32.7705 17.839 32.9481 17.8049 33.1271 17.807H44.798C46.0127 17.7921 47.2218 17.9732 48.3789 18.3432C49.4565 18.7061 50.4098 19.3657 51.1294 20.2461C51.9079 21.1902 52.3176 22.3846 52.2826 23.6078C52.2753 24.3468 52.0958 25.074 51.7585 25.7316C51.4212 26.3892 50.9353 26.9591 50.3394 27.3963C51.2202 27.8346 51.9521 28.523 52.4434 29.3754C52.9347 30.2278 53.1636 31.2062 53.1014 32.188C53.1408 33.0743 52.9596 33.9565 52.5741 34.7555C52.1887 35.5545 51.6111 36.2455 50.893 36.7664C49.3171 37.8817 47.4195 38.4507 45.49 38.3867H33.1271C32.9486 38.3886 32.7715 38.3549 32.6062 38.2876C32.4409 38.2203 32.2906 38.1207 32.1642 37.9946C32.0342 37.873 31.9311 37.7255 31.8616 37.5617C31.7921 37.3978 31.7576 37.2212 31.7605 37.0432V19.1678ZM37.1751 34.5118H45.3862C45.7053 34.5379 46.0262 34.4924 46.3254 34.3787C46.6247 34.265 46.8948 34.0859 47.1161 33.8545C47.4969 33.3276 47.7019 32.694 47.7019 32.0439C47.7019 31.3937 47.4969 30.7601 47.1161 30.2332C46.8984 30.0068 46.6339 29.8307 46.3411 29.7172C46.0483 29.6036 45.7342 29.5554 45.4208 29.5759H37.1751V34.5118ZM37.1751 25.701H44.8557C45.1201 25.7133 45.3843 25.6727 45.6328 25.5816C45.8814 25.4905 46.1092 25.3507 46.303 25.1705C46.4972 24.9785 46.6488 24.7479 46.7482 24.4937C46.8475 24.2394 46.8923 23.967 46.8797 23.6943C46.9021 23.4259 46.866 23.1557 46.7739 22.9026C46.6819 22.6494 46.536 22.4192 46.3463 22.2279C46.1566 22.0366 45.9277 21.8887 45.6753 21.7944C45.423 21.7002 45.1532 21.6618 44.8845 21.6819H37.1751V25.7183V25.701ZM57.7779 36.2647C55.8135 34.5502 54.8313 31.8305 54.8313 28.1055C54.8313 24.3805 55.8135 21.6608 57.7779 19.9463C59.7307 18.2318 62.6023 17.3745 66.3927 17.3745C70.183 17.3745 73.0546 18.2318 75.0074 19.9463C76.9603 21.6608 77.9386 24.3805 77.9425 28.1055C77.9463 31.8305 76.968 34.5502 75.0074 36.2647C73.0469 37.9754 70.1753 38.8327 66.3927 38.8365C62.61 38.8403 59.7384 37.9831 57.7779 36.2647ZM61.6989 22.9735C60.7302 24.1268 60.2458 25.8567 60.2458 28.1113C60.2458 30.3659 60.7302 32.0957 61.6989 33.2432C62.6677 34.3907 64.2361 34.9731 66.3927 34.9731C68.5492 34.9731 70.1119 34.3965 71.0806 33.2432C72.0494 32.09 72.5279 30.3889 72.5279 28.1113C72.5279 25.8336 72.0436 24.1268 71.0806 22.9735C70.1177 21.8203 68.5492 21.2437 66.3927 21.2437C64.2361 21.2437 62.6677 21.8203 61.6989 22.9735ZM79.1707 37.1816L82.8149 23.4002C83.7952 19.6829 86.9686 17.8185 92.335 17.807H99.514C99.6784 17.8069 99.8407 17.8443 99.9885 17.9162C100.136 17.9881 100.266 18.0928 100.367 18.2222C100.597 18.4836 100.722 18.8201 100.719 19.1678V37.0432C100.722 37.2191 100.69 37.3939 100.625 37.5573C100.56 37.7207 100.462 37.8694 100.339 37.9946C100.218 38.1222 100.072 38.2231 99.9103 38.2906C99.7484 38.3582 99.5741 38.3909 99.3987 38.3867H96.6597C96.4825 38.3875 96.3069 38.3533 96.1429 38.2862C95.9789 38.2191 95.8297 38.1204 95.7039 37.9956C95.5781 37.8708 95.4781 37.7225 95.4096 37.5591C95.341 37.3957 95.3054 37.2204 95.3046 37.0432V21.8664H91.8161C90.9524 21.8482 90.1084 22.1248 89.4231 22.6506C88.7407 23.1779 88.2554 23.9191 88.0449 24.7553L84.7639 37.049C84.6643 37.4355 84.4341 37.7757 84.1123 38.0119C83.8073 38.2501 83.4326 38.3818 83.0456 38.3867H80.1106C79.9606 38.3927 79.8115 38.3622 79.6759 38.298C79.5404 38.2337 79.4224 38.1375 79.3321 38.0177C79.1996 37.8549 79.1282 37.6509 79.1303 37.4411C79.1303 37.3546 79.1591 37.2565 79.1707 37.1643V37.1816ZM104.825 37.0663V19.1909C104.819 19.0106 104.85 18.8311 104.917 18.6635C104.983 18.4958 105.083 18.3436 105.211 18.2164C105.34 18.089 105.493 17.989 105.662 17.9226C105.83 17.8562 106.01 17.8247 106.191 17.83H120.03C120.21 17.8239 120.388 17.8551 120.555 17.9216C120.722 17.9881 120.873 18.0885 120.999 18.2164C121.125 18.3447 121.224 18.4972 121.289 18.6647C121.354 18.8322 121.385 19.0112 121.38 19.1909V20.5402C121.386 20.7191 121.356 20.8975 121.29 21.0641C121.225 21.2307 121.125 21.382 120.999 21.5086C120.872 21.6352 120.721 21.7344 120.554 21.7999C120.388 21.8655 120.209 21.8959 120.03 21.8895H110.228V37.0893C110.232 37.2653 110.199 37.4401 110.13 37.6021C110.061 37.7642 109.959 37.9098 109.83 38.0292C109.705 38.1534 109.556 38.2511 109.393 38.3165C109.229 38.3819 109.054 38.4136 108.878 38.4098H106.18C105.821 38.4154 105.475 38.2785 105.217 38.0292C105.086 37.911 104.982 37.7658 104.912 37.6035C104.842 37.4413 104.809 37.2659 104.813 37.0893L104.825 37.0663ZM122.049 37.0663L125.652 23.4002C126.633 19.6829 129.81 17.8185 135.184 17.807H142.922C143.089 17.8054 143.255 17.8402 143.407 17.9089C143.56 17.9776 143.695 18.0786 143.805 18.2049C144.034 18.4613 144.16 18.7946 144.156 19.139V37.0663C144.161 37.2428 144.127 37.4182 144.058 37.5804C143.988 37.7427 143.884 37.8879 143.753 38.0062C143.626 38.1294 143.476 38.2265 143.312 38.2918C143.148 38.3571 142.972 38.3894 142.795 38.3867H140.12C139.94 38.3934 139.761 38.363 139.593 38.2976C139.426 38.2321 139.273 38.1329 139.145 38.0062C139.019 37.8806 138.92 37.7302 138.854 37.5645C138.789 37.3987 138.758 37.2213 138.765 37.0432V33.422H128.587L127.619 37.049C127.524 37.4376 127.293 37.7792 126.967 38.0119C126.664 38.2528 126.288 38.3848 125.9 38.3867H123.058C122.895 38.3977 122.733 38.3681 122.585 38.3007C122.437 38.2332 122.308 38.13 122.21 38.0004C122.079 37.8367 122.008 37.6333 122.008 37.4238C122.019 37.3075 122.036 37.192 122.06 37.0778L122.049 37.0663ZM129.666 29.3568H138.742V21.8607H134.665C133.803 21.8428 132.96 22.1184 132.275 22.6422C131.59 23.166 131.103 23.907 130.894 24.7438L129.666 29.3568ZM146.567 37.0663L150.171 23.4002C151.151 19.6829 154.328 17.8185 159.702 17.807H167.44C167.608 17.8054 167.773 17.8402 167.925 17.9089C168.078 17.9776 168.213 18.0786 168.323 18.2049C168.553 18.4613 168.678 18.7946 168.674 19.139V37.0663C168.679 37.2428 168.645 37.4182 168.576 37.5804C168.506 37.7427 168.402 37.8879 168.271 38.0062C168.144 38.1294 167.994 38.2265 167.83 38.2918C167.666 38.3571 167.49 38.3894 167.314 38.3867H164.615C164.435 38.3934 164.256 38.363 164.088 38.2976C163.921 38.2321 163.768 38.1329 163.64 38.0062C163.514 37.8806 163.415 37.7302 163.349 37.5645C163.284 37.3987 163.253 37.2213 163.26 37.0432V33.422H153.094L152.125 37.049C152.03 37.4376 151.799 37.7792 151.474 38.0119C151.17 38.2528 150.794 38.3848 150.407 38.3867H147.564C147.402 38.3977 147.24 38.3681 147.092 38.3007C146.944 38.2332 146.815 38.13 146.717 38.0004C146.586 37.8367 146.515 37.6333 146.515 37.4238C146.525 37.3075 146.543 37.192 146.567 37.0778V37.0663ZM154.184 29.3568H163.26V21.8607H159.183C158.321 21.8428 157.478 22.1184 156.793 22.6422C156.108 23.166 155.621 23.907 155.412 24.7438L154.184 29.3568ZM172.78 37.0663V19.1909C172.774 19.0107 172.806 18.8312 172.872 18.6636C172.939 18.4959 173.039 18.3437 173.166 18.2162C173.294 18.0887 173.446 17.9886 173.614 17.9222C173.781 17.8558 173.961 17.8244 174.141 17.83H188.009C188.187 17.8233 188.365 17.8542 188.531 17.9208C188.697 17.9873 188.847 18.088 188.972 18.2164C189.099 18.3436 189.2 18.4958 189.266 18.6635C189.333 18.8311 189.364 19.0106 189.358 19.1909V20.5402C189.364 20.7189 189.332 20.8969 189.267 21.0631C189.201 21.2293 189.102 21.3803 188.975 21.5067C188.849 21.6332 188.698 21.7324 188.532 21.7982C188.365 21.864 188.187 21.8951 188.009 21.8895H178.177V37.0893C178.181 37.2653 178.148 37.4401 178.079 37.6021C178.011 37.7642 177.909 37.9098 177.779 38.0292C177.654 38.1538 177.504 38.2518 177.34 38.3172C177.175 38.3826 176.999 38.4141 176.822 38.4098H174.141C173.964 38.4124 173.789 38.3802 173.624 38.3149C173.46 38.2496 173.31 38.1525 173.184 38.0292C173.052 37.911 172.948 37.7658 172.879 37.6035C172.809 37.4413 172.775 37.2659 172.78 37.0893V37.0663ZM191.699 37.0663V19.1909C191.696 19.0127 191.729 18.8358 191.795 18.6704C191.861 18.505 191.96 18.3546 192.085 18.2279C192.207 18.0987 192.355 17.9965 192.519 17.9279C192.683 17.8594 192.859 17.826 193.037 17.83H203.993C209.759 17.83 212.654 20.496 212.677 25.8278C212.7 31.1597 209.805 33.8275 203.993 33.8314H197.114V37.0605C197.114 37.2382 197.078 37.4141 197.01 37.5782C196.942 37.7423 196.842 37.8913 196.716 38.0166C196.59 38.142 196.441 38.2413 196.277 38.3087C196.112 38.3762 195.936 38.4105 195.758 38.4098H193.06C192.881 38.4117 192.704 38.378 192.539 38.3107C192.374 38.2433 192.223 38.1437 192.097 38.0177C191.969 37.8949 191.867 37.7471 191.799 37.5834C191.73 37.4197 191.696 37.2437 191.699 37.0663ZM197.114 29.772H202.349C203.622 29.8519 204.892 29.57 206.011 28.9589C206.841 28.4169 207.256 27.3732 207.256 25.8278C207.256 24.2825 206.841 23.2388 206.011 22.6968C204.89 22.0906 203.621 21.811 202.349 21.8895H197.114V29.7489V29.772ZM217.065 36.2878C215.097 34.5733 214.114 31.8536 214.118 28.1286C214.122 24.4036 215.104 21.6838 217.065 19.9693C219.025 18.2548 221.897 17.3976 225.68 17.3976C229.462 17.3976 232.334 18.2548 234.294 19.9693C236.247 21.6838 237.226 24.4036 237.229 28.1286C237.233 31.8536 236.255 34.5733 234.294 36.2878C232.334 37.9985 229.462 38.8557 225.68 38.8596C221.897 38.8634 219.025 38.0062 217.065 36.2878ZM220.986 22.9966C220.017 24.1499 219.533 25.8797 219.533 28.1343C219.533 30.3889 220.017 32.1188 220.986 33.2663C221.955 34.4138 223.523 34.9962 225.68 34.9962C227.836 34.9962 229.399 34.4195 230.368 33.2663C231.336 32.113 231.815 30.412 231.815 28.1343C231.815 25.8567 231.331 24.1499 230.368 22.9966C229.405 21.8434 227.836 21.2667 225.68 21.2667C223.523 21.2667 221.96 21.8434 220.986 22.9966ZM240.153 37.0374V19.1966C240.149 19.0136 240.182 18.8316 240.249 18.6613C240.316 18.491 240.417 18.3358 240.545 18.2049C240.668 18.076 240.817 17.9742 240.982 17.9057C241.147 17.8372 241.324 17.8036 241.502 17.807H247.372C247.765 17.8141 248.143 17.9544 248.445 18.2049C248.764 18.4495 249.001 18.7853 249.125 19.1678L253.398 31.4269L257.671 19.1678C257.795 18.7839 258.035 18.4476 258.357 18.2049C258.658 17.952 259.037 17.8113 259.429 17.807H265.328C265.505 17.8038 265.68 17.8375 265.843 17.9061C266.006 17.9746 266.153 18.0763 266.274 18.2049C266.401 18.3361 266.501 18.4915 266.567 18.6618C266.634 18.8321 266.665 19.0139 266.66 19.1966V37.0144C266.665 37.1973 266.631 37.3792 266.56 37.5481C266.49 37.717 266.384 37.8691 266.251 37.9946C266.123 38.1218 265.971 38.2221 265.803 38.2894C265.636 38.3568 265.457 38.3899 265.276 38.3867H262.624C262.444 38.3892 262.265 38.3558 262.097 38.2885C261.93 38.2212 261.778 38.1213 261.649 37.9946C261.518 37.868 261.414 37.7155 261.345 37.5468C261.275 37.3781 261.242 37.1968 261.246 37.0144V22.9908L256.177 37.0951C256.04 37.4611 255.797 37.7781 255.48 38.0062C255.177 38.2491 254.801 38.3832 254.413 38.3867H252.36C251.977 38.3825 251.607 38.2483 251.311 38.0062C250.993 37.774 250.746 37.4587 250.596 37.0951L245.544 22.9908V37.0144C245.549 37.1964 245.517 37.3775 245.448 37.5463C245.38 37.715 245.277 37.8677 245.146 37.9946C245.018 38.121 244.866 38.2208 244.698 38.288C244.531 38.3553 244.352 38.3889 244.172 38.3867H241.548C241.367 38.3893 241.187 38.356 241.019 38.2887C240.851 38.2214 240.697 38.1215 240.568 37.9946C240.433 37.8701 240.326 37.7183 240.255 37.5492C240.183 37.3802 240.148 37.1979 240.153 37.0144V37.0374ZM268.955 37.0893L272.559 23.4233C273.536 19.706 276.713 17.8416 282.091 17.83H289.829C289.996 17.8285 290.162 17.8633 290.314 17.932C290.466 18.0007 290.602 18.1016 290.711 18.2279C290.941 18.4844 291.067 18.8177 291.063 19.1621V37.0893C291.068 37.2659 291.034 37.4413 290.964 37.6035C290.895 37.7658 290.791 37.911 290.659 38.0292C290.403 38.2777 290.059 38.4145 289.702 38.4098H286.998C286.819 38.4156 286.641 38.3849 286.474 38.3195C286.308 38.254 286.156 38.1552 286.029 38.0292C285.903 37.9036 285.804 37.7533 285.738 37.5875C285.673 37.4218 285.642 37.2443 285.649 37.0663V33.4451H275.483L274.514 37.072C274.419 37.4606 274.188 37.8023 273.862 38.035C273.559 38.2759 273.183 38.4079 272.796 38.4098H269.953C269.791 38.4208 269.628 38.3912 269.48 38.3237C269.332 38.2563 269.203 38.1531 269.105 38.0235C268.974 37.8597 268.903 37.6564 268.903 37.4468C268.914 37.3306 268.931 37.2151 268.955 37.1009V37.0893ZM276.567 29.3798H285.649V21.8837H281.572C280.709 21.8638 279.865 22.1385 279.18 22.6627C278.494 23.1868 278.008 23.929 277.801 24.7668L276.567 29.3798ZM295.169 37.0663V19.1909C295.17 18.8304 295.314 18.4852 295.569 18.2303C295.824 17.9754 296.169 17.8316 296.53 17.83H299.228C299.406 17.8255 299.582 17.8575 299.747 17.9239C299.911 17.9904 300.061 18.0899 300.185 18.2164C300.314 18.3376 300.416 18.4843 300.484 18.6472C300.553 18.81 300.586 18.9854 300.583 19.1621V34.3504H306.868V19.139C306.865 18.9618 306.899 18.7858 306.969 18.6228C307.038 18.4597 307.142 18.3134 307.272 18.1933C307.397 18.0679 307.547 17.9691 307.711 17.9027C307.876 17.8364 308.052 17.8038 308.229 17.807H310.934C311.111 17.8037 311.287 17.8374 311.451 17.9059C311.615 17.9744 311.763 18.0762 311.885 18.2049C312.013 18.3302 312.114 18.4801 312.183 18.6456C312.251 18.8111 312.285 18.9888 312.283 19.1678V34.3273H318.58V19.139C318.576 18.9623 318.61 18.787 318.679 18.6241C318.747 18.4613 318.849 18.3145 318.978 18.1933C319.102 18.0681 319.25 17.9693 319.414 17.903C319.577 17.8366 319.753 17.8039 319.929 17.807H322.639C322.817 17.8043 322.994 17.8382 323.159 17.9067C323.324 17.9751 323.472 18.0766 323.596 18.2049C323.724 18.3302 323.825 18.4801 323.894 18.6456C323.962 18.8111 323.996 18.9888 323.994 19.1678V37.0432C323.993 37.2204 323.958 37.3957 323.889 37.5591C323.821 37.7225 323.721 37.8708 323.595 37.9956C323.469 38.1204 323.32 38.2191 323.156 38.2862C322.992 38.3533 322.816 38.3875 322.639 38.3867H296.53C296.352 38.3888 296.176 38.3552 296.011 38.2878C295.847 38.2205 295.697 38.1208 295.572 37.9946C295.442 37.873 295.339 37.7255 295.27 37.5617C295.2 37.3978 295.166 37.2212 295.169 37.0432V37.0663Z" fill="#BBC406"/>
<path d="M77.6137 47.9645V43.3515C77.6118 43.3056 77.6195 43.2598 77.6364 43.2171C77.6533 43.1744 77.679 43.1357 77.7117 43.1035C77.7414 43.0703 77.7779 43.0439 77.8186 43.026C77.8594 43.0081 77.9036 42.9991 77.9481 42.9997H82.6995C82.7448 42.9997 82.7896 43.0089 82.8313 43.0268C82.8729 43.0446 82.9105 43.0707 82.9417 43.1035C83.0056 43.1701 83.0408 43.2591 83.0397 43.3515V47.9645C83.0404 48.0099 83.0315 48.0549 83.0136 48.0966C82.9958 48.1383 82.9693 48.1758 82.9359 48.2067C82.904 48.2402 82.8655 48.2667 82.8228 48.2846C82.7802 48.3024 82.7342 48.3112 82.688 48.3104H82.0076C81.9623 48.3104 81.9175 48.3012 81.8758 48.2834C81.8342 48.2656 81.7966 48.2395 81.7654 48.2067C81.732 48.1758 81.7055 48.1383 81.6877 48.0966C81.6698 48.0549 81.6609 48.0099 81.6616 47.9645V44.0319H78.9976V47.9645C78.9983 48.0099 78.9894 48.0549 78.9715 48.0966C78.9536 48.1383 78.9271 48.1758 78.8938 48.2067C78.8635 48.2406 78.8261 48.2675 78.7842 48.2854C78.7424 48.3034 78.6971 48.3119 78.6516 48.3104H77.9597C77.9134 48.3112 77.8675 48.3024 77.8248 48.2846C77.7821 48.2667 77.7436 48.2402 77.7117 48.2067C77.6791 48.1756 77.6535 48.1379 77.6366 48.0961C77.6197 48.0544 77.6119 48.0095 77.6137 47.9645ZM84.0834 47.9645V43.3515C84.0823 43.2591 84.1175 43.1701 84.1814 43.1035C84.2127 43.0707 84.2503 43.0446 84.2919 43.0268C84.3335 43.0089 84.3783 42.9997 84.4236 42.9997H87.2145C88.6868 42.9997 89.4249 43.6898 89.4287 45.0698C89.4326 46.4499 88.6945 47.1418 87.2145 47.1457H85.4846V47.976C85.4869 48.0219 85.4793 48.0678 85.4624 48.1106C85.4455 48.1533 85.4196 48.192 85.3866 48.224C85.3554 48.2567 85.3178 48.2829 85.2761 48.3007C85.2345 48.3185 85.1897 48.3277 85.1444 48.3277H84.4582C84.412 48.3285 84.366 48.3197 84.3234 48.3019C84.2807 48.284 84.2422 48.2575 84.2103 48.224C84.1769 48.1931 84.1504 48.1556 84.1325 48.1139C84.1147 48.0722 84.1058 48.0272 84.1065 47.9818L84.0834 47.9645ZM85.4616 46.0731H86.7993C87.1223 46.0943 87.4445 46.0222 87.7277 45.8656C87.8458 45.7684 87.9374 45.6428 87.9939 45.5006C88.0503 45.3584 88.0698 45.2043 88.0506 45.0525C88.0699 44.9016 88.0504 44.7482 87.9939 44.607C87.9374 44.4657 87.8458 44.3412 87.7277 44.2452C87.4462 44.0837 87.1231 44.0094 86.7993 44.0319H85.4616V46.0731ZM90.5474 47.7626C90.0628 47.1649 89.7984 46.4188 89.7984 45.6493C89.7984 44.8798 90.0628 44.1337 90.5474 43.536C91.1974 43.1036 91.9607 42.8729 92.7414 42.8729C93.5222 42.8729 94.2855 43.1036 94.9355 43.536C95.417 44.1351 95.6796 44.8807 95.6796 45.6493C95.6796 46.418 95.417 47.1635 94.9355 47.7626C94.2855 48.195 93.5222 48.4257 92.7414 48.4257C91.9607 48.4257 91.1974 48.195 90.5474 47.7626ZM91.5449 44.3029C91.2712 44.6907 91.1408 45.1615 91.1759 45.6349C91.1402 46.1065 91.2707 46.5758 91.5449 46.9611C91.6984 47.1192 91.8851 47.2411 92.0916 47.3179C92.2981 47.3947 92.5191 47.4245 92.7386 47.4051C92.9581 47.4258 93.1795 47.3965 93.3861 47.3197C93.5928 47.2428 93.7795 47.1202 93.9322 46.9611C94.2064 46.5758 94.3369 46.1065 94.3012 45.6349C94.3363 45.1615 94.2059 44.6907 93.9322 44.3029C93.7802 44.1428 93.5937 44.0195 93.3868 43.9426C93.1799 43.8656 92.9582 43.837 92.7386 43.8589C92.519 43.8378 92.2975 43.8669 92.0907 43.9438C91.884 44.0207 91.6974 44.1435 91.5449 44.3029ZM96.429 47.9472V43.3342C96.4273 43.2874 96.4351 43.2409 96.452 43.1973C96.4688 43.1537 96.4943 43.1139 96.527 43.0804C96.5974 43.0153 96.6905 42.9801 96.7865 42.9824H97.4496C97.5436 42.9816 97.6343 43.0167 97.7033 43.0804C97.7368 43.1123 97.7633 43.1509 97.7812 43.1935C97.7991 43.2362 97.8079 43.2821 97.8071 43.3284V47.0476L99.906 43.3342C99.9662 43.2356 100.047 43.151 100.142 43.0862C100.22 43.0247 100.315 42.9885 100.413 42.9824H101.486C101.532 42.9816 101.578 42.9905 101.621 43.0083C101.664 43.0262 101.702 43.0527 101.734 43.0862C101.798 43.1528 101.833 43.2419 101.832 43.3342V47.9472C101.833 47.9931 101.823 48.0387 101.804 48.0805C101.785 48.1224 101.757 48.1596 101.722 48.1894C101.69 48.2229 101.652 48.2494 101.609 48.2673C101.567 48.2851 101.521 48.2939 101.474 48.2931H100.806C100.759 48.2939 100.713 48.2851 100.671 48.2673C100.628 48.2494 100.589 48.2229 100.558 48.1894C100.524 48.1586 100.498 48.121 100.48 48.0793C100.462 48.0376 100.453 47.9926 100.454 47.9472V44.4874L98.5221 47.9472C98.4617 48.044 98.3811 48.1267 98.2857 48.1894C98.1974 48.2513 98.0935 48.2873 97.9858 48.2931H96.7576C96.6668 48.2903 96.5805 48.2529 96.5162 48.1886C96.4519 48.1243 96.4145 48.038 96.4117 47.9472H96.429ZM102.507 46.8401C102.502 46.7804 102.511 46.7205 102.534 46.6654C102.557 46.6102 102.593 46.5613 102.639 46.5229C102.709 46.4652 102.796 46.4327 102.887 46.4306H103.314C103.434 46.4351 103.55 46.477 103.645 46.5504C103.74 46.6238 103.81 46.7251 103.844 46.8401C103.907 46.9764 104.015 47.0866 104.15 47.1514C104.296 47.2332 104.461 47.275 104.629 47.2725H105.782C105.982 47.2812 106.182 47.2353 106.358 47.1399C106.422 47.0858 106.473 47.0186 106.507 46.9429C106.542 46.8673 106.56 46.7849 106.56 46.7017C106.56 46.6184 106.542 46.5361 106.507 46.4604C106.473 46.3848 106.422 46.3176 106.358 46.2634C106.182 46.168 105.982 46.1222 105.782 46.1308H104.83C104.785 46.1323 104.74 46.1237 104.698 46.1058C104.656 46.0878 104.619 46.061 104.588 46.027C104.555 45.9962 104.528 45.9587 104.51 45.917C104.493 45.8752 104.484 45.8302 104.484 45.7848V45.4792C104.486 45.3873 104.52 45.2991 104.582 45.2313C104.611 45.1985 104.647 45.1723 104.687 45.1544C104.726 45.1365 104.769 45.1273 104.813 45.1275H105.638C105.861 45.1424 106.084 45.0965 106.283 44.9948C106.347 44.9407 106.398 44.8735 106.432 44.7979C106.467 44.7222 106.485 44.6399 106.485 44.5566C106.485 44.4733 106.467 44.391 106.432 44.3154C106.398 44.2397 106.347 44.1725 106.283 44.1184C106.084 44.0167 105.861 43.9709 105.638 43.9858H104.75C104.583 43.9712 104.416 44.0069 104.27 44.088C104.125 44.1692 104.006 44.2923 103.931 44.4413C103.895 44.5441 103.828 44.6333 103.739 44.6963C103.65 44.7593 103.544 44.7931 103.435 44.793H103.002C102.955 44.7981 102.906 44.7981 102.858 44.793C102.797 44.763 102.746 44.7172 102.708 44.6604C102.654 44.5852 102.625 44.494 102.628 44.4009C102.631 44.1885 102.691 43.9809 102.802 43.7994C102.912 43.618 103.069 43.4693 103.256 43.3688C103.661 43.0988 104.137 42.9562 104.623 42.9594H105.741C107.16 42.9594 107.869 43.5014 107.869 44.5854C107.877 44.7904 107.836 44.9944 107.748 45.18C107.661 45.3657 107.531 45.5276 107.368 45.6522C107.552 45.7618 107.703 45.9196 107.805 46.1085C107.906 46.2974 107.954 46.5105 107.944 46.7247C107.966 46.9592 107.929 47.1955 107.836 47.412C107.744 47.6285 107.598 47.8184 107.414 47.9645C106.962 48.2455 106.434 48.3786 105.903 48.345H104.502C104.015 48.3479 103.538 48.2031 103.135 47.9299C102.945 47.8236 102.787 47.6689 102.677 47.4815C102.566 47.2941 102.507 47.0806 102.507 46.8631V46.8401ZM108.688 43.3169C108.688 43.2236 108.725 43.1341 108.791 43.0681C108.857 43.0022 108.946 42.9651 109.04 42.9651H112.009C112.319 42.9611 112.626 43.0078 112.92 43.1035C113.197 43.1983 113.442 43.3704 113.624 43.5994C113.82 43.8441 113.922 44.1509 113.912 44.4643C113.91 44.6556 113.864 44.8438 113.778 45.0147C113.692 45.1856 113.569 45.3346 113.416 45.4504C113.642 45.5652 113.829 45.744 113.955 45.9644C114.08 46.1849 114.137 46.4373 114.12 46.6901C114.125 46.9147 114.074 47.1371 113.974 47.338C113.874 47.5389 113.726 47.7124 113.543 47.8434C113.143 48.1326 112.658 48.2807 112.165 48.2643H109.04C108.993 48.2651 108.948 48.2563 108.905 48.2384C108.862 48.2206 108.824 48.194 108.792 48.1605C108.758 48.1297 108.732 48.0922 108.714 48.0505C108.696 48.0088 108.687 47.9637 108.688 47.9183V43.3053V43.3169ZM110.072 47.2898H112.159C112.24 47.2954 112.32 47.2827 112.395 47.2527C112.47 47.2228 112.537 47.1763 112.592 47.1168C112.698 46.9852 112.752 46.8187 112.742 46.6498C112.75 46.4811 112.697 46.3151 112.592 46.1827C112.537 46.1232 112.47 46.0767 112.395 46.0468C112.32 46.0168 112.24 46.0042 112.159 46.0097H110.072V47.3359V47.2898ZM110.072 44.9833H112.027C112.162 44.9885 112.294 44.9409 112.396 44.8507C112.49 44.7451 112.542 44.6086 112.542 44.4672C112.542 44.3258 112.49 44.1894 112.396 44.0838C112.347 44.0373 112.289 44.0011 112.225 43.9773C112.162 43.9535 112.094 43.9427 112.027 43.9454H110.072V45.0294V44.9833ZM115.313 47.7223C114.829 47.1245 114.564 46.3784 114.564 45.609C114.564 44.8395 114.829 44.0934 115.313 43.4956C115.963 43.0632 116.727 42.8325 117.507 42.8325C118.288 42.8325 119.052 43.0632 119.702 43.4956C120.186 44.0934 120.451 44.8395 120.451 45.609C120.451 46.3784 120.186 47.1245 119.702 47.7223C119.052 48.1547 118.288 48.3854 117.507 48.3854C116.727 48.3854 115.963 48.1547 115.313 47.7223ZM116.317 44.2625C116.041 44.6496 115.908 45.1205 115.942 45.5945C115.908 46.0669 116.041 46.5362 116.317 46.9208C116.649 47.2069 117.072 47.3643 117.51 47.3643C117.949 47.3643 118.372 47.2069 118.704 46.9208C118.978 46.5354 119.109 46.0662 119.073 45.5945C119.108 45.1212 118.978 44.6503 118.704 44.2625C118.372 43.9764 117.949 43.819 117.51 43.819C117.072 43.819 116.649 43.9764 116.317 44.2625ZM120.676 47.9068V47.5493C120.675 47.503 120.684 47.4571 120.702 47.4144C120.72 47.3717 120.746 47.3332 120.78 47.3013C120.811 47.2693 120.849 47.2441 120.891 47.2272C120.932 47.2104 120.977 47.2022 121.022 47.2033H121.305L121.985 44.3894C122.216 43.4149 123.011 42.9248 124.361 42.9248H126.339C126.429 42.9251 126.516 42.9602 126.581 43.0228C126.613 43.055 126.639 43.0937 126.656 43.1364C126.673 43.1791 126.681 43.2249 126.679 43.2707V47.9126C126.681 47.9576 126.673 48.0026 126.656 48.0444C126.639 48.0863 126.614 48.1239 126.581 48.1548C126.516 48.2173 126.429 48.2524 126.339 48.2528H121.022C120.931 48.2499 120.845 48.2125 120.781 48.1482C120.716 48.084 120.679 47.9976 120.676 47.9068ZM122.723 47.2033H125.301V43.9742H124.217C124.007 43.967 123.802 44.0367 123.64 44.1703C123.481 44.3134 123.372 44.5032 123.329 44.7123L122.717 47.2033H122.723ZM128.103 47.6243C127.663 47.0368 127.425 46.3226 127.425 45.5888C127.425 44.8549 127.663 44.1408 128.103 43.5533C128.677 43.077 129.412 42.8414 130.156 42.8959H130.975C131.502 42.8859 132.019 43.0389 132.457 43.3342C132.657 43.4621 132.822 43.6397 132.934 43.8498C133.046 44.06 133.102 44.2955 133.097 44.5336C133.103 44.5933 133.094 44.6537 133.071 44.7091C133.048 44.7645 133.011 44.8132 132.964 44.8507C132.891 44.9077 132.802 44.9401 132.71 44.943H132.26C132.138 44.9409 132.02 44.9001 131.923 44.8265C131.825 44.753 131.754 44.6504 131.718 44.5336C131.647 44.356 131.522 44.2051 131.361 44.1018C131.199 43.9984 131.01 43.9478 130.819 43.9569H130.167C129.972 43.9337 129.774 43.9531 129.587 44.0138C129.4 44.0746 129.228 44.1751 129.083 44.3087C128.897 44.7139 128.801 45.1544 128.801 45.6003C128.801 46.0461 128.897 46.4867 129.083 46.8919C129.227 47.0264 129.399 47.1277 129.586 47.1885C129.773 47.2492 129.972 47.2681 130.167 47.2437H130.894C131.085 47.2528 131.274 47.2022 131.436 47.0988C131.597 46.9955 131.722 46.8446 131.793 46.6671C131.828 46.553 131.897 46.4523 131.991 46.379C132.085 46.3057 132.199 46.2633 132.318 46.2577H132.751C132.8 46.2594 132.849 46.2691 132.895 46.2865C132.956 46.3156 133.01 46.3591 133.05 46.4133C133.102 46.4875 133.129 46.5766 133.125 46.6671C133.132 46.9046 133.076 47.1397 132.965 47.3498C132.854 47.5599 132.691 47.7378 132.491 47.8664C132.06 48.1614 131.548 48.3146 131.026 48.3047H130.133C129.394 48.3608 128.663 48.1247 128.097 47.6473L128.103 47.6243ZM133.391 43.6282V43.2765C133.39 43.1825 133.425 43.0918 133.489 43.0228C133.557 42.958 133.648 42.9227 133.742 42.9248H138.355C138.401 42.9239 138.447 42.9321 138.489 42.9489C138.532 42.9658 138.571 42.9909 138.603 43.0228C138.667 43.0918 138.702 43.1825 138.701 43.2765V43.6282C138.702 43.674 138.694 43.7195 138.677 43.762C138.66 43.8046 138.635 43.8434 138.603 43.8762C138.571 43.9092 138.533 43.9351 138.49 43.952C138.447 43.9689 138.401 43.9765 138.355 43.9742H136.724V47.9126C136.725 47.9575 136.716 48.0022 136.7 48.0438C136.683 48.0855 136.658 48.1232 136.625 48.1548C136.56 48.2173 136.474 48.2524 136.383 48.2528H135.691C135.646 48.2539 135.602 48.2457 135.56 48.2289C135.518 48.212 135.481 48.1868 135.449 48.1548C135.415 48.1244 135.388 48.087 135.37 48.0452C135.352 48.0033 135.344 47.9581 135.345 47.9126V43.9742H133.719C133.673 43.9766 133.626 43.969 133.582 43.9522C133.538 43.9353 133.499 43.9094 133.466 43.8762C133.434 43.8434 133.409 43.8046 133.392 43.762C133.375 43.7195 133.367 43.674 133.368 43.6282H133.391ZM139.324 43.2765C139.322 43.2306 139.33 43.1848 139.347 43.1421C139.364 43.0994 139.389 43.0607 139.422 43.0286C139.454 42.995 139.493 42.9685 139.535 42.9506C139.578 42.9328 139.624 42.924 139.67 42.9248H142.64C142.949 42.9207 143.257 42.9675 143.551 43.0631C143.828 43.1579 144.072 43.33 144.254 43.5591C144.45 43.8037 144.553 44.1105 144.543 44.424C144.54 44.6152 144.495 44.8035 144.409 44.9743C144.323 45.1452 144.199 45.2942 144.047 45.41C144.273 45.5242 144.461 45.7029 144.586 45.9235C144.711 46.1441 144.768 46.3968 144.75 46.6498C144.755 46.8744 144.705 47.0967 144.604 47.2976C144.504 47.4986 144.356 47.672 144.174 47.803C143.774 48.0923 143.289 48.2403 142.795 48.224H139.653C139.607 48.2247 139.561 48.2159 139.518 48.198C139.475 48.1802 139.437 48.1537 139.405 48.1201C139.372 48.0891 139.347 48.0514 139.33 48.0096C139.313 47.9679 139.305 47.923 139.307 47.878V43.265L139.324 43.2765ZM140.696 47.3359H142.784C142.864 47.3415 142.945 47.3288 143.02 47.2988C143.095 47.2689 143.162 47.2225 143.216 47.163C143.323 47.0313 143.376 46.8648 143.366 46.6959C143.374 46.5272 143.321 46.3612 143.216 46.2288C143.162 46.1693 143.095 46.1229 143.02 46.0929C142.945 46.063 142.864 46.0503 142.784 46.0558H140.696V47.3359ZM140.696 45.0294H142.651C142.787 45.0346 142.919 44.9871 143.02 44.8968C143.114 44.7912 143.166 44.6548 143.166 44.5134C143.166 44.372 143.114 44.2355 143.02 44.1299C142.971 44.0834 142.913 44.0472 142.85 44.0234C142.786 43.9996 142.719 43.9888 142.651 43.9915H140.696V45.0294ZM145.938 47.7684C145.453 47.1707 145.189 46.4246 145.189 45.6551C145.189 44.8856 145.453 44.1395 145.938 43.5418C146.589 43.1096 147.353 42.879 148.135 42.879C148.916 42.879 149.681 43.1096 150.332 43.5418C150.813 44.1409 151.076 44.8864 151.076 45.6551C151.076 46.4237 150.813 47.1693 150.332 47.7684C149.681 48.2006 148.916 48.4311 148.135 48.4311C147.353 48.4311 146.589 48.2006 145.938 47.7684ZM146.941 44.3087C146.668 44.6964 146.537 45.1673 146.572 45.6407C146.537 46.1123 146.667 46.5815 146.941 46.9669C147.273 47.253 147.697 47.4104 148.135 47.4104C148.573 47.4104 148.997 47.253 149.329 46.9669C149.603 46.5815 149.733 46.1123 149.698 45.6407C149.733 45.1673 149.602 44.6964 149.329 44.3087C148.997 44.0225 148.573 43.8651 148.135 43.8651C147.697 43.8651 147.273 44.0225 146.941 44.3087ZM154.437 47.9529V43.3399C154.437 43.2928 154.445 43.246 154.463 43.2024C154.481 43.1587 154.508 43.1192 154.541 43.0862C154.612 43.021 154.705 42.9859 154.801 42.9882H155.464C155.558 42.9885 155.648 43.0234 155.718 43.0862C155.783 43.1522 155.82 43.2412 155.821 43.3342V47.0534L157.92 43.3399C157.98 43.2413 158.061 43.1568 158.157 43.092C158.234 43.0305 158.329 42.9943 158.428 42.9882H159.518C159.563 42.9867 159.608 42.9953 159.65 43.0132C159.692 43.0311 159.729 43.058 159.76 43.092C159.793 43.1239 159.82 43.1624 159.838 43.2051C159.855 43.2477 159.864 43.2937 159.863 43.3399V47.9529C159.864 47.9989 159.855 48.0444 159.836 48.0863C159.817 48.1282 159.789 48.1653 159.754 48.1951C159.721 48.2288 159.681 48.2554 159.638 48.2732C159.594 48.2911 159.547 48.2998 159.5 48.2989H158.837C158.791 48.2997 158.745 48.2909 158.702 48.273C158.66 48.2551 158.621 48.2286 158.589 48.1951C158.556 48.1643 158.529 48.1268 158.511 48.0851C158.494 48.0434 158.485 47.9983 158.485 47.9529V44.4932L156.554 47.9529C156.493 48.0513 156.41 48.1342 156.311 48.1951C156.226 48.259 156.124 48.2953 156.017 48.2989H154.789C154.743 48.299 154.697 48.2899 154.655 48.2721C154.612 48.2543 154.574 48.2281 154.541 48.1951C154.508 48.1643 154.481 48.1268 154.464 48.0851C154.446 48.0434 154.437 47.9983 154.437 47.9529ZM163.929 47.7511C163.44 47.1552 163.173 46.4084 163.173 45.6378C163.173 44.8672 163.44 44.1204 163.929 43.5245C164.579 43.0921 165.342 42.8614 166.123 42.8614C166.903 42.8614 167.667 43.0921 168.317 43.5245C168.798 44.1236 169.061 44.8691 169.061 45.6378C169.061 46.4064 168.798 47.152 168.317 47.7511C167.667 48.1835 166.903 48.4142 166.123 48.4142C165.342 48.4142 164.579 48.1835 163.929 47.7511ZM164.926 44.2914C164.653 44.6791 164.522 45.15 164.557 45.6234C164.521 46.095 164.652 46.5642 164.926 46.9496C165.258 47.2357 165.682 47.3931 166.12 47.3931C166.558 47.3931 166.982 47.2357 167.313 46.9496C167.588 46.5642 167.718 46.095 167.683 45.6234C167.718 45.15 167.587 44.6791 167.313 44.2914C166.982 44.0052 166.558 43.8478 166.12 43.8478C165.682 43.8478 165.258 44.0052 164.926 44.2914ZM169.805 47.9414V43.3284C169.804 43.2813 169.812 43.2344 169.83 43.1908C169.848 43.1472 169.875 43.1077 169.908 43.0747C169.941 43.0422 169.979 43.0168 170.022 42.9999C170.065 42.983 170.11 42.9751 170.156 42.9767H174.273C174.319 42.9767 174.363 42.9859 174.405 43.0037C174.447 43.0215 174.484 43.0476 174.516 43.0804C174.579 43.147 174.615 43.2361 174.614 43.3284V43.6801C174.615 43.7725 174.579 43.8615 174.516 43.9281C174.485 43.9594 174.448 43.9842 174.407 44.0011C174.367 44.0179 174.323 44.0264 174.279 44.0261H171.188V44.9257H172.987C173.503 44.8997 174.011 45.0502 174.429 45.3524C174.602 45.5142 174.74 45.7097 174.834 45.927C174.928 46.1442 174.977 46.3784 174.977 46.6152C174.977 46.8519 174.928 47.0862 174.834 47.3034C174.74 47.5206 174.602 47.7162 174.429 47.878C174.011 48.1801 173.503 48.3306 172.987 48.3047H170.133C170.089 48.3057 170.045 48.2974 170.005 48.2806C169.964 48.2637 169.927 48.2385 169.897 48.2067C169.865 48.1751 169.84 48.1374 169.823 48.0957C169.806 48.0541 169.798 48.0094 169.799 47.9645L169.805 47.9414ZM171.188 47.2322H172.987C173.397 47.2322 173.599 47.0188 173.599 46.5921C173.599 46.1654 173.397 45.952 172.987 45.952H171.183V47.2322H171.188ZM176.101 47.6531C175.66 47.0664 175.421 46.3519 175.421 45.6176C175.421 44.8833 175.66 44.1688 176.101 43.5821C176.683 43.1065 177.429 42.8805 178.177 42.9536H179.002C179.527 42.9436 180.043 43.0967 180.478 43.3918C180.68 43.5191 180.845 43.6964 180.959 43.9065C181.072 44.1167 181.129 44.3526 181.124 44.5912C181.128 44.6508 181.119 44.7107 181.096 44.7659C181.073 44.821 181.037 44.8699 180.991 44.9084C180.917 44.9658 180.826 44.9981 180.732 45.0006H180.282C180.161 44.9944 180.045 44.9521 179.948 44.8791C179.851 44.8061 179.779 44.7058 179.74 44.5912C179.669 44.4146 179.544 44.2644 179.384 44.1611C179.224 44.0579 179.036 44.0067 178.846 44.0146H178.177C177.981 43.9917 177.782 44.0112 177.594 44.0719C177.406 44.1326 177.233 44.233 177.087 44.3663C176.901 44.7715 176.805 45.2121 176.805 45.658C176.805 46.1038 176.901 46.5444 177.087 46.9496C177.232 47.0842 177.405 47.1855 177.593 47.2463C177.781 47.307 177.981 47.3258 178.177 47.3013H178.904C179.094 47.3101 179.283 47.2592 179.443 47.1559C179.603 47.0525 179.727 46.9018 179.797 46.7247C179.832 46.6097 179.902 46.5085 179.997 46.4351C180.092 46.3617 180.208 46.3198 180.328 46.3153H180.76C180.808 46.3172 180.855 46.3269 180.899 46.3441C180.961 46.3717 181.015 46.4155 181.054 46.471C181.108 46.5444 181.137 46.6336 181.135 46.7247C181.139 46.9622 181.08 47.1965 180.966 47.4047C180.852 47.6129 180.686 47.7879 180.484 47.9126C180.053 48.2082 179.541 48.3615 179.019 48.3508H178.125C177.387 48.4063 176.656 48.1703 176.09 47.6934L176.101 47.6531ZM181.412 47.9702L182.34 44.4009C182.586 43.4399 183.394 42.9574 184.762 42.9536H186.59C186.633 42.9534 186.675 42.9632 186.713 42.9822C186.751 43.0012 186.784 43.029 186.809 43.0631C186.866 43.1309 186.897 43.2169 186.896 43.3053V47.9183C186.897 47.9634 186.89 48.0082 186.873 48.05C186.856 48.0917 186.83 48.1294 186.798 48.1605C186.768 48.1943 186.732 48.2212 186.691 48.2392C186.65 48.2571 186.606 48.2657 186.561 48.2643H185.864C185.818 48.2658 185.773 48.2572 185.731 48.2393C185.689 48.2214 185.652 48.1945 185.621 48.1605C185.588 48.1297 185.562 48.0922 185.544 48.0505C185.526 48.0088 185.517 47.9637 185.518 47.9183V43.9858H184.635C184.414 43.9837 184.199 44.0568 184.025 44.193C183.852 44.3292 183.729 44.5204 183.678 44.7354L182.842 47.9183C182.817 48.018 182.758 48.1058 182.675 48.1663C182.597 48.2271 182.502 48.2614 182.404 48.2643H181.637C181.598 48.2672 181.56 48.2597 181.525 48.2424C181.491 48.2251 181.462 48.1988 181.441 48.1663C181.407 48.126 181.388 48.0749 181.389 48.0221C181.386 47.9991 181.386 47.9759 181.389 47.9529L181.412 47.9702ZM187.524 43.3053C187.507 43.2631 187.497 43.2183 187.495 43.1727C187.496 43.1326 187.506 43.0931 187.524 43.0574C187.545 43.0233 187.575 42.9956 187.611 42.9773C187.646 42.959 187.686 42.9508 187.726 42.9536H188.499C188.606 42.9488 188.711 42.9795 188.799 43.0411C188.887 43.1027 188.951 43.1915 188.983 43.2938L189.404 44.326C189.501 44.5862 189.664 44.8168 189.877 44.9948C190.09 45.1503 190.351 45.2276 190.615 45.214H191.065L191.728 43.2996C191.758 43.1975 191.82 43.1082 191.907 43.0459C191.986 42.9856 192.083 42.9532 192.183 42.9536H192.921C192.962 42.951 193.003 42.9586 193.04 42.9757C193.078 42.9928 193.11 43.0189 193.135 43.0516C193.163 43.0923 193.177 43.1407 193.175 43.19C193.18 43.2244 193.18 43.2594 193.175 43.2938L191.982 46.7535C191.851 47.2036 191.59 47.6049 191.232 47.9068C190.822 48.19 190.328 48.328 189.831 48.2989H188.954C188.908 48.3008 188.863 48.293 188.82 48.2762C188.777 48.2593 188.738 48.2336 188.706 48.2009C188.673 48.1723 188.647 48.1369 188.629 48.097C188.611 48.0572 188.602 48.0139 188.602 47.9702V47.5781C188.602 47.535 188.61 47.4922 188.627 47.4525C188.644 47.4128 188.669 47.377 188.701 47.3475C188.734 47.3143 188.773 47.2884 188.817 47.2715C188.861 47.2546 188.907 47.2471 188.954 47.2495H189.762C190.246 47.2495 190.575 46.9265 190.753 46.2865H190.442C189.933 46.3164 189.428 46.183 189 45.9059C188.603 45.5743 188.299 45.1451 188.118 44.6604L187.541 43.3226L187.524 43.3053ZM193.29 48.1836C193.288 48.1625 193.288 48.1412 193.29 48.1201C193.292 48.0536 193.314 47.9891 193.354 47.9356L194.265 46.4537C194.395 46.2465 194.545 46.0533 194.715 45.8771C194.847 45.7292 195.019 45.623 195.211 45.5715C194.995 45.5276 194.796 45.4259 194.634 45.2774C194.479 45.1215 194.348 44.9426 194.248 44.7469L193.458 43.288C193.418 43.228 193.396 43.1581 193.394 43.0862C193.391 43.069 193.391 43.0515 193.394 43.0343C193.394 42.9651 193.469 42.9305 193.561 42.9305H194.409C194.522 42.9322 194.632 42.967 194.725 43.0306C194.818 43.0941 194.891 43.1836 194.934 43.288L195.51 44.3144C195.622 44.5367 195.78 44.7331 195.972 44.8911C196.139 45.0132 196.342 45.0761 196.548 45.0698H196.716V43.2938C196.715 43.2468 196.724 43.2001 196.742 43.1566C196.76 43.1131 196.786 43.0735 196.819 43.0401C196.85 43.0061 196.887 42.9792 196.929 42.9613C196.971 42.9434 197.016 42.9348 197.062 42.9363H197.748C197.794 42.9355 197.84 42.9443 197.883 42.9622C197.925 42.98 197.964 43.0066 197.996 43.0401C198.059 43.1097 198.093 43.2 198.094 43.2938V45.0698H198.261C198.467 45.0761 198.669 45.0154 198.838 44.8968C199.029 44.7394 199.184 44.5428 199.293 44.3202L199.87 43.2938C199.913 43.1894 199.985 43.0999 200.078 43.0363C200.172 42.9728 200.282 42.938 200.394 42.9363H201.242C201.334 42.9363 201.392 42.9709 201.409 43.0401C201.412 43.0573 201.412 43.0748 201.409 43.092C201.406 43.1629 201.387 43.232 201.352 43.2938L200.556 44.7527C200.455 44.9484 200.325 45.1273 200.17 45.2832C200.008 45.4317 199.808 45.5334 199.593 45.5772C199.784 45.6288 199.957 45.735 200.089 45.8829C200.257 46.0602 200.407 46.2533 200.539 46.4595L201.45 47.9356C201.485 47.9932 201.507 48.0584 201.513 48.1259C201.519 48.1467 201.519 48.1686 201.513 48.1894C201.513 48.2528 201.432 48.2874 201.334 48.2874H200.493C200.383 48.2826 200.277 48.2466 200.187 48.1836C200.085 48.1229 199.999 48.0401 199.933 47.9414L199.287 46.9035C199.168 46.6858 199.012 46.4907 198.826 46.3268C198.664 46.1949 198.458 46.1272 198.249 46.1366H198.082V47.9414C198.083 47.9863 198.075 48.031 198.058 48.0726C198.041 48.1143 198.016 48.1521 197.984 48.1836C197.918 48.2475 197.829 48.2827 197.736 48.2816H197.033C196.988 48.2827 196.943 48.2745 196.902 48.2577C196.86 48.2408 196.822 48.2156 196.791 48.1836C196.757 48.1533 196.73 48.1158 196.712 48.074C196.694 48.0322 196.685 47.9869 196.687 47.9414V46.1827H196.52C196.311 46.1733 196.105 46.241 195.943 46.373C195.756 46.538 195.599 46.7329 195.476 46.9496L194.836 47.9875C194.77 48.0863 194.684 48.169 194.582 48.2297C194.492 48.2927 194.386 48.3287 194.276 48.3335H193.435C193.337 48.3335 193.279 48.2989 193.256 48.2355L193.29 48.1836ZM202.032 47.9356V43.3226C202.031 43.2757 202.04 43.2292 202.058 43.1857C202.076 43.1423 202.102 43.1029 202.135 43.07C202.169 43.0371 202.209 43.0114 202.252 42.9943C202.296 42.9773 202.343 42.9693 202.39 42.9709H203.053C203.147 42.9701 203.237 43.0051 203.306 43.0689C203.34 43.1008 203.366 43.1393 203.384 43.182C203.402 43.2247 203.411 43.2706 203.41 43.3169V47.0361L205.515 43.3226C205.573 43.2242 205.652 43.1395 205.746 43.0747C205.825 43.0124 205.922 42.9762 206.022 42.9709H207.112C207.157 42.9709 207.202 42.9801 207.244 42.9979C207.286 43.0158 207.323 43.0419 207.354 43.0747C207.418 43.1413 207.453 43.2303 207.452 43.3226V47.9356C207.453 47.981 207.444 48.0261 207.426 48.0678C207.408 48.1095 207.382 48.147 207.349 48.1778C207.316 48.2115 207.276 48.2381 207.232 48.2559C207.189 48.2738 207.142 48.2825 207.095 48.2816H206.432C206.385 48.2825 206.338 48.2738 206.294 48.2559C206.251 48.2381 206.211 48.2115 206.178 48.1778C206.145 48.147 206.118 48.1095 206.1 48.0678C206.082 48.0261 206.074 47.981 206.074 47.9356V44.4759L204.143 47.9356C204.086 48.0351 204.004 48.1185 203.906 48.1778C203.819 48.2419 203.714 48.2781 203.606 48.2816H202.395C202.349 48.2824 202.303 48.2736 202.261 48.2557C202.218 48.2378 202.179 48.2113 202.147 48.1778C202.114 48.147 202.088 48.1095 202.07 48.0678C202.052 48.0261 202.043 47.981 202.044 47.9356H202.032ZM208.45 43.3226C208.449 43.2764 208.458 43.2305 208.476 43.1878C208.494 43.1451 208.52 43.1066 208.554 43.0747C208.585 43.0413 208.622 43.0148 208.664 42.997C208.705 42.9791 208.751 42.9702 208.796 42.9709H211.766C212.077 42.9672 212.386 43.014 212.682 43.1093C212.958 43.2042 213.2 43.3763 213.38 43.6052C213.579 43.8486 213.681 44.1563 213.668 44.4701C213.667 44.661 213.623 44.849 213.538 45.0199C213.453 45.1908 213.33 45.34 213.178 45.4561C213.403 45.5718 213.589 45.7509 213.713 45.9713C213.837 46.1917 213.894 46.4436 213.876 46.6959C213.881 46.9205 213.831 47.1428 213.73 47.3438C213.63 47.5447 213.482 47.7182 213.299 47.8491C212.9 48.1392 212.415 48.2873 211.921 48.2701H208.779C208.688 48.2672 208.601 48.2298 208.537 48.1655C208.473 48.1013 208.436 48.0149 208.433 47.9241V43.3111L208.45 43.3226ZM209.828 47.2956H211.915C211.997 47.2992 212.078 47.2857 212.153 47.2559C212.229 47.2261 212.297 47.1807 212.354 47.1226C212.45 46.9858 212.501 46.8227 212.501 46.6555C212.501 46.4884 212.45 46.3253 212.354 46.1885C212.299 46.129 212.232 46.0825 212.157 46.0526C212.082 46.0226 212.002 46.0099 211.921 46.0155H209.834V47.3359L209.828 47.2956ZM209.828 44.9891H211.783C211.884 44.9821 211.981 44.9471 212.063 44.8879C212.145 44.8286 212.209 44.7477 212.247 44.6541C212.285 44.5605 212.297 44.458 212.28 44.3582C212.263 44.2584 212.219 44.1654 212.152 44.0895C212.103 44.0425 212.045 44.0059 211.982 43.9821C211.918 43.9583 211.851 43.9478 211.783 43.9512H209.828V45.0294V44.9891ZM214.193 47.9356L215.081 44.4528C215.327 43.4918 216.136 43.0093 217.509 43.0055H219.481C219.524 43.0054 219.566 43.0146 219.605 43.0325C219.644 43.0505 219.678 43.0767 219.706 43.1093C219.763 43.177 219.793 43.263 219.792 43.3515V47.9933C219.794 48.0388 219.785 48.0841 219.767 48.1259C219.749 48.1677 219.722 48.2052 219.688 48.2355C219.657 48.2675 219.619 48.2927 219.577 48.3096C219.536 48.3265 219.491 48.3346 219.446 48.3335H218.772C218.726 48.335 218.68 48.3271 218.637 48.3103C218.595 48.2934 218.556 48.2679 218.524 48.2355C218.492 48.2027 218.467 48.1639 218.45 48.1213C218.433 48.0788 218.425 48.0333 218.426 47.9875V47.0476H215.837L215.589 47.9875C215.568 48.0876 215.51 48.1762 215.427 48.2355C215.348 48.2974 215.251 48.3319 215.15 48.3335H214.43C214.388 48.3355 214.346 48.3277 214.308 48.3107C214.27 48.2937 214.237 48.2679 214.21 48.2355C214.176 48.1908 214.158 48.136 214.159 48.0798C214.159 48.0798 214.159 48.0279 214.159 47.9933L214.193 47.9356ZM216.131 45.9405H218.437V43.9973H217.388C217.166 43.9936 216.95 44.067 216.776 44.2049C216.603 44.3418 216.479 44.5324 216.425 44.7469L216.113 45.9405H216.131ZM220.87 47.9299V43.3169C220.869 43.271 220.876 43.2252 220.893 43.1825C220.91 43.1398 220.936 43.1011 220.968 43.0689C221.001 43.0352 221.041 43.0087 221.085 42.9908C221.128 42.973 221.175 42.9642 221.222 42.9651H221.903C221.948 42.9637 221.993 42.9722 222.035 42.9901C222.077 43.0081 222.114 43.035 222.145 43.0689C222.178 43.1008 222.205 43.1393 222.223 43.182C222.241 43.2247 222.249 43.2706 222.249 43.3169V45.0294H224.763V43.3572C224.762 43.2649 224.797 43.1759 224.861 43.1093C224.893 43.0758 224.931 43.0493 224.974 43.0314C225.016 43.0135 225.062 43.0047 225.109 43.0055H225.789C225.835 43.0043 225.881 43.013 225.924 43.0309C225.967 43.0488 226.005 43.0755 226.037 43.1093C226.071 43.1412 226.097 43.1797 226.115 43.2224C226.133 43.265 226.142 43.311 226.141 43.3572V47.9702C226.141 48.0156 226.133 48.0607 226.115 48.1024C226.097 48.1441 226.07 48.1816 226.037 48.2124C226.005 48.2459 225.967 48.2724 225.924 48.2903C225.881 48.3082 225.835 48.317 225.789 48.3162H225.109C225.016 48.3173 224.927 48.2821 224.861 48.2182C224.829 48.1867 224.803 48.1489 224.787 48.1072C224.77 48.0656 224.762 48.0209 224.763 47.976V46.0674H222.231V47.976C222.233 48.0215 222.224 48.0668 222.206 48.1086C222.188 48.1504 222.161 48.1879 222.127 48.2182C222.096 48.2502 222.058 48.2754 222.017 48.2923C221.975 48.3092 221.93 48.3173 221.885 48.3162H221.205C221.159 48.3163 221.113 48.3072 221.07 48.2894C221.028 48.2716 220.989 48.2454 220.957 48.2124C220.924 48.1816 220.897 48.1441 220.879 48.1024C220.861 48.0607 220.852 48.0156 220.853 47.9702L220.87 47.9299ZM227.184 47.9299V43.3169C227.184 43.2697 227.192 43.2229 227.21 43.1793C227.228 43.1357 227.255 43.0961 227.288 43.0631C227.359 42.998 227.452 42.9628 227.548 42.9651H228.211C228.303 42.964 228.392 42.9992 228.459 43.0631C228.492 43.0951 228.519 43.1336 228.537 43.1762C228.555 43.2189 228.563 43.2648 228.563 43.3111V47.0303L230.667 43.3169C230.725 43.2184 230.804 43.1338 230.898 43.0689C230.978 43.0073 231.074 42.9711 231.175 42.9651H232.265C232.31 42.9637 232.355 42.9722 232.397 42.9901C232.439 43.0081 232.476 43.035 232.507 43.0689C232.54 43.1008 232.567 43.1393 232.585 43.182C232.603 43.2247 232.611 43.2706 232.611 43.3169V47.9299C232.61 47.9756 232.6 48.0208 232.581 48.0625C232.562 48.1042 232.535 48.1415 232.501 48.1721C232.468 48.2057 232.428 48.2323 232.385 48.2502C232.341 48.268 232.294 48.2767 232.247 48.2758H231.584C231.537 48.2767 231.49 48.268 231.447 48.2502C231.403 48.2323 231.363 48.2057 231.33 48.1721C231.297 48.1413 231.271 48.1038 231.253 48.062C231.235 48.0203 231.226 47.9753 231.227 47.9299V44.4701L229.301 47.9299C229.24 48.0282 229.157 48.1111 229.059 48.1721C228.971 48.2361 228.867 48.2723 228.759 48.2758H227.536C227.49 48.2766 227.444 48.2678 227.401 48.25C227.359 48.2321 227.32 48.2056 227.288 48.1721C227.255 48.1413 227.228 48.1038 227.211 48.062C227.193 48.0203 227.184 47.9753 227.184 47.9299ZM233.602 47.9299V43.3169C233.602 43.2706 233.61 43.2247 233.628 43.182C233.646 43.1393 233.673 43.1008 233.706 43.0689C233.771 43.0064 233.858 42.9713 233.948 42.9709H238.146C238.192 42.9694 238.237 42.978 238.279 42.9959C238.321 43.0138 238.358 43.0407 238.388 43.0747C238.422 43.1066 238.448 43.1451 238.466 43.1878C238.484 43.2305 238.493 43.2764 238.492 43.3226V43.6744C238.493 43.7206 238.484 43.7666 238.466 43.8092C238.448 43.8519 238.422 43.8904 238.388 43.9223C238.357 43.9543 238.319 43.9796 238.277 43.9964C238.236 44.0133 238.191 44.0214 238.146 44.0203H234.963V45.0986H237.708C237.753 45.0986 237.798 45.1078 237.84 45.1257C237.881 45.1435 237.919 45.1696 237.95 45.2024C238.014 45.269 238.049 45.3581 238.048 45.4504V45.8021C238.049 45.8944 238.014 45.9835 237.95 46.0501C237.919 46.0829 237.881 46.109 237.84 46.1268C237.798 46.1447 237.753 46.1539 237.708 46.1539H234.963V47.2495H238.146C238.19 47.2485 238.234 47.2567 238.275 47.2736C238.315 47.2904 238.352 47.3156 238.383 47.3475C238.415 47.3797 238.441 47.4184 238.458 47.4611C238.475 47.5038 238.482 47.5495 238.481 47.5954V47.9529C238.481 47.9978 238.473 48.0422 238.456 48.0838C238.439 48.1254 238.414 48.1632 238.383 48.1951C238.351 48.2286 238.312 48.2551 238.269 48.273C238.227 48.2909 238.181 48.2997 238.135 48.2989H233.937C233.891 48.2982 233.845 48.2883 233.803 48.2699C233.76 48.2516 233.722 48.225 233.69 48.1918C233.658 48.1586 233.632 48.1194 233.615 48.0765C233.598 48.0335 233.59 47.9876 233.591 47.9414L233.602 47.9299ZM242.183 47.6819C241.739 47.096 241.499 46.3812 241.499 45.6464C241.499 44.9116 241.739 44.1969 242.183 43.6109C242.752 43.1323 243.487 42.8963 244.23 42.9536H245.066C245.591 42.9428 246.107 43.096 246.542 43.3918C246.745 43.5182 246.911 43.6954 247.024 43.9057C247.137 44.1161 247.194 44.3524 247.188 44.5912C247.192 44.6508 247.183 44.7107 247.16 44.7659C247.137 44.821 247.101 44.8699 247.055 44.9084C246.981 44.9666 246.89 44.999 246.796 45.0006H246.346C246.225 44.9973 246.108 44.956 246.011 44.8825C245.915 44.809 245.845 44.7071 245.809 44.5912C245.737 44.4141 245.612 44.2637 245.451 44.1605C245.29 44.0573 245.101 44.0063 244.91 44.0146H244.258C244.063 43.9914 243.865 44.0108 243.678 44.0715C243.491 44.1322 243.319 44.2328 243.174 44.3663C242.985 44.7705 242.886 45.2115 242.886 45.658C242.886 46.1045 242.985 46.5454 243.174 46.9496C243.318 47.0841 243.49 47.1853 243.677 47.2461C243.865 47.3069 244.063 47.3258 244.258 47.3013H244.985C245.176 47.3104 245.365 47.2598 245.527 47.1565C245.688 47.0532 245.813 46.9023 245.884 46.7247C245.919 46.6106 245.988 46.51 246.082 46.4367C246.176 46.3634 246.29 46.321 246.409 46.3153H246.796C246.845 46.3171 246.893 46.3268 246.94 46.3441C246.999 46.3736 247.051 46.4172 247.09 46.471C247.144 46.5444 247.172 46.6336 247.17 46.7247C247.176 46.9623 247.121 47.1974 247.01 47.4075C246.899 47.6175 246.736 47.7955 246.536 47.9241C246.103 48.2191 245.589 48.3723 245.066 48.3623H244.178C243.45 48.4026 242.734 48.1587 242.183 47.6819ZM247.949 47.9529V43.3399C247.948 43.2937 247.957 43.2477 247.975 43.2051C247.993 43.1624 248.019 43.1239 248.053 43.092C248.084 43.06 248.122 43.0347 248.163 43.0179C248.205 43.001 248.25 42.9929 248.295 42.994H252.51C252.555 42.9947 252.6 43.0044 252.642 43.0225C252.684 43.0406 252.721 43.0667 252.753 43.0993C252.784 43.132 252.809 43.1706 252.826 43.2128C252.843 43.2551 252.851 43.3003 252.85 43.3457V43.6974C252.852 43.7433 252.844 43.7891 252.827 43.8318C252.81 43.8745 252.785 43.9132 252.752 43.9454C252.687 44.0079 252.6 44.043 252.51 44.0434H249.275V45.1217H252.014C252.059 45.1202 252.105 45.1288 252.147 45.1467C252.188 45.1647 252.226 45.1915 252.256 45.2255C252.29 45.2574 252.316 45.2959 252.334 45.3386C252.352 45.3813 252.361 45.4272 252.36 45.4734V45.8252C252.361 45.8714 252.352 45.9174 252.334 45.9601C252.316 46.0027 252.29 46.0412 252.256 46.0731C252.226 46.1071 252.188 46.134 252.147 46.1519C252.105 46.1698 252.059 46.1784 252.014 46.1769H249.275V47.2725H252.452C252.496 47.2722 252.54 47.2807 252.58 47.2976C252.621 47.3144 252.658 47.3392 252.689 47.3705C252.753 47.4371 252.788 47.5262 252.787 47.6185V47.976C252.787 48.0214 252.778 48.0664 252.761 48.1082C252.743 48.1499 252.716 48.1874 252.683 48.2182C252.652 48.251 252.614 48.2771 252.572 48.2949C252.531 48.3128 252.486 48.322 252.441 48.322H248.243C248.197 48.3234 248.152 48.3149 248.11 48.297C248.068 48.279 248.031 48.2521 248.001 48.2182C247.966 48.1859 247.939 48.1464 247.921 48.1027C247.903 48.0589 247.895 48.0117 247.897 47.9645L247.949 47.9529Z" fill="#1D1D1B"/>
<path d="M253.04 47.999L253.969 44.4297C254.219 43.4686 255.026 42.9862 256.391 42.9823H258.219C258.261 42.9816 258.303 42.9912 258.342 43.0103C258.38 43.0294 258.413 43.0574 258.438 43.0919C258.496 43.1591 258.529 43.2449 258.53 43.3341V47.9471C258.53 47.9919 258.522 48.0364 258.505 48.078C258.488 48.1195 258.463 48.1574 258.432 48.1893C258.402 48.2232 258.364 48.2501 258.322 48.268C258.281 48.286 258.235 48.2945 258.19 48.2931H257.492C257.447 48.2945 257.401 48.286 257.359 48.268C257.318 48.2501 257.28 48.2232 257.25 48.1893C257.216 48.1585 257.19 48.121 257.172 48.0792C257.154 48.0375 257.145 47.9925 257.146 47.9471V44.0145H256.258C256.038 44.0145 255.824 44.0883 255.65 44.2242C255.477 44.3601 255.354 44.5502 255.301 44.7641L254.465 47.9471C254.44 48.0468 254.381 48.1345 254.298 48.195C254.22 48.2558 254.125 48.2902 254.027 48.2931H253.277C253.213 48.2917 253.151 48.2659 253.105 48.2209C253.059 48.1759 253.032 48.1152 253.029 48.0509C253.026 48.0279 253.026 48.0047 253.029 47.9817L253.04 47.999ZM259.574 47.9529V43.3399C259.573 43.2459 259.608 43.1551 259.672 43.0861C259.738 43.0222 259.827 42.987 259.92 42.9881H260.635C260.681 42.9873 260.727 42.9961 260.769 43.014C260.812 43.0319 260.851 43.0584 260.883 43.0919C260.947 43.1585 260.982 43.2475 260.981 43.3399V44.7987H262.785C263.303 44.7787 263.81 44.9444 264.215 45.2658C264.394 45.431 264.536 45.6312 264.633 45.854C264.731 46.0767 264.781 46.3172 264.781 46.5603C264.781 46.8034 264.731 47.0438 264.633 47.2666C264.536 47.4894 264.394 47.6896 264.215 47.8548C263.808 48.1714 263.301 48.3347 262.785 48.3161H259.931C259.887 48.3167 259.844 48.3077 259.804 48.2897C259.764 48.2718 259.729 48.2454 259.7 48.2123C259.637 48.1433 259.602 48.0526 259.602 47.9586L259.574 47.9529ZM260.952 47.2609H262.757C263.166 47.2609 263.374 47.0245 263.374 46.5517C263.374 46.0788 263.166 45.8424 262.757 45.8424H260.952V47.2609ZM264.988 48.2008C264.985 48.1817 264.985 48.1622 264.988 48.1431C264.992 48.0768 265.019 48.0138 265.063 47.9644L266.908 45.5714L265.178 43.3341C265.135 43.2838 265.109 43.2213 265.103 43.1553C265.1 43.1343 265.1 43.1129 265.103 43.0919C265.118 43.0551 265.145 43.0243 265.18 43.0045C265.214 42.9846 265.254 42.9768 265.294 42.9823H266.078C266.205 42.9847 266.33 43.0179 266.441 43.0791C266.553 43.1404 266.648 43.2279 266.718 43.3341L267.721 44.6315L268.725 43.3341C268.796 43.2286 268.891 43.1416 269.002 43.0804C269.113 43.0193 269.238 42.9856 269.365 42.9823H270.149C270.188 42.9768 270.228 42.9846 270.263 43.0045C270.297 43.0243 270.324 43.0551 270.339 43.0919C270.342 43.1129 270.342 43.1343 270.339 43.1553C270.332 43.221 270.306 43.2832 270.264 43.3341L268.534 45.5714L270.38 47.9644C270.425 48.0133 270.451 48.0766 270.455 48.1431C270.461 48.1619 270.461 48.1821 270.455 48.2008C270.44 48.2376 270.413 48.2684 270.378 48.2882C270.344 48.3081 270.304 48.3159 270.264 48.3104H269.457C269.331 48.3073 269.207 48.2743 269.095 48.2142C268.984 48.154 268.889 48.0684 268.817 47.9644L267.704 46.517L266.591 47.9644C266.519 48.0684 266.424 48.154 266.313 48.2142C266.201 48.2743 266.078 48.3073 265.951 48.3104H265.173C265.133 48.3159 265.093 48.3081 265.059 48.2882C265.024 48.2684 264.997 48.2376 264.982 48.2008H264.988ZM271.492 47.7626C271.008 47.1648 270.743 46.4187 270.743 45.6492C270.743 44.8798 271.008 44.1336 271.492 43.5359C272.143 43.1035 272.906 42.8728 273.687 42.8728C274.467 42.8728 275.231 43.1035 275.881 43.5359C276.362 44.135 276.625 44.8806 276.625 45.6492C276.625 46.4179 276.362 47.1635 275.881 47.7626C275.231 48.195 274.467 48.4257 273.687 48.4257C272.906 48.4257 272.143 48.195 271.492 47.7626ZM272.49 44.3028C272.216 44.6906 272.086 45.1614 272.121 45.6348C272.085 46.1064 272.216 46.5757 272.49 46.9611C272.643 47.1191 272.83 47.241 273.037 47.3178C273.243 47.3946 273.464 47.4244 273.684 47.4051C273.903 47.4257 274.125 47.3965 274.331 47.3196C274.538 47.2427 274.725 47.1201 274.877 46.9611C275.151 46.5757 275.282 46.1064 275.246 45.6348C275.281 45.1614 275.151 44.6906 274.877 44.3028C274.725 44.1427 274.539 44.0194 274.332 43.9425C274.125 43.8655 273.903 43.8369 273.684 43.8588C273.464 43.8378 273.243 43.8668 273.036 43.9437C272.829 44.0206 272.642 44.1434 272.49 44.3028ZM277.034 46.84C277.029 46.7804 277.039 46.7205 277.062 46.6653C277.085 46.6101 277.121 46.5613 277.166 46.5228C277.236 46.4651 277.324 46.4326 277.414 46.4306H277.841C277.961 46.435 278.077 46.4769 278.172 46.5503C278.267 46.6237 278.337 46.725 278.372 46.84C278.434 46.9764 278.542 47.0865 278.677 47.1513C278.824 47.2324 278.989 47.2741 279.156 47.2724H280.309C280.51 47.2811 280.709 47.2352 280.886 47.1398C280.949 47.0857 281 47.0185 281.035 46.9428C281.07 46.8672 281.088 46.7849 281.088 46.7016C281.088 46.6183 281.07 46.536 281.035 46.4603C281 46.3847 280.949 46.3175 280.886 46.2633C280.709 46.1676 280.51 46.1218 280.309 46.1307H279.363C279.273 46.1278 279.186 46.0905 279.122 46.0262C279.058 45.9619 279.02 45.8756 279.017 45.7847V45.4791C279.019 45.3873 279.053 45.299 279.115 45.2312C279.144 45.1984 279.18 45.1722 279.22 45.1543C279.259 45.1364 279.302 45.1272 279.346 45.1274H280.171C280.391 45.1511 280.613 45.1173 280.817 45.0294C280.88 44.9752 280.931 44.908 280.965 44.8324C281 44.7567 281.018 44.6744 281.018 44.5911C281.018 44.5078 281 44.4255 280.965 44.3499C280.931 44.2742 280.88 44.207 280.817 44.1529C280.615 44.0521 280.39 44.0063 280.165 44.0203H279.277C279.111 44.0065 278.944 44.0425 278.798 44.1236C278.653 44.2047 278.534 44.3273 278.458 44.4758C278.422 44.5787 278.355 44.6678 278.266 44.7308C278.177 44.7938 278.071 44.8276 277.962 44.8275H277.53C277.482 44.8326 277.433 44.8326 277.386 44.8275C277.325 44.7975 277.273 44.7517 277.236 44.6949C277.181 44.6197 277.152 44.5285 277.155 44.4354C277.16 44.2233 277.22 44.0161 277.33 43.8349C277.441 43.6536 277.597 43.5048 277.783 43.4033C278.188 43.1333 278.664 42.9907 279.15 42.9939H280.24C281.658 42.9939 282.368 43.5359 282.368 44.62C282.376 44.825 282.334 45.0289 282.247 45.2145C282.16 45.4002 282.029 45.5621 281.866 45.6867C282.05 45.7963 282.201 45.9541 282.303 46.143C282.405 46.332 282.453 46.545 282.443 46.7592C282.464 46.9931 282.428 47.2287 282.336 47.445C282.244 47.6613 282.101 47.8516 281.918 47.999C281.464 48.2801 280.934 48.4132 280.401 48.3795H279C278.513 48.3824 278.037 48.2377 277.634 47.9644C277.445 47.8568 277.288 47.7018 277.177 47.5146C277.067 47.3275 277.008 47.1148 277.005 46.8976L277.034 46.84ZM282.771 43.6685V43.3168C282.769 43.2704 282.776 43.2241 282.793 43.1807C282.809 43.1373 282.834 43.0978 282.867 43.0647C282.899 43.0317 282.938 43.0057 282.982 42.9885C283.025 42.9714 283.071 42.9634 283.117 42.965H287.73C287.776 42.9635 287.822 42.9714 287.864 42.9883C287.907 43.0051 287.946 43.0306 287.978 43.0631C288.012 43.0961 288.038 43.1356 288.056 43.1792C288.074 43.2228 288.083 43.2696 288.082 43.3168V43.6685C288.083 43.7148 288.074 43.7609 288.057 43.8036C288.039 43.8463 288.012 43.8848 287.978 43.9165C287.947 43.9502 287.908 43.9764 287.865 43.9934C287.822 44.0103 287.776 44.0175 287.73 44.0145H286.121V47.9529C286.123 47.9984 286.114 48.0436 286.096 48.0855C286.079 48.1273 286.052 48.1647 286.018 48.195C285.986 48.2271 285.948 48.2523 285.907 48.2691C285.865 48.286 285.82 48.2941 285.775 48.2931H285.084C284.993 48.2927 284.906 48.2576 284.841 48.195C284.808 48.1642 284.783 48.1265 284.766 48.0847C284.749 48.0429 284.741 47.9979 284.743 47.9529V44.0145H283.123C283.077 44.0161 283.031 44.0083 282.989 43.9914C282.946 43.9746 282.907 43.9492 282.875 43.9167C282.842 43.8843 282.817 43.8455 282.8 43.8028C282.783 43.7601 282.775 43.7144 282.777 43.6685H282.771ZM288.699 47.9356V43.3226C288.698 43.2763 288.707 43.2304 288.725 43.1877C288.743 43.145 288.769 43.1065 288.803 43.0746C288.868 43.012 288.955 42.9769 289.045 42.9766H293.26C293.305 42.9759 293.351 42.9848 293.392 43.0026C293.434 43.0205 293.471 43.047 293.502 43.0804C293.536 43.1123 293.562 43.1508 293.58 43.1935C293.598 43.2361 293.607 43.282 293.606 43.3283V43.6801C293.607 43.7263 293.598 43.7722 293.58 43.8149C293.562 43.8576 293.536 43.8961 293.502 43.928C293.471 43.96 293.433 43.9853 293.391 44.0021C293.35 44.019 293.305 44.0271 293.26 44.026H290.077V45.1043H292.822C292.867 45.1043 292.912 45.1135 292.954 45.1314C292.995 45.1492 293.033 45.1753 293.064 45.2081C293.128 45.2747 293.163 45.3637 293.162 45.4561V45.8078C293.163 45.9001 293.128 45.9892 293.064 46.0558C293.033 46.0885 292.995 46.1147 292.954 46.1325C292.912 46.1504 292.867 46.1595 292.822 46.1595H290.077V47.2551H293.254C293.298 47.2548 293.342 47.2633 293.382 47.2802C293.423 47.297 293.46 47.3218 293.491 47.3532C293.555 47.4197 293.59 47.5088 293.589 47.6011V47.9586C293.589 48.004 293.581 48.049 293.563 48.0908C293.545 48.1325 293.518 48.17 293.485 48.2008C293.454 48.2336 293.416 48.2597 293.375 48.2776C293.333 48.2954 293.288 48.3046 293.243 48.3046H289.045C288.999 48.3038 288.953 48.294 288.911 48.2756C288.868 48.2572 288.83 48.2307 288.798 48.1975C288.766 48.1643 288.741 48.1251 288.724 48.0821C288.707 48.0392 288.698 47.9933 288.699 47.9471V47.9356ZM293.837 48.1835C293.833 48.1644 293.833 48.1449 293.837 48.1258C293.841 48.0595 293.867 47.9965 293.912 47.9471L295.757 45.5541L294.027 43.3168C293.98 43.2685 293.951 43.2052 293.946 43.138C293.943 43.117 293.943 43.0956 293.946 43.0746C293.961 43.0378 293.988 43.007 294.023 42.9872C294.057 42.9673 294.097 42.9595 294.137 42.965H294.927C295.053 42.9678 295.177 43.0012 295.287 43.0625C295.398 43.1238 295.492 43.2111 295.561 43.3168L296.564 44.6142L297.567 43.3168C297.638 43.2113 297.733 43.1243 297.845 43.0632C297.956 43.002 298.08 42.9683 298.208 42.965H298.992C299.031 42.9595 299.071 42.9673 299.106 42.9872C299.14 43.007 299.167 43.0378 299.182 43.0746C299.185 43.0956 299.185 43.117 299.182 43.138C299.178 43.2044 299.152 43.2674 299.107 43.3168L297.377 45.5541L299.222 47.9471C299.268 47.996 299.294 48.0593 299.297 48.1258C299.304 48.1446 299.304 48.1648 299.297 48.1835C299.282 48.2203 299.255 48.2511 299.221 48.2709C299.187 48.2908 299.146 48.2986 299.107 48.2931H298.329C298.203 48.29 298.08 48.257 297.97 48.1968C297.859 48.1367 297.765 48.051 297.694 47.9471L296.576 46.4997L295.463 47.9471C295.392 48.0507 295.297 48.1361 295.187 48.1962C295.077 48.2563 294.954 48.2895 294.828 48.2931H294.021C293.982 48.2986 293.942 48.2908 293.907 48.2709C293.873 48.2511 293.846 48.2203 293.831 48.1835H293.837ZM299.891 47.9471V43.3341C299.89 43.2418 299.925 43.1527 299.989 43.0861C300.022 43.0525 300.062 43.0259 300.105 43.008C300.149 42.9902 300.196 42.9814 300.243 42.9823H300.923C300.969 42.9809 301.014 42.9894 301.056 43.0074C301.098 43.0253 301.135 43.0522 301.166 43.0861C301.199 43.118 301.226 43.1565 301.244 43.1992C301.261 43.2419 301.27 43.2878 301.269 43.3341V45.0294H303.784V43.3571C303.783 43.3109 303.792 43.265 303.809 43.2223C303.827 43.1796 303.854 43.1411 303.887 43.1092C303.919 43.0764 303.956 43.0503 303.998 43.0324C304.039 43.0146 304.084 43.0054 304.129 43.0054H304.81C304.857 43.0042 304.904 43.0127 304.948 43.0306C304.991 43.0485 305.031 43.0753 305.064 43.1092C305.128 43.1758 305.163 43.2648 305.162 43.3571V47.9701C305.162 48.0155 305.153 48.0606 305.136 48.1023C305.118 48.144 305.091 48.1815 305.058 48.2123C305.026 48.2458 304.987 48.2724 304.945 48.2902C304.902 48.3081 304.856 48.3169 304.81 48.3161H304.129C304.039 48.3158 303.952 48.2807 303.887 48.2181C303.853 48.1878 303.826 48.1504 303.809 48.1085C303.791 48.0667 303.782 48.0214 303.784 47.9759V46.0673H301.269V47.9759C301.271 48.0214 301.262 48.0667 301.244 48.1085C301.226 48.1504 301.2 48.1878 301.166 48.2181C301.134 48.2501 301.096 48.2754 301.055 48.2922C301.013 48.3091 300.968 48.3172 300.923 48.3161H300.243C300.197 48.3162 300.151 48.3071 300.109 48.2893C300.066 48.2715 300.027 48.2453 299.995 48.2123C299.962 48.1815 299.935 48.144 299.917 48.1023C299.899 48.0606 299.891 48.0155 299.891 47.9701V47.9471ZM306.205 47.9471V43.3341C306.204 43.2869 306.213 43.2401 306.231 43.1965C306.249 43.1529 306.275 43.1134 306.309 43.0804C306.38 43.0152 306.473 42.98 306.569 42.9823H307.232C307.325 42.9827 307.416 43.0175 307.485 43.0804C307.551 43.1464 307.588 43.2353 307.589 43.3283V47.0475L309.688 43.3341C309.748 43.2355 309.829 43.1509 309.925 43.0861C310.002 43.0247 310.097 42.9884 310.196 42.9823H311.285C311.331 42.9809 311.376 42.9894 311.418 43.0074C311.46 43.0253 311.497 43.0522 311.528 43.0861C311.561 43.118 311.588 43.1565 311.605 43.1992C311.623 43.2419 311.632 43.2878 311.631 43.3341V47.9471C311.632 47.993 311.623 48.0386 311.604 48.0804C311.585 48.1223 311.557 48.1595 311.522 48.1893C311.489 48.2229 311.449 48.2495 311.406 48.2674C311.362 48.2852 311.315 48.294 311.268 48.2931H310.605C310.559 48.2938 310.513 48.285 310.47 48.2672C310.427 48.2493 310.389 48.2228 310.357 48.1893C310.324 48.1585 310.297 48.121 310.279 48.0792C310.261 48.0375 310.253 47.9925 310.253 47.9471V44.4873L308.322 47.9471C308.261 48.0454 308.178 48.1283 308.079 48.1893C307.994 48.2522 307.891 48.2884 307.785 48.2931H306.557C306.511 48.2932 306.465 48.284 306.423 48.2662C306.38 48.2484 306.341 48.2222 306.309 48.1893C306.276 48.1585 306.249 48.121 306.231 48.0792C306.213 48.0375 306.205 47.9925 306.205 47.9471ZM312.623 47.9471V43.3341C312.623 43.287 312.632 43.2404 312.65 43.1969C312.668 43.1533 312.694 43.1137 312.727 43.0804C312.759 43.0469 312.797 43.0203 312.84 43.0025C312.883 42.9846 312.929 42.9758 312.975 42.9766H313.684C313.73 42.9759 313.775 42.9848 313.816 43.0026C313.858 43.0205 313.896 43.047 313.926 43.0804C313.959 43.1137 313.986 43.1533 314.004 43.1969C314.021 43.2404 314.03 43.287 314.03 43.3341V45.1101H314.814C315.02 45.1164 315.223 45.0557 315.391 44.9371C315.584 44.7803 315.742 44.5836 315.852 44.3605L316.429 43.3341C316.472 43.2288 316.546 43.1386 316.64 43.075C316.734 43.0114 316.846 42.9771 316.959 42.9766H317.801C317.894 42.9766 317.951 43.0112 317.968 43.0804C317.971 43.0975 317.971 43.1151 317.968 43.1323C317.965 43.2031 317.946 43.2723 317.911 43.3341L317.115 44.7929C317.014 44.9886 316.884 45.1676 316.729 45.3234C316.569 45.4745 316.368 45.5765 316.152 45.6175C316.344 45.6678 316.517 45.7742 316.648 45.9231C316.82 46.0974 316.97 46.2909 317.098 46.4997L318.009 47.9817C318.048 48.0355 318.07 48.0998 318.072 48.1662C318.078 48.187 318.078 48.2088 318.072 48.2296C318.072 48.293 317.992 48.3277 317.894 48.3277H317.057C316.948 48.3229 316.842 48.2868 316.752 48.2239C316.649 48.1649 316.562 48.0818 316.498 47.9817L315.852 46.9438C315.73 46.727 315.572 46.5322 315.385 46.3671C315.223 46.2352 315.018 46.1674 314.809 46.1768H314.024V47.9817C314.026 48.0272 314.017 48.0724 313.999 48.1143C313.981 48.1561 313.955 48.1935 313.921 48.2239C313.889 48.2554 313.851 48.2802 313.809 48.2971C313.768 48.3139 313.723 48.3223 313.678 48.3219H312.992C312.946 48.3227 312.9 48.3139 312.857 48.296C312.815 48.2781 312.776 48.2516 312.744 48.2181C312.711 48.1851 312.684 48.1456 312.666 48.102C312.648 48.0583 312.64 48.0115 312.64 47.9644L312.623 47.9471ZM318.58 47.9471V43.3341C318.578 43.2874 318.586 43.2408 318.603 43.1972C318.62 43.1536 318.645 43.1138 318.678 43.0804C318.748 43.0152 318.841 42.98 318.937 42.9823H319.6C319.694 42.9815 319.785 43.0166 319.854 43.0804C319.888 43.1123 319.914 43.1508 319.932 43.1935C319.95 43.2361 319.959 43.282 319.958 43.3283V47.0475L322.057 43.3341C322.117 43.2355 322.198 43.1509 322.293 43.0861C322.371 43.0247 322.465 42.9884 322.564 42.9823H323.654C323.7 42.9816 323.746 42.9904 323.789 43.0082C323.832 43.0261 323.87 43.0526 323.902 43.0861C323.966 43.1527 324.001 43.2418 324 43.3341V47.9471C324.001 47.9925 323.992 48.0375 323.974 48.0792C323.956 48.121 323.93 48.1585 323.896 48.1893C323.863 48.2224 323.823 48.2486 323.78 48.2665C323.736 48.2843 323.69 48.2933 323.642 48.2931H322.968C322.922 48.2938 322.876 48.285 322.833 48.2672C322.79 48.2493 322.752 48.2228 322.72 48.1893C322.687 48.1585 322.66 48.121 322.642 48.0792C322.624 48.0375 322.615 47.9925 322.616 47.9471V44.4873L320.684 47.9471C320.624 48.0439 320.543 48.1266 320.448 48.1893C320.36 48.2512 320.256 48.2872 320.148 48.2931H318.92C318.875 48.2931 318.83 48.2839 318.788 48.266C318.747 48.2482 318.709 48.2221 318.678 48.1893C318.644 48.1585 318.618 48.121 318.6 48.0792C318.582 48.0375 318.573 47.9925 318.574 47.9471H318.58Z" fill="#1D1D1B"/>
</svg>
