<svg width="248" height="53" viewBox="0 0 248 53" fill="none" xmlns="http://www.w3.org/2000/svg">
<path fill-rule="evenodd" clip-rule="evenodd" d="M49.1418 40.5661C48.8902 41.184 48.6121 41.7843 48.3076 42.3625C46.4097 42.0932 45.2577 41.2237 43.7615 40.394C43.8071 40.2804 43.8746 40.1769 43.9601 40.0894C44.3803 39.7206 44.7797 39.3287 45.1562 38.9154C45.4078 38.6859 45.5093 38.6682 45.8977 38.8757C47.0409 39.498 47.9677 40.1512 49.1418 40.5661ZM42.5213 48.7579V48.855C41.4893 49.5654 40.3875 50.1688 39.2331 50.6557C37.0836 49.0183 36.2495 47.394 34.9342 45.5844C34.6296 45.1651 34.4928 45.1034 34.1265 45.1166L33.4821 45.2137C33.5395 44.9842 33.6012 44.7723 33.6675 44.5252C33.8043 44.0485 33.9102 43.9735 34.3119 43.9073C35.0158 43.8693 35.7172 43.7927 36.4128 43.6777C36.7923 43.6777 36.9115 43.7263 37.216 44.1456C38.5401 45.9596 39.3655 47.5794 41.515 49.2169C41.8592 49.0757 42.1947 48.9212 42.5213 48.7755V48.7579ZM29.9026 50.6381C29.6336 51.1844 29.3238 51.7097 28.9757 52.2094C28.2078 52.1564 27.4354 52.0681 26.6453 51.9401C25.8553 51.8121 25.0431 51.6797 24.2752 51.4502C22.9511 48.5637 23.0217 46.6349 22.6818 44.2427C22.682 44.0535 22.6258 43.8685 22.5205 43.7113C22.4152 43.5541 22.2655 43.4318 22.0904 43.36C21.3126 43.0233 20.5552 42.6416 19.8218 42.2168C19.7335 42.1744 19.642 42.139 19.5481 42.1109C20.0557 41.7137 20.5589 41.3076 21.1106 40.9015C21.233 40.764 21.4012 40.6757 21.5839 40.653C21.7666 40.6302 21.9513 40.6746 22.1036 40.778C22.8385 41.2028 23.5975 41.5845 24.3767 41.9211C24.5544 41.995 24.7057 42.121 24.8104 42.2825C24.9152 42.444 24.9687 42.6334 24.9637 42.8259C25.3036 45.2181 25.2329 47.1469 26.557 50.0334C27.3471 50.2409 28.146 50.3909 28.936 50.5233C29.2626 50.5763 29.5848 50.6204 29.907 50.6602L29.9026 50.6381ZM16.9794 43.7351C15.7403 44.7214 14.3205 45.4561 12.7996 45.8978C11.3584 44.8163 10.0064 43.6208 8.75672 42.3227C9.15395 39.2332 10.3059 37.7767 11.3343 35.7464C11.5771 35.2741 11.5417 35.1329 11.2637 34.6783C10.7693 34.0192 10.3059 33.3409 9.87337 32.6436C9.77707 32.4664 9.62802 32.3237 9.4469 32.2351C9.26579 32.1465 9.06159 32.1165 8.86265 32.1492C6.48368 32.1492 4.60787 32.4935 1.57127 31.5622C0.941523 30.0741 0.438062 28.5357 0.0662048 26.9632C0.973553 26.0558 2.02879 25.3095 3.18667 24.7563C2.91302 24.977 2.63055 25.2286 2.34807 25.5067C2.71874 27.0836 3.21767 28.6277 3.83989 30.1234C6.87649 31.0546 8.7523 30.7148 11.1357 30.7104C11.334 30.6773 11.5378 30.7072 11.7183 30.7958C11.8988 30.8845 12.047 31.0275 12.142 31.2047C12.5834 31.9021 13.0247 32.5818 13.5323 33.2394C13.8104 33.6808 13.8457 33.8353 13.6073 34.3075C12.5745 36.3378 11.4226 37.8076 11.0298 40.8839C12.2774 42.1841 13.6296 43.3798 15.0727 44.459C15.7269 44.27 16.3646 44.028 16.9794 43.7351ZM6.34244 22.9247V22.8717C6.25605 22.1557 6.21771 21.4346 6.22769 20.7134C6.18355 20.3118 6.10852 20.2014 5.64949 19.9543C3.66334 18.8685 1.94643 18.255 0 16.3307C0.141433 15.6936 0.32125 15.0657 0.538467 14.4504C0.736517 13.8483 0.970871 13.2587 1.24024 12.685C1.82373 12.5831 2.41369 12.5226 3.00571 12.504C2.94392 12.6629 2.88654 12.8262 2.82916 12.9939C2.61194 13.6092 2.43213 14.2371 2.29069 14.8741C4.23712 16.7985 5.95404 17.412 7.9446 18.4978C8.38597 18.7449 8.47424 18.8553 8.52279 19.2569C8.51354 19.978 8.55039 20.6989 8.63313 21.4152C8.63313 21.8213 8.56251 21.9272 8.10791 22.139C7.50765 22.4171 6.92504 22.6554 6.34244 22.907V22.9247ZM9.2687 11.405L9.42318 11.2064C9.58207 10.9371 9.57766 10.8356 9.32167 10.487C8.2359 9.00397 7.14573 7.93585 6.57195 5.96736C7.34713 5.38439 8.16608 4.86204 9.02154 4.40493L8.85823 4.52851C9.42759 6.49701 10.5178 7.56511 11.6035 9.0481C11.8595 9.39678 11.8684 9.48947 11.705 9.76753C11.3364 10.2256 10.9987 10.7077 10.6943 11.2108C10.4736 11.4844 10.3633 11.5286 9.88662 11.4756L9.2687 11.405ZM17.4472 5.37593C17.2442 4.21072 16.9617 3.21324 17.3854 1.93327C18.0651 1.87148 18.7537 1.84058 19.4466 1.84058C19.5019 2.68212 19.6185 3.51852 19.7953 4.34313C19.8438 4.68298 19.7953 4.74037 19.4819 4.85954C18.9707 4.99152 18.4668 5.15063 17.9725 5.33621C17.8057 5.39693 17.6228 5.39693 17.4561 5.33621L17.4472 5.37593Z" fill="white"/>
<path fill-rule="evenodd" clip-rule="evenodd" d="M49.3448 30.9006C49.3139 31.3817 49.283 31.876 49.2477 32.1762C49.4286 32.8161 49.2477 32.6175 49.5081 32.9662C50.6556 34.458 51.5957 35.3143 52.5976 37.5432C52.2642 38.5922 51.8358 39.6086 51.3177 40.5798C49.358 40.2973 48.1972 39.3837 46.6259 38.5274C46.2375 38.32 46.136 38.3376 45.8845 38.5672C45.5072 38.9797 45.1095 39.373 44.6928 39.7456C44.4456 40.0237 44.4147 40.134 44.5339 40.6283C45.0503 42.6674 45.6991 44.2652 45.6505 46.9266C44.6187 47.6387 43.517 48.2435 42.3624 48.7318C40.2173 47.0899 39.3787 45.4701 38.0678 43.6517C37.7633 43.2368 37.6265 43.175 37.2601 43.2103C36.5649 43.3275 35.8634 43.4041 35.1592 43.4398C34.7576 43.506 34.6561 43.5811 34.5193 44.0578C33.9102 46.1719 33.7116 47.9992 32.1094 50.3031C31.3414 50.2545 30.5646 50.1618 29.779 50.0339C28.9934 49.9059 28.1901 49.7514 27.4044 49.5439C26.0803 46.6574 26.1465 44.7286 25.8067 42.3364C25.8129 42.1437 25.76 41.9537 25.655 41.792C25.5501 41.6303 25.3982 41.5045 25.2197 41.4316C24.4402 41.0853 23.6826 40.6917 22.951 40.2532C22.7977 40.1505 22.6125 40.1064 22.4293 40.1291C22.2461 40.1518 22.0772 40.2397 21.9536 40.3768C20.1351 41.7009 18.864 43.0956 15.9377 43.9562C14.5031 42.8751 13.1584 41.6795 11.9169 40.3812C12.3097 37.2916 13.4617 35.8395 14.4945 33.8048C14.6082 33.6461 14.6633 33.4529 14.6504 33.2581C14.6375 33.0633 14.5575 32.879 14.4238 32.7367C13.9295 32.0791 13.4617 31.4126 13.0335 30.702C12.9382 30.524 12.7894 30.3804 12.608 30.2917C12.4266 30.203 12.2218 30.1736 12.0228 30.2077C9.63942 30.2077 7.76361 30.5519 4.73142 29.6206C4.10513 28.126 3.60465 26.5818 3.23519 25.004C5.25224 23.031 7.0177 22.5632 8.97296 21.6452C9.41432 21.4333 9.49818 21.3274 9.5026 20.9213C9.4162 20.2053 9.37787 19.4842 9.38784 18.763C9.3437 18.3614 9.26867 18.2511 8.80965 18.0039C6.81909 16.9181 5.10217 16.309 3.16016 14.3803C3.30069 13.7416 3.48052 13.1122 3.69862 12.4956C3.89809 11.894 4.13241 11.3045 4.4004 10.7302C7.00887 10.2888 8.67283 10.7302 10.7737 10.9508C11.246 11.0038 11.3608 10.9508 11.577 10.686C11.8814 10.1819 12.2206 9.69964 12.5922 9.24275C12.7511 8.97352 12.7422 8.87201 12.4862 8.52774C11.4049 7.04034 10.3103 5.97223 9.74093 4.00373C10.6218 3.33671 11.5579 2.74608 12.5392 2.23827C14.874 2.94887 16.0392 3.85366 17.6635 4.81143C17.7795 4.90958 17.92 4.97453 18.0699 4.99939C18.2199 5.02426 18.3738 5.00811 18.5153 4.95267C19.0109 4.76147 19.5162 4.59646 20.0292 4.45834C20.3337 4.33917 20.3911 4.27737 20.3426 3.94193C20.1484 2.59135 19.7467 1.51883 20.219 0.0887982C21.2859 -0.00559614 22.3581 -0.0247581 23.4277 0.0314319C25.1182 1.35553 25.6963 2.37508 26.6894 3.62415C26.8075 3.81768 26.9956 3.95835 27.2146 4.01697V4.05228C25.9707 3.92668 24.7165 3.94298 23.4763 4.10083C18.3476 4.7673 15.1653 7.53908 13.5411 11.2995C12.0581 14.7466 12.0449 19.0632 13.6735 23.5386C15.2948 27.8123 17.9845 31.5991 21.4857 34.5375C24.9416 37.4682 29.1964 39.6088 33.5792 40.2752C38.2797 40.9858 42.4065 39.9089 45.3195 37.3887C47.26 35.6798 48.5974 33.3905 49.1329 30.8609L49.3448 30.9006Z" fill="#BBC406"/>
<path fill-rule="evenodd" clip-rule="evenodd" d="M25.6222 6.2456C29.8902 5.73803 34.8556 7.60943 38.8632 11.0212C39.3045 11.3787 39.6841 11.745 40.0769 12.1246H35.0807C31.7351 9.8604 27.9393 8.69519 24.5894 9.09242C20.6435 9.56027 18.2425 11.8465 17.2097 14.9626C17.2864 14.1694 17.4477 13.3867 17.6908 12.6278C18.7766 9.24248 21.3497 6.75317 25.6354 6.2456H25.6222ZM45.6381 30.9004C45.1177 32.0343 44.3629 33.045 43.4233 33.8659C42.4837 34.6868 41.3808 35.2992 40.1873 35.6627C40.7082 35.3368 41.1909 34.9534 41.6261 34.5196C42.6263 33.5075 43.3616 32.2644 43.7668 30.9004H45.6381Z" fill="white"/>
<path fill-rule="evenodd" clip-rule="evenodd" d="M24.1168 4.50247C28.4995 3.92869 33.5841 5.35873 37.9889 8.27616C33.7606 5.53086 28.91 4.20235 24.7479 4.74523C19.9194 5.37197 16.9402 7.98486 15.4219 11.5158C14.0271 14.7422 14.0139 18.7851 15.541 22.9913C17.066 26.9832 19.5867 30.5188 22.8633 33.2619C26.0985 36.0028 30.0841 38.011 34.1888 38.6334C38.6024 39.2998 42.4732 38.2935 45.1832 35.9278C46.7185 34.5861 47.8533 32.8464 48.4626 30.9006H48.723C48.1371 33.1131 46.9083 35.1022 45.192 36.6163C42.3982 39.0482 38.3994 40.0855 33.8666 39.4013C29.6383 38.7569 25.5336 36.6958 22.2012 33.8666C18.8232 31.0301 16.2279 27.3757 14.6627 23.2517C13.0914 18.9396 13.1047 14.7731 14.5391 11.4496C16.1016 7.82597 19.1691 5.14686 24.1212 4.50247H24.1168Z" fill="white"/>
<path d="M24.3104 14.6707C24.3086 14.5333 24.3351 14.3969 24.3882 14.2701C24.4414 14.1433 24.5201 14.0287 24.6194 13.9337C24.7153 13.8358 24.8301 13.7583 24.9568 13.706C25.0834 13.6536 25.2194 13.6275 25.3565 13.6291H34.2897C35.2195 13.6178 36.145 13.7564 37.0306 14.0396C37.8554 14.3174 38.5852 14.8222 39.1359 15.4961C39.7318 16.2188 40.0454 17.133 40.0187 18.0693C40.013 18.6349 39.8757 19.1915 39.6175 19.6949C39.3593 20.1982 38.9874 20.6345 38.5313 20.9691C39.2055 21.3046 39.7657 21.8315 40.1417 22.4839C40.5178 23.1364 40.693 23.8853 40.6454 24.6368C40.6755 25.3152 40.5368 25.9904 40.2418 26.602C39.9468 27.2137 39.5046 27.7425 38.955 28.1413C37.7487 28.9949 36.2963 29.4305 34.8194 29.3815H25.3565C25.2198 29.383 25.0843 29.3572 24.9577 29.3056C24.8312 29.2541 24.7161 29.1778 24.6194 29.0814C24.5199 28.9883 24.441 28.8754 24.3878 28.75C24.3346 28.6245 24.3082 28.4893 24.3104 28.3531V14.6707ZM28.4549 26.4155H34.7399C34.9842 26.4355 35.2298 26.4007 35.4589 26.3136C35.6879 26.2266 35.8947 26.0895 36.064 25.9124C36.3555 25.5091 36.5125 25.0241 36.5125 24.5265C36.5125 24.0288 36.3555 23.5439 36.064 23.1406C35.8974 22.9673 35.695 22.8325 35.4708 22.7456C35.2467 22.6586 35.0063 22.6217 34.7664 22.6374H28.4549V26.4155ZM28.4549 19.6714H34.3339C34.5363 19.6809 34.7385 19.6498 34.9287 19.5801C35.1189 19.5103 35.2933 19.4033 35.4417 19.2654C35.5903 19.1185 35.7064 18.942 35.7824 18.7473C35.8584 18.5527 35.8927 18.3442 35.8831 18.1355C35.9002 17.93 35.8726 17.7232 35.8021 17.5294C35.7317 17.3357 35.62 17.1595 35.4748 17.013C35.3296 16.8666 35.1544 16.7534 34.9612 16.6812C34.7681 16.6091 34.5616 16.5797 34.3559 16.5951H28.4549V19.6847V19.6714ZM44.2249 27.7573C42.7213 26.4449 41.9695 24.3632 41.9695 21.5119C41.9695 18.6607 42.7213 16.5789 44.2249 15.2666C45.7197 13.9543 47.9177 13.2981 50.8189 13.2981C53.7202 13.2981 55.9182 13.9543 57.4129 15.2666C58.9077 16.5789 59.6565 18.6607 59.6595 21.5119C59.6624 24.3632 58.9136 26.4449 57.4129 27.7573C55.9123 29.0666 53.7143 29.7228 50.8189 29.7258C47.9235 29.7287 45.7255 29.0725 44.2249 27.7573ZM47.2262 17.5838C46.4847 18.4665 46.1139 19.7906 46.1139 21.5163C46.1139 23.2421 46.4847 24.5662 47.2262 25.4445C47.9677 26.3228 49.1682 26.7686 50.8189 26.7686C52.4696 26.7686 53.6657 26.3272 54.4072 25.4445C55.1487 24.5618 55.5151 23.2597 55.5151 21.5163C55.5151 19.7729 55.1443 18.4665 54.4072 17.5838C53.6701 16.701 52.4696 16.2597 50.8189 16.2597C49.1682 16.2597 47.9677 16.701 47.2262 17.5838ZM60.5996 28.459L63.389 17.9104C64.1394 15.065 66.5684 13.6379 70.676 13.6291H76.171C76.2969 13.6291 76.4211 13.6577 76.5343 13.7127C76.6474 13.7678 76.7466 13.8479 76.8242 13.9469C76.9997 14.147 77.0955 14.4046 77.0935 14.6707V28.3531C77.0959 28.4878 77.0714 28.6216 77.0213 28.7466C76.9713 28.8717 76.8968 28.9855 76.8022 29.0814C76.71 29.179 76.5983 29.2562 76.4744 29.3079C76.3504 29.3596 76.217 29.3847 76.0827 29.3815H73.9863C73.8506 29.3821 73.7162 29.3559 73.5907 29.3046C73.4652 29.2532 73.351 29.1776 73.2547 29.0821C73.1583 28.9866 73.0818 28.8731 73.0293 28.748C72.9769 28.6229 72.9496 28.4887 72.949 28.3531V16.7363H70.2788C69.6177 16.7224 68.9717 16.9341 68.4471 17.3366C67.9248 17.7402 67.5533 18.3075 67.3922 18.9476L64.8809 28.3575C64.8046 28.6534 64.6284 28.9138 64.3821 29.0946C64.1486 29.2769 63.8618 29.3777 63.5656 29.3815H61.319C61.2043 29.3861 61.0901 29.3628 60.9864 29.3136C60.8826 29.2644 60.7923 29.1907 60.7232 29.099C60.6218 28.9744 60.5671 28.8183 60.5687 28.6577C60.5687 28.5914 60.5908 28.5164 60.5996 28.4458V28.459ZM80.236 28.3708V14.6884C80.2315 14.5504 80.2554 14.413 80.3063 14.2847C80.3572 14.1564 80.4339 14.0399 80.5317 13.9425C80.6303 13.845 80.7476 13.7685 80.8765 13.7176C81.0055 13.6668 81.1435 13.6427 81.282 13.6468H91.8748C92.0122 13.6421 92.149 13.6659 92.2766 13.7168C92.4042 13.7677 92.5199 13.8446 92.6163 13.9425C92.7127 14.0407 92.7882 14.1575 92.8383 14.2856C92.8884 14.4138 92.9119 14.5508 92.9076 14.6884V15.7212C92.9126 15.8582 92.8892 15.9947 92.8391 16.1222C92.7889 16.2497 92.713 16.3656 92.6161 16.4625C92.5192 16.5594 92.4034 16.6353 92.2758 16.6854C92.1483 16.7356 92.0118 16.7589 91.8748 16.754H84.3716V28.3884C84.3748 28.5231 84.3493 28.6569 84.2968 28.7809C84.2443 28.905 84.166 29.0164 84.0671 29.1078C83.9715 29.2029 83.8578 29.2777 83.7326 29.3277C83.6075 29.3778 83.4736 29.4021 83.3388 29.3991H81.2732C80.9986 29.4034 80.7336 29.2987 80.5361 29.1078C80.4357 29.0174 80.3561 28.9062 80.3028 28.782C80.2495 28.6578 80.2237 28.5235 80.2272 28.3884L80.236 28.3708ZM93.4196 28.3708L96.1782 17.9104C96.9285 15.065 99.3604 13.6379 103.474 13.6291H109.397C109.525 13.6279 109.652 13.6545 109.768 13.7071C109.885 13.7597 109.989 13.837 110.072 13.9337C110.248 14.13 110.344 14.3851 110.342 14.6487V28.3708C110.345 28.5059 110.319 28.6402 110.266 28.7643C110.213 28.8885 110.133 28.9997 110.033 29.0902C109.936 29.1846 109.821 29.2589 109.695 29.3088C109.57 29.3588 109.435 29.3835 109.3 29.3815H107.252C107.114 29.3866 106.977 29.3633 106.849 29.3132C106.721 29.2631 106.604 29.1872 106.506 29.0902C106.409 28.9941 106.334 28.879 106.283 28.7521C106.233 28.6253 106.21 28.4894 106.215 28.3531V25.5813H98.4247L97.6832 28.3575C97.6105 28.655 97.4335 28.9165 97.1845 29.0946C96.9521 29.279 96.6646 29.38 96.368 29.3815H94.192C94.0678 29.3899 93.9435 29.3673 93.8302 29.3156C93.717 29.264 93.6183 29.185 93.5432 29.0858C93.4431 28.9605 93.3886 28.8048 93.3887 28.6444C93.3968 28.5554 93.41 28.467 93.4285 28.3796L93.4196 28.3708ZM99.2501 22.4697H106.197V16.7319H103.077C102.417 16.7183 101.772 16.9292 101.247 17.3301C100.723 17.7311 100.35 18.2983 100.19 18.9388L99.2501 22.4697ZM112.187 28.3708L114.945 17.9104C115.695 15.065 118.127 13.6379 122.241 13.6291H128.164C128.292 13.6279 128.419 13.6545 128.535 13.7071C128.652 13.7597 128.756 13.837 128.839 13.9337C129.015 14.13 129.111 14.3851 129.109 14.6487V28.3708C129.112 28.5059 129.086 28.6402 129.033 28.7643C128.98 28.8885 128.9 28.9997 128.8 29.0902C128.703 29.1846 128.588 29.2589 128.462 29.3088C128.337 29.3588 128.202 29.3835 128.067 29.3815H126.001C125.864 29.3866 125.726 29.3633 125.598 29.3132C125.47 29.2631 125.353 29.1872 125.255 29.0902C125.159 28.9941 125.083 28.879 125.033 28.7521C124.983 28.6253 124.959 28.4894 124.964 28.3531V25.5813H117.183L116.441 28.3575C116.369 28.655 116.192 28.9165 115.943 29.0946C115.71 29.279 115.423 29.38 115.126 29.3815H112.95C112.826 29.3899 112.702 29.3673 112.588 29.3156C112.475 29.264 112.376 29.185 112.301 29.0858C112.201 28.9605 112.147 28.8048 112.147 28.6444C112.155 28.5554 112.168 28.467 112.187 28.3796V28.3708ZM118.017 22.4697H124.964V16.7319H121.844C121.184 16.7183 120.539 16.9292 120.014 17.3301C119.49 17.7311 119.117 18.2983 118.957 18.9388L118.017 22.4697ZM132.251 28.3708V14.6884C132.247 14.5504 132.271 14.4131 132.322 14.2848C132.372 14.1565 132.449 14.0399 132.547 13.9423C132.644 13.8447 132.761 13.7682 132.889 13.7173C133.017 13.6665 133.155 13.6425 133.293 13.6468H143.908C144.044 13.6416 144.181 13.6653 144.308 13.7162C144.435 13.7672 144.549 13.8443 144.645 13.9425C144.742 14.0399 144.819 14.1564 144.87 14.2847C144.921 14.413 144.945 14.5504 144.94 14.6884V15.7212C144.945 15.858 144.921 15.9942 144.87 16.1215C144.82 16.2487 144.744 16.3643 144.647 16.461C144.551 16.5578 144.435 16.6337 144.308 16.6841C144.181 16.7345 144.044 16.7583 143.908 16.754H136.382V28.3884C136.385 28.5231 136.36 28.6569 136.307 28.7809C136.255 28.905 136.177 29.0164 136.078 29.1078C135.981 29.2032 135.867 29.2782 135.741 29.3282C135.615 29.3783 135.48 29.4024 135.345 29.3991H133.293C133.157 29.4012 133.023 29.3765 132.897 29.3265C132.772 29.2765 132.657 29.2022 132.56 29.1078C132.46 29.0174 132.38 28.9062 132.327 28.782C132.273 28.6578 132.248 28.5235 132.251 28.3884V28.3708ZM146.732 28.3708V14.6884C146.73 14.552 146.755 14.4166 146.806 14.29C146.857 14.1634 146.932 14.0483 147.028 13.9513C147.121 13.8524 147.234 13.7742 147.36 13.7217C147.485 13.6692 147.62 13.6437 147.756 13.6468H156.142C160.556 13.6468 162.772 15.6874 162.789 19.7685C162.807 23.8497 160.591 25.8918 156.142 25.8947H150.877V28.3663C150.877 28.5023 150.85 28.637 150.798 28.7626C150.746 28.8882 150.669 29.0022 150.573 29.0982C150.476 29.1942 150.362 29.2702 150.236 29.3218C150.11 29.3734 149.976 29.3997 149.84 29.3991H147.774C147.637 29.4006 147.502 29.3748 147.375 29.3233C147.249 29.2717 147.134 29.1955 147.037 29.099C146.939 29.0051 146.861 28.8919 146.809 28.7666C146.756 28.6413 146.73 28.5066 146.732 28.3708ZM150.877 22.7875H154.884C155.859 22.8486 156.83 22.6329 157.687 22.1652C158.323 21.7503 158.64 20.9514 158.64 19.7685C158.64 18.5857 158.323 17.7868 157.687 17.3719C156.829 16.908 155.858 16.6939 154.884 16.754H150.877V22.7698V22.7875ZM166.148 27.7749C164.642 26.4626 163.89 24.3808 163.893 21.5296C163.896 18.6784 164.647 16.5966 166.148 15.2842C167.649 13.9719 169.847 13.3157 172.742 13.3157C175.637 13.3157 177.835 13.9719 179.336 15.2842C180.831 16.5966 181.58 18.6784 181.583 21.5296C181.586 24.3808 180.837 26.4626 179.336 27.7749C177.835 29.0843 175.637 29.7405 172.742 29.7434C169.847 29.7464 167.649 29.0902 166.148 27.7749ZM169.149 17.6014C168.408 18.4842 168.037 19.8083 168.037 21.534C168.037 23.2597 168.408 24.5838 169.149 25.4622C169.891 26.3405 171.091 26.7863 172.742 26.7863C174.393 26.7863 175.589 26.3449 176.33 25.4622C177.072 24.5794 177.438 23.2774 177.438 21.534C177.438 19.7906 177.067 18.4842 176.33 17.6014C175.593 16.7187 174.393 16.2773 172.742 16.2773C171.091 16.2773 169.895 16.7187 169.149 17.6014ZM183.82 28.3487V14.6928C183.817 14.5527 183.842 14.4134 183.894 14.283C183.946 14.1527 184.023 14.0339 184.12 13.9337C184.215 13.8351 184.329 13.7571 184.455 13.7047C184.581 13.6523 184.717 13.6265 184.853 13.6291H189.346C189.647 13.6346 189.936 13.742 190.167 13.9337C190.411 14.1209 190.593 14.3779 190.688 14.6707L193.959 24.0542L197.229 14.6707C197.324 14.3768 197.508 14.1194 197.754 13.9337C197.984 13.7401 198.275 13.6325 198.575 13.6291H203.09C203.226 13.6267 203.36 13.6525 203.485 13.705C203.609 13.7574 203.721 13.8353 203.814 13.9337C203.912 14.0341 203.988 14.153 204.039 14.2834C204.09 14.4138 204.114 14.553 204.11 14.6928V28.331C204.113 28.4711 204.087 28.6103 204.033 28.7396C203.979 28.8689 203.899 28.9853 203.797 29.0814C203.699 29.1787 203.582 29.2554 203.454 29.307C203.326 29.3586 203.189 29.3839 203.051 29.3815H201.02C200.882 29.3834 200.745 29.3578 200.617 29.3063C200.489 29.2548 200.373 29.1783 200.275 29.0814C200.174 28.9844 200.095 28.8677 200.041 28.7386C199.988 28.6094 199.962 28.4707 199.966 28.331V17.597L196.086 28.3928C195.981 28.673 195.795 28.9156 195.552 29.0902C195.32 29.2762 195.033 29.3788 194.735 29.3815H193.164C192.871 29.3782 192.588 29.2755 192.361 29.0902C192.118 28.9125 191.928 28.6712 191.814 28.3928L187.947 17.597V28.331C187.951 28.4704 187.926 28.609 187.874 28.7382C187.821 28.8673 187.743 28.9842 187.643 29.0814C187.544 29.1781 187.428 29.2545 187.3 29.306C187.172 29.3575 187.035 29.3831 186.897 29.3815H184.888C184.75 29.3835 184.612 29.358 184.483 29.3065C184.355 29.255 184.237 29.1784 184.138 29.0814C184.035 28.9861 183.953 28.8698 183.898 28.7405C183.844 28.6111 183.817 28.4715 183.82 28.331V28.3487ZM205.867 28.3884L208.625 17.928C209.373 15.0827 211.804 13.6556 215.921 13.6468H221.844C221.972 13.6456 222.099 13.6722 222.215 13.7248C222.332 13.7774 222.436 13.8547 222.519 13.9513C222.695 14.1476 222.791 14.4027 222.789 14.6663V28.3884C222.792 28.5235 222.766 28.6578 222.713 28.782C222.66 28.9062 222.58 29.0174 222.48 29.1078C222.284 29.298 222.02 29.4028 221.747 29.3991H219.677C219.54 29.4036 219.404 29.3801 219.276 29.33C219.149 29.2799 219.033 29.2043 218.935 29.1078C218.839 29.0117 218.763 28.8966 218.713 28.7698C218.663 28.6429 218.639 28.5071 218.644 28.3708V25.599H210.863L210.121 28.3752C210.049 28.6726 209.872 28.9341 209.623 29.1123C209.39 29.2967 209.103 29.3977 208.806 29.3991H206.63C206.506 29.4075 206.382 29.3849 206.268 29.3333C206.155 29.2817 206.057 29.2027 205.981 29.1034C205.881 28.9781 205.827 28.8225 205.827 28.6621C205.835 28.5731 205.848 28.4847 205.867 28.3972V28.3884ZM211.693 22.4873H218.644V16.7496H215.524C214.863 16.7343 214.217 16.9446 213.693 17.3458C213.168 17.747 212.796 18.3151 212.637 18.9564L211.693 22.4873ZM225.931 28.3708V14.6884C225.932 14.4125 226.042 14.1482 226.238 13.9531C226.433 13.7581 226.697 13.6479 226.973 13.6468H229.038C229.174 13.6433 229.309 13.6678 229.435 13.7186C229.561 13.7695 229.676 13.8457 229.771 13.9425C229.869 14.0353 229.947 14.1476 230 14.2722C230.052 14.3969 230.078 14.5311 230.076 14.6663V26.2919H234.886V14.6487C234.884 14.513 234.91 14.3783 234.963 14.2536C235.016 14.1288 235.096 14.0167 235.195 13.9248C235.291 13.8289 235.406 13.7532 235.532 13.7024C235.658 13.6516 235.792 13.6267 235.928 13.6291H237.998C238.134 13.6266 238.269 13.6524 238.394 13.7048C238.52 13.7572 238.633 13.8352 238.726 13.9337C238.824 14.0296 238.902 14.1444 238.954 14.271C239.006 14.3977 239.033 14.5337 239.031 14.6707V26.2743H243.851V14.6487C243.848 14.5135 243.874 14.3792 243.926 14.2546C243.979 14.1299 244.057 14.0176 244.155 13.9248C244.25 13.829 244.364 13.7534 244.489 13.7026C244.614 13.6518 244.748 13.6268 244.883 13.6291H246.958C247.094 13.6271 247.23 13.653 247.356 13.7054C247.482 13.7578 247.596 13.8355 247.691 13.9337C247.788 14.0296 247.866 14.1444 247.918 14.271C247.971 14.3977 247.997 14.5337 247.995 14.6707V28.3531C247.994 28.4887 247.967 28.6229 247.915 28.748C247.862 28.8731 247.786 28.9866 247.689 29.0821C247.593 29.1776 247.479 29.2532 247.353 29.3046C247.228 29.3559 247.094 29.3821 246.958 29.3815H226.973C226.837 29.3831 226.702 29.3574 226.576 29.3058C226.45 29.2542 226.336 29.1779 226.24 29.0814C226.141 28.9883 226.062 28.8754 226.008 28.75C225.955 28.6245 225.929 28.4893 225.931 28.3531V28.3708Z" fill="#BBC406"/>
<path d="M59.4082 36.7138V33.1829C59.4067 33.1477 59.4127 33.1127 59.4256 33.08C59.4385 33.0473 59.4581 33.0177 59.4832 32.9931C59.5059 32.9677 59.5338 32.9474 59.5651 32.9337C59.5963 32.92 59.6301 32.9132 59.6642 32.9136H63.301C63.3357 32.9136 63.37 32.9207 63.4019 32.9343C63.4337 32.948 63.4625 32.968 63.4864 32.9931C63.5353 33.044 63.5623 33.1122 63.5614 33.1829V36.7138C63.562 36.7485 63.5552 36.783 63.5415 36.8149C63.5278 36.8469 63.5075 36.8756 63.482 36.8992C63.4576 36.9248 63.4281 36.9451 63.3954 36.9588C63.3628 36.9725 63.3276 36.9792 63.2922 36.9786H62.7714C62.7367 36.9786 62.7024 36.9716 62.6705 36.9579C62.6387 36.9443 62.6099 36.9243 62.586 36.8992C62.5605 36.8756 62.5402 36.8469 62.5265 36.8149C62.5128 36.783 62.506 36.7485 62.5066 36.7138V33.7037H60.4674V36.7138C60.468 36.7485 60.4612 36.783 60.4475 36.8149C60.4338 36.8469 60.4135 36.8756 60.388 36.8992C60.3648 36.9252 60.3362 36.9457 60.3041 36.9595C60.2721 36.9732 60.2375 36.9797 60.2026 36.9786H59.673C59.6376 36.9792 59.6024 36.9725 59.5698 36.9588C59.5371 36.9451 59.5076 36.9248 59.4832 36.8992C59.4582 36.8754 59.4386 36.8465 59.4257 36.8146C59.4128 36.7826 59.4068 36.7482 59.4082 36.7138ZM64.3603 36.7138V33.1829C64.3594 33.1122 64.3864 33.044 64.4353 32.9931C64.4592 32.968 64.488 32.948 64.5199 32.9343C64.5517 32.9207 64.586 32.9136 64.6207 32.9136H66.7569C67.8839 32.9136 68.4488 33.4418 68.4518 34.4981C68.4547 35.5545 67.8898 36.0841 66.7569 36.0871H65.4328V36.7226C65.4346 36.7578 65.4288 36.7929 65.4158 36.8256C65.4029 36.8583 65.3831 36.8879 65.3578 36.9124C65.3339 36.9375 65.3051 36.9575 65.2733 36.9712C65.2414 36.9848 65.2071 36.9919 65.1724 36.9919H64.6472C64.6118 36.9925 64.5766 36.9857 64.544 36.972C64.5113 36.9584 64.4818 36.9381 64.4574 36.9124C64.4319 36.8888 64.4116 36.8601 64.3979 36.8282C64.3842 36.7962 64.3774 36.7618 64.378 36.727L64.3603 36.7138ZM65.4152 35.2661H66.4391C66.6863 35.2823 66.933 35.2272 67.1497 35.1072C67.2402 35.0328 67.3103 34.9367 67.3535 34.8279C67.3967 34.7191 67.4116 34.6011 67.3969 34.4849C67.4117 34.3694 67.3968 34.252 67.3535 34.1438C67.3103 34.0357 67.2401 33.9404 67.1497 33.867C66.9343 33.7433 66.687 33.6865 66.4391 33.7037H65.4152V35.2661ZM69.308 36.5593C68.9371 36.1018 68.7347 35.5307 68.7347 34.9417C68.7347 34.3527 68.9371 33.7816 69.308 33.3241C69.8056 32.9931 70.3898 32.8165 70.9874 32.8165C71.585 32.8165 72.1693 32.9931 72.6668 33.3241C73.0354 33.7827 73.2363 34.3534 73.2363 34.9417C73.2363 35.5301 73.0354 36.1007 72.6668 36.5593C72.1693 36.8903 71.585 37.0669 70.9874 37.0669C70.3898 37.0669 69.8056 36.8903 69.308 36.5593ZM70.0716 33.9111C69.8621 34.2079 69.7622 34.5683 69.7891 34.9307C69.7618 35.2917 69.8617 35.6508 70.0716 35.9458C70.189 36.0668 70.332 36.1601 70.49 36.2189C70.6481 36.2777 70.8172 36.3005 70.9852 36.2857C71.1533 36.3014 71.3227 36.2791 71.4809 36.2202C71.6391 36.1614 71.782 36.0676 71.8988 35.9458C72.1087 35.6508 72.2087 35.2917 72.1813 34.9307C72.2082 34.5683 72.1084 34.2079 71.8988 33.9111C71.7826 33.7885 71.6398 33.6942 71.4814 33.6353C71.3231 33.5764 71.1533 33.5545 70.9852 33.5713C70.8171 33.5552 70.6476 33.5774 70.4894 33.6362C70.3311 33.6951 70.1883 33.7891 70.0716 33.9111ZM73.81 36.7006V33.1696C73.8087 33.1339 73.8147 33.0982 73.8276 33.0648C73.8405 33.0315 73.86 33.001 73.885 32.9754C73.9389 32.9255 74.0102 32.8986 74.0836 32.9004H74.5912C74.6631 32.8998 74.7326 32.9266 74.7854 32.9754C74.811 32.9998 74.8313 33.0293 74.845 33.062C74.8587 33.0947 74.8654 33.1298 74.8648 33.1652V36.012L76.4714 33.1696C76.5175 33.0941 76.5792 33.0294 76.6524 32.9798C76.7118 32.9328 76.7842 32.905 76.8598 32.9004H77.6808C77.7162 32.8998 77.7513 32.9065 77.784 32.9202C77.8167 32.9339 77.8461 32.9542 77.8705 32.9798C77.9195 33.0308 77.9464 33.099 77.9456 33.1696V36.7006C77.9461 36.7357 77.9389 36.7706 77.9244 36.8026C77.9099 36.8347 77.8885 36.8631 77.8617 36.8859C77.8373 36.9116 77.8078 36.9319 77.7752 36.9456C77.7425 36.9592 77.7073 36.966 77.6719 36.9654H77.1599C77.1245 36.966 77.0894 36.9592 77.0567 36.9456C77.024 36.9319 76.9946 36.9116 76.9702 36.8859C76.9446 36.8624 76.9244 36.8336 76.9107 36.8017C76.897 36.7698 76.8902 36.7353 76.8907 36.7006V34.0524L75.4121 36.7006C75.3659 36.7747 75.3042 36.8379 75.2312 36.8859C75.1636 36.9334 75.0841 36.9609 75.0017 36.9654H74.0615C73.992 36.9632 73.9259 36.9346 73.8767 36.8854C73.8275 36.8362 73.7989 36.7701 73.7967 36.7006H73.81ZM78.462 35.8531C78.4583 35.8075 78.4656 35.7617 78.4833 35.7194C78.5009 35.6772 78.5284 35.6398 78.5635 35.6104C78.617 35.5662 78.6839 35.5413 78.7533 35.5398H79.0799C79.1718 35.5432 79.2603 35.5752 79.3331 35.6314C79.4059 35.6876 79.4593 35.7651 79.4859 35.8531C79.5336 35.9575 79.6164 36.0419 79.7199 36.0915C79.8317 36.1541 79.9581 36.186 80.0862 36.1842H80.9689C81.1225 36.1908 81.275 36.1557 81.4103 36.0826C81.4588 36.0412 81.4977 35.9898 81.5243 35.9319C81.551 35.874 81.5648 35.811 81.5648 35.7472C81.5648 35.6834 81.551 35.6205 81.5243 35.5625C81.4977 35.5046 81.4588 35.4532 81.4103 35.4118C81.275 35.3387 81.1225 35.3036 80.9689 35.3102H80.2407C80.2059 35.3114 80.1712 35.3048 80.1392 35.2911C80.1071 35.2774 80.0785 35.2568 80.0553 35.2308C80.0298 35.2072 80.0095 35.1785 79.9958 35.1466C79.9821 35.1146 79.9753 35.0802 79.9759 35.0454V34.8115C79.9768 34.7412 80.0035 34.6736 80.0509 34.6217C80.0729 34.5966 80.1001 34.5766 80.1306 34.5629C80.161 34.5492 80.194 34.5421 80.2274 34.5423H80.8586C81.0295 34.5537 81.2003 34.5186 81.3529 34.4408C81.4014 34.3993 81.4403 34.3479 81.467 34.29C81.4936 34.2321 81.5074 34.1691 81.5074 34.1053C81.5074 34.0416 81.4936 33.9786 81.467 33.9207C81.4403 33.8628 81.4014 33.8113 81.3529 33.7699C81.2003 33.692 81.0295 33.657 80.8586 33.6684H80.1789C80.0515 33.6572 79.9238 33.6845 79.8121 33.7467C79.7004 33.8088 79.6098 33.903 79.5522 34.017C79.5247 34.0958 79.4733 34.164 79.4053 34.2122C79.3373 34.2605 79.256 34.2864 79.1726 34.2863H78.8415C78.8049 34.2902 78.7679 34.2902 78.7312 34.2863C78.6846 34.2633 78.645 34.2282 78.6164 34.1848C78.5745 34.1272 78.5527 34.0574 78.5547 33.9861C78.5573 33.8236 78.6033 33.6646 78.6878 33.5257C78.7724 33.3869 78.8925 33.2731 79.0358 33.1961C79.3453 32.9895 79.7096 32.8803 80.0818 32.8827H80.938C82.0238 32.8827 82.5667 33.2976 82.5667 34.1274C82.5728 34.2843 82.5411 34.4404 82.4743 34.5825C82.4074 34.7246 82.3074 34.8485 82.1827 34.9439C82.3238 35.0278 82.4395 35.1486 82.5172 35.2932C82.595 35.4378 82.6319 35.6008 82.6241 35.7649C82.6408 35.9443 82.6125 36.1252 82.5416 36.2909C82.4706 36.4566 82.3594 36.602 82.218 36.7138C81.8723 36.9289 81.468 37.0308 81.0616 37.0051H79.9891C79.6163 37.0073 79.2516 36.8965 78.9431 36.6873C78.7977 36.606 78.6766 36.4876 78.5921 36.3441C78.5076 36.2006 78.4627 36.0373 78.462 35.8708V35.8531ZM83.1934 33.1564C83.1934 33.085 83.2218 33.0165 83.2723 32.966C83.3228 32.9155 83.3913 32.8872 83.4627 32.8872H85.7357C85.9724 32.8841 86.208 32.9198 86.4331 32.9931C86.6451 33.0656 86.8319 33.1973 86.9715 33.3726C87.1217 33.5599 87.2 33.7948 87.1922 34.0347C87.1905 34.1811 87.1555 34.3252 87.0897 34.4559C87.0239 34.5867 86.9291 34.7008 86.8126 34.7894C86.9856 34.8773 87.1289 35.0142 87.2246 35.1829C87.3204 35.3516 87.3644 35.5448 87.3511 35.7384C87.3547 35.9103 87.3164 36.0805 87.2395 36.2343C87.1626 36.3881 87.0494 36.5208 86.9097 36.6211C86.6036 36.8425 86.2325 36.9558 85.8549 36.9433H83.4627C83.4272 36.9439 83.3921 36.9372 83.3594 36.9235C83.3268 36.9098 83.2973 36.8895 83.2729 36.8639C83.2473 36.8403 83.2271 36.8116 83.2134 36.7796C83.1997 36.7477 83.1929 36.7132 83.1934 36.6785V33.1476V33.1564ZM84.2527 36.1974H85.8504C85.912 36.2016 85.9738 36.1919 86.0311 36.169C86.0884 36.1461 86.1398 36.1105 86.1815 36.065C86.2628 35.9642 86.3038 35.8368 86.2962 35.7075C86.3025 35.5783 86.2617 35.4513 86.1815 35.35C86.1398 35.3044 86.0884 35.2689 86.0311 35.2459C85.9738 35.223 85.912 35.2133 85.8504 35.2176H84.2527V36.2327V36.1974ZM84.2527 34.4319H85.7489C85.8527 34.4359 85.9539 34.3995 86.0314 34.3304C86.1034 34.2496 86.1431 34.1451 86.1431 34.0369C86.1431 33.9287 86.1034 33.8242 86.0314 33.7434C85.9938 33.7078 85.9494 33.6801 85.9009 33.6619C85.8524 33.6437 85.8007 33.6354 85.7489 33.6375H84.2527V34.4672V34.4319ZM88.2647 36.5284C87.8938 36.0709 87.6914 35.4998 87.6914 34.9108C87.6914 34.3218 87.8938 33.7507 88.2647 33.2932C88.7623 32.9622 89.3465 32.7856 89.9441 32.7856C90.5417 32.7856 91.126 32.9622 91.6235 33.2932C91.9944 33.7507 92.1968 34.3218 92.1968 34.9108C92.1968 35.4998 91.9944 36.0709 91.6235 36.5284C91.126 36.8594 90.5417 37.036 89.9441 37.036C89.3465 37.036 88.7623 36.8594 88.2647 36.5284ZM89.0327 33.8802C88.8216 34.1765 88.7202 34.5369 88.7458 34.8998C88.7197 35.2613 88.8213 35.6205 89.0327 35.9149C89.2867 36.1339 89.6109 36.2544 89.9463 36.2544C90.2817 36.2544 90.606 36.1339 90.86 35.9149C91.0698 35.6199 91.1698 35.2608 91.1424 34.8998C91.1693 34.5375 91.0695 34.177 90.86 33.8802C90.606 33.6612 90.2817 33.5407 89.9463 33.5407C89.6109 33.5407 89.2867 33.6612 89.0327 33.8802ZM92.3694 36.6697V36.396C92.3688 36.3606 92.3756 36.3254 92.3893 36.2928C92.4029 36.2601 92.4232 36.2306 92.4489 36.2062C92.473 36.1817 92.5019 36.1624 92.5338 36.1495C92.5657 36.1366 92.5999 36.1304 92.6343 36.1312H92.8505L93.3713 33.9773C93.5479 33.2314 94.157 32.8563 95.1898 32.8563H96.7037C96.7728 32.8565 96.8392 32.8834 96.889 32.9313C96.9141 32.9559 96.9337 32.9855 96.9467 33.0182C96.9596 33.0509 96.9655 33.086 96.9641 33.1211V36.6741C96.9657 36.7086 96.9599 36.743 96.9469 36.775C96.934 36.807 96.9142 36.8358 96.889 36.8595C96.8392 36.9073 96.7728 36.9342 96.7037 36.9345H92.6343C92.5647 36.9323 92.4986 36.9037 92.4495 36.8545C92.4003 36.8053 92.3716 36.7392 92.3694 36.6697ZM93.9363 36.1312H95.9092V33.6595H95.0794C94.9189 33.654 94.7619 33.7074 94.6381 33.8096C94.5167 33.9192 94.4333 34.0645 94.3997 34.2245L93.9319 36.1312H93.9363ZM98.0542 36.4534C97.7176 36.0037 97.5356 35.4571 97.5356 34.8954C97.5356 34.3336 97.7176 33.787 98.0542 33.3373C98.4932 32.9728 99.0564 32.7924 99.6255 32.8342H100.252C100.656 32.8265 101.052 32.9436 101.387 33.1696C101.54 33.2676 101.666 33.4035 101.752 33.5643C101.838 33.7252 101.881 33.9054 101.876 34.0877C101.881 34.1334 101.875 34.1796 101.857 34.222C101.839 34.2645 101.811 34.3017 101.775 34.3304C101.719 34.3741 101.651 34.3988 101.581 34.401H101.236C101.143 34.3994 101.053 34.3682 100.978 34.3119C100.903 34.2556 100.849 34.1771 100.822 34.0877C100.767 33.9518 100.671 33.8362 100.548 33.7572C100.424 33.6781 100.279 33.6393 100.133 33.6463H99.6343C99.4848 33.6285 99.3332 33.6434 99.1899 33.6899C99.0467 33.7363 98.9152 33.8133 98.8046 33.9155C98.6622 34.2257 98.5885 34.5629 98.5885 34.9042C98.5885 35.2455 98.6622 35.5827 98.8046 35.8929C98.9147 35.9958 99.0461 36.0733 99.1895 36.1198C99.3329 36.1663 99.4847 36.1808 99.6343 36.1621H100.19C100.337 36.169 100.482 36.1303 100.605 36.0512C100.728 35.9721 100.824 35.8566 100.879 35.7207C100.905 35.6334 100.958 35.5564 101.03 35.5002C101.102 35.4441 101.19 35.4117 101.281 35.4074H101.612C101.649 35.4087 101.687 35.4161 101.722 35.4294C101.769 35.4517 101.81 35.485 101.841 35.5265C101.881 35.5833 101.901 35.6515 101.899 35.7207C101.903 35.9025 101.861 36.0825 101.776 36.2433C101.691 36.4041 101.566 36.5403 101.413 36.6388C101.083 36.8645 100.691 36.9818 100.292 36.9742H99.6078C99.0426 37.0171 98.4832 36.8365 98.0498 36.471L98.0542 36.4534ZM102.102 33.3947V33.1255C102.101 33.0536 102.128 32.9841 102.177 32.9313C102.229 32.8817 102.299 32.8547 102.371 32.8563H105.902C105.937 32.8556 105.972 32.8619 106.004 32.8747C106.037 32.8876 106.066 32.9068 106.092 32.9313C106.14 32.9841 106.167 33.0536 106.167 33.1255V33.3947C106.167 33.4297 106.161 33.4645 106.148 33.4971C106.135 33.5297 106.116 33.5594 106.092 33.5845C106.067 33.6098 106.037 33.6296 106.005 33.6425C105.972 33.6555 105.937 33.6613 105.902 33.6595H104.653V36.6741C104.653 36.7085 104.647 36.7427 104.634 36.7745C104.621 36.8064 104.602 36.8353 104.578 36.8595C104.528 36.9073 104.461 36.9342 104.392 36.9345H103.863C103.828 36.9353 103.794 36.9291 103.762 36.9162C103.73 36.9033 103.701 36.884 103.677 36.8595C103.651 36.8362 103.631 36.8076 103.617 36.7756C103.603 36.7435 103.597 36.7089 103.598 36.6741V33.6595H102.353C102.317 33.6613 102.282 33.6556 102.248 33.6427C102.215 33.6297 102.184 33.6099 102.159 33.5845C102.135 33.5594 102.115 33.5297 102.102 33.4971C102.09 33.4645 102.083 33.4297 102.084 33.3947H102.102ZM106.643 33.1255C106.642 33.0904 106.648 33.0553 106.661 33.0226C106.674 32.99 106.693 32.9603 106.718 32.9357C106.743 32.91 106.772 32.8897 106.805 32.8761C106.837 32.8624 106.873 32.8556 106.908 32.8563H109.181C109.418 32.8532 109.653 32.8889 109.878 32.9622C110.09 33.0347 110.277 33.1664 110.417 33.3418C110.567 33.5291 110.645 33.7639 110.638 34.0038C110.636 34.1502 110.601 34.2943 110.535 34.4251C110.469 34.5558 110.375 34.6699 110.258 34.7585C110.431 34.846 110.575 34.9827 110.671 35.1516C110.767 35.3204 110.81 35.5138 110.796 35.7075C110.8 35.8794 110.762 36.0496 110.685 36.2034C110.608 36.3572 110.495 36.4899 110.355 36.5902C110.049 36.8116 109.678 36.925 109.3 36.9124H106.895C106.859 36.913 106.824 36.9063 106.792 36.8926C106.759 36.8789 106.729 36.8586 106.705 36.833C106.68 36.8092 106.66 36.7803 106.648 36.7484C106.635 36.7164 106.629 36.682 106.63 36.6476V33.1167L106.643 33.1255ZM107.694 36.2327H109.291C109.353 36.2369 109.415 36.2272 109.472 36.2043C109.529 36.1814 109.581 36.1458 109.622 36.1003C109.704 35.9995 109.745 35.8721 109.737 35.7428C109.743 35.6137 109.703 35.4866 109.622 35.3853C109.581 35.3397 109.529 35.3042 109.472 35.2813C109.415 35.2583 109.353 35.2486 109.291 35.2529H107.694V36.2327ZM107.694 34.4672H109.19C109.294 34.4712 109.395 34.4348 109.472 34.3657C109.544 34.2849 109.584 34.1804 109.584 34.0722C109.584 33.964 109.544 33.8595 109.472 33.7787C109.435 33.7431 109.39 33.7154 109.342 33.6972C109.293 33.679 109.242 33.6707 109.19 33.6728H107.694V34.4672ZM111.706 36.5637C111.335 36.1062 111.132 35.5351 111.132 34.9461C111.132 34.3571 111.335 33.786 111.706 33.3285C112.204 32.9977 112.789 32.8213 113.387 32.8213C113.986 32.8213 114.57 32.9977 115.069 33.3285C115.438 33.7871 115.638 34.3578 115.638 34.9461C115.638 35.5345 115.438 36.1052 115.069 36.5637C114.57 36.8945 113.986 37.071 113.387 37.071C112.789 37.071 112.204 36.8945 111.706 36.5637ZM112.474 33.9155C112.264 34.2124 112.164 34.5728 112.191 34.9351C112.164 35.2961 112.264 35.6552 112.474 35.9502C112.728 36.1692 113.052 36.2897 113.387 36.2897C113.723 36.2897 114.047 36.1692 114.301 35.9502C114.511 35.6552 114.611 35.2961 114.583 34.9351C114.61 34.5728 114.51 34.2124 114.301 33.9155C114.047 33.6965 113.723 33.576 113.387 33.576C113.052 33.576 112.728 33.6965 112.474 33.9155ZM118.211 36.705V33.174C118.211 33.138 118.217 33.1021 118.231 33.0687C118.245 33.0353 118.265 33.0051 118.291 32.9798C118.345 32.9299 118.416 32.903 118.49 32.9048H118.997C119.069 32.905 119.138 32.9318 119.191 32.9798C119.241 33.0304 119.27 33.0984 119.271 33.1696V36.0164L120.877 33.174C120.923 33.0986 120.985 33.0338 121.058 32.9843C121.118 32.9372 121.19 32.9095 121.266 32.9048H122.1C122.135 32.9037 122.169 32.9102 122.201 32.9239C122.233 32.9377 122.262 32.9583 122.285 32.9843C122.311 33.0087 122.331 33.0381 122.345 33.0708C122.359 33.1035 122.365 33.1386 122.365 33.174V36.705C122.365 36.7401 122.358 36.775 122.344 36.8071C122.329 36.8391 122.308 36.8675 122.281 36.8903C122.256 36.9161 122.225 36.9365 122.192 36.9501C122.159 36.9638 122.123 36.9705 122.087 36.9698H121.579C121.544 36.9704 121.509 36.9636 121.476 36.95C121.443 36.9363 121.414 36.916 121.389 36.8903C121.364 36.8668 121.343 36.8381 121.33 36.8061C121.316 36.7742 121.309 36.7397 121.31 36.705V34.0568L119.831 36.705C119.785 36.7802 119.721 36.8437 119.646 36.8903C119.581 36.9393 119.502 36.967 119.421 36.9698H118.481C118.445 36.9699 118.41 36.9629 118.378 36.9493C118.345 36.9356 118.316 36.9156 118.291 36.8903C118.265 36.8668 118.245 36.8381 118.231 36.8061C118.218 36.7742 118.211 36.7397 118.211 36.705ZM125.476 36.5505C125.102 36.0944 124.898 35.5227 124.898 34.9329C124.898 34.343 125.102 33.7714 125.476 33.3153C125.974 32.9843 126.558 32.8077 127.156 32.8077C127.753 32.8077 128.338 32.9843 128.835 33.3153C129.204 33.7738 129.405 34.3445 129.405 34.9329C129.405 35.5212 129.204 36.0919 128.835 36.5505C128.338 36.8815 127.753 37.058 127.156 37.058C126.558 37.058 125.974 36.8815 125.476 36.5505ZM126.24 33.9023C126.03 34.1991 125.931 34.5595 125.957 34.9218C125.93 35.2828 126.03 35.642 126.24 35.937C126.494 36.156 126.818 36.2765 127.154 36.2765C127.489 36.2765 127.813 36.156 128.067 35.937C128.277 35.642 128.377 35.2828 128.35 34.9218C128.377 34.5595 128.277 34.1991 128.067 33.9023C127.813 33.6833 127.489 33.5628 127.154 33.5628C126.818 33.5628 126.494 33.6833 126.24 33.9023ZM129.974 36.6961V33.1652C129.973 33.1291 129.98 33.0933 129.994 33.0599C130.007 33.0265 130.028 32.9962 130.053 32.971C130.078 32.9461 130.108 32.9267 130.14 32.9138C130.173 32.9008 130.208 32.8948 130.243 32.896H133.394C133.429 32.896 133.463 32.903 133.495 32.9167C133.527 32.9303 133.556 32.9503 133.58 32.9754C133.629 33.0264 133.656 33.0945 133.655 33.1652V33.4344C133.656 33.5051 133.629 33.5733 133.58 33.6242C133.556 33.6482 133.528 33.6672 133.497 33.6801C133.466 33.693 133.433 33.6995 133.399 33.6993H131.033V34.3878H132.41C132.804 34.3679 133.194 34.4831 133.514 34.7144C133.646 34.8383 133.751 34.988 133.823 35.1542C133.896 35.3205 133.933 35.4998 133.933 35.681C133.933 35.8622 133.896 36.0415 133.823 36.2078C133.751 36.374 133.646 36.5237 133.514 36.6476C133.194 36.8788 132.804 36.9941 132.41 36.9742H130.225C130.192 36.9749 130.158 36.9687 130.127 36.9557C130.096 36.9428 130.068 36.9236 130.045 36.8992C130.02 36.875 130.001 36.8461 129.988 36.8143C129.975 36.7824 129.969 36.7482 129.969 36.7138L129.974 36.6961ZM131.033 36.1533H132.41C132.724 36.1533 132.878 35.9899 132.878 35.6633C132.878 35.3367 132.724 35.1734 132.41 35.1734H131.029V36.1533H131.033ZM134.794 36.4755C134.456 36.0264 134.273 35.4795 134.273 34.9174C134.273 34.3553 134.456 33.8085 134.794 33.3594C135.239 32.9954 135.81 32.8224 136.383 32.8783H137.014C137.416 32.8707 137.811 32.9879 138.144 33.2138C138.298 33.3112 138.425 33.4469 138.512 33.6077C138.598 33.7686 138.642 33.9491 138.638 34.1318C138.642 34.1774 138.634 34.2233 138.617 34.2655C138.599 34.3077 138.571 34.3451 138.536 34.3746C138.479 34.4185 138.41 34.4433 138.338 34.4452H137.994C137.901 34.4404 137.812 34.408 137.738 34.3521C137.664 34.2963 137.609 34.2195 137.579 34.1318C137.524 33.9966 137.429 33.8816 137.307 33.8026C137.184 33.7236 137.04 33.6844 136.895 33.6904H136.383C136.232 33.6729 136.08 33.6878 135.936 33.7343C135.792 33.7808 135.66 33.8576 135.548 33.9597C135.406 34.2698 135.332 34.6071 135.332 34.9483C135.332 35.2896 135.406 35.6268 135.548 35.937C135.659 36.04 135.791 36.1175 135.936 36.1641C136.08 36.2106 136.232 36.225 136.383 36.2062H136.939C137.084 36.2129 137.229 36.174 137.351 36.0949C137.474 36.0158 137.569 35.9004 137.623 35.7649C137.649 35.6768 137.703 35.5993 137.776 35.5431C137.848 35.487 137.937 35.4549 138.029 35.4515H138.36C138.396 35.4529 138.432 35.4604 138.466 35.4736C138.513 35.4947 138.555 35.5282 138.585 35.5707C138.626 35.6268 138.648 35.6951 138.647 35.7649C138.649 35.9466 138.605 36.1259 138.517 36.2853C138.43 36.4447 138.303 36.5786 138.148 36.6741C137.819 36.9004 137.426 37.0177 137.027 37.0095H136.343C135.778 37.052 135.218 36.8713 134.785 36.5063L134.794 36.4755ZM138.859 36.7182L139.569 33.9861C139.758 33.2505 140.375 32.8813 141.423 32.8783H142.822C142.855 32.8781 142.887 32.8856 142.916 32.9002C142.945 32.9148 142.97 32.936 142.99 32.9622C143.033 33.014 143.057 33.0798 143.056 33.1476V36.6785C143.057 36.7129 143.051 36.7473 143.038 36.7793C143.026 36.8112 143.006 36.8401 142.981 36.8639C142.959 36.8897 142.931 36.9103 142.899 36.9241C142.868 36.9378 142.834 36.9444 142.8 36.9433H142.266C142.231 36.9444 142.196 36.9379 142.164 36.9242C142.132 36.9104 142.104 36.8898 142.081 36.8639C142.055 36.8403 142.035 36.8116 142.021 36.7796C142.007 36.7477 142.001 36.7132 142.001 36.6785V33.6684H141.326C141.157 33.6668 140.992 33.7227 140.859 33.827C140.726 33.9312 140.632 34.0776 140.593 34.2421L139.953 36.6785C139.934 36.7548 139.889 36.822 139.825 36.8683C139.766 36.9148 139.693 36.9411 139.618 36.9433H139.031C139.001 36.9455 138.972 36.9397 138.945 36.9265C138.919 36.9133 138.897 36.8932 138.881 36.8683C138.855 36.8375 138.84 36.7983 138.841 36.7579C138.839 36.7403 138.839 36.7226 138.841 36.705L138.859 36.7182ZM143.537 33.1476C143.524 33.1153 143.516 33.0809 143.515 33.046C143.516 33.0153 143.523 32.9851 143.537 32.9578C143.553 32.9317 143.576 32.9105 143.603 32.8965C143.63 32.8825 143.661 32.8762 143.692 32.8783H144.283C144.365 32.8746 144.446 32.8982 144.513 32.9453C144.58 32.9924 144.629 33.0604 144.654 33.1387L144.976 33.9288C145.05 34.128 145.175 34.3045 145.338 34.4408C145.501 34.5597 145.701 34.6189 145.903 34.6085H146.247L146.755 33.1431C146.777 33.065 146.826 32.9967 146.891 32.9489C146.952 32.9028 147.027 32.878 147.103 32.8783H147.668C147.7 32.8764 147.731 32.8822 147.759 32.8953C147.788 32.9084 147.813 32.9283 147.832 32.9534C147.853 32.9845 147.864 33.0216 147.862 33.0593C147.866 33.0856 147.866 33.1124 147.862 33.1387L146.949 35.7869C146.849 36.1314 146.649 36.4386 146.375 36.6697C146.061 36.8864 145.684 36.992 145.303 36.9698H144.632C144.597 36.9712 144.562 36.9653 144.529 36.9524C144.496 36.9395 144.467 36.9198 144.442 36.8948C144.417 36.8729 144.396 36.8458 144.383 36.8153C144.369 36.7848 144.362 36.7516 144.362 36.7182V36.4181C144.362 36.3851 144.368 36.3523 144.381 36.3219C144.394 36.2915 144.413 36.2642 144.437 36.2415C144.463 36.2161 144.493 36.1963 144.527 36.1834C144.56 36.1705 144.596 36.1647 144.632 36.1665H145.25C145.62 36.1665 145.872 35.9193 146.009 35.4294H145.77C145.381 35.4523 144.994 35.3502 144.667 35.1381C144.363 34.8843 144.13 34.5558 143.992 34.1848L143.55 33.1608L143.537 33.1476ZM147.951 36.8815C147.949 36.8654 147.949 36.8491 147.951 36.833C147.952 36.782 147.969 36.7327 147.999 36.6917L148.697 35.5574C148.796 35.3988 148.911 35.2509 149.041 35.116C149.142 35.0029 149.274 34.9216 149.421 34.8821C149.256 34.8485 149.103 34.7707 148.979 34.657C148.86 34.5377 148.76 34.4008 148.683 34.251L148.079 33.1343C148.049 33.0883 148.032 33.0348 148.03 32.9798C148.028 32.9667 148.028 32.9533 148.03 32.9401C148.03 32.8871 148.088 32.8607 148.158 32.8607H148.807C148.893 32.862 148.977 32.8886 149.049 32.9372C149.12 32.9859 149.176 33.0544 149.209 33.1343L149.65 33.9199C149.736 34.09 149.856 34.2404 150.003 34.3613C150.131 34.4548 150.286 34.503 150.444 34.4981H150.572V33.1387C150.572 33.1027 150.579 33.067 150.593 33.0337C150.606 33.0004 150.627 32.9701 150.652 32.9445C150.675 32.9185 150.704 32.898 150.736 32.8842C150.768 32.8705 150.802 32.864 150.837 32.8651H151.363C151.398 32.8645 151.433 32.8712 151.466 32.8849C151.498 32.8986 151.528 32.9189 151.552 32.9445C151.6 32.9978 151.627 33.067 151.627 33.1387V34.4981H151.755C151.913 34.5029 152.068 34.4565 152.197 34.3657C152.343 34.2453 152.462 34.0947 152.545 33.9244L152.987 33.1387C153.02 33.0588 153.075 32.9903 153.147 32.9416C153.218 32.893 153.302 32.8664 153.388 32.8651H154.037C154.108 32.8651 154.152 32.8916 154.165 32.9445C154.167 32.9577 154.167 32.9711 154.165 32.9843C154.163 33.0385 154.148 33.0914 154.121 33.1387L153.512 34.2554C153.435 34.4052 153.335 34.5421 153.216 34.6614C153.092 34.7751 152.94 34.8529 152.775 34.8865C152.921 34.926 153.053 35.0073 153.154 35.1205C153.283 35.2562 153.398 35.404 153.499 35.5618L154.196 36.6917C154.223 36.7358 154.24 36.7857 154.245 36.8374C154.249 36.8533 154.249 36.87 154.245 36.8859C154.245 36.9345 154.183 36.961 154.108 36.961H153.463C153.379 36.9573 153.298 36.9297 153.23 36.8815C153.152 36.8351 153.085 36.7717 153.035 36.6961L152.541 35.9017C152.45 35.7351 152.33 35.5857 152.188 35.4603C152.064 35.3593 151.907 35.3075 151.747 35.3147H151.619V36.6961C151.619 36.7305 151.613 36.7647 151.6 36.7966C151.587 36.8285 151.568 36.8574 151.543 36.8815C151.493 36.9305 151.424 36.9574 151.354 36.9566H150.815C150.781 36.9574 150.747 36.9511 150.715 36.9382C150.683 36.9253 150.654 36.906 150.63 36.8815C150.604 36.8583 150.583 36.8297 150.57 36.7976C150.556 36.7656 150.549 36.731 150.55 36.6961V35.35H150.422C150.262 35.3428 150.105 35.3946 149.981 35.4956C149.838 35.6219 149.717 35.7711 149.624 35.937L149.134 36.7315C149.084 36.807 149.017 36.8704 148.939 36.9168C148.871 36.965 148.789 36.9926 148.705 36.9963H148.061C147.986 36.9963 147.942 36.9698 147.924 36.9212L147.951 36.8815ZM154.642 36.6917V33.1608C154.641 33.1249 154.648 33.0892 154.662 33.056C154.675 33.0228 154.695 32.9926 154.721 32.9675C154.747 32.9423 154.777 32.9226 154.81 32.9095C154.844 32.8965 154.88 32.8904 154.916 32.8916H155.423C155.495 32.8909 155.564 32.9178 155.617 32.9666C155.643 32.991 155.663 33.0205 155.677 33.0531C155.691 33.0858 155.697 33.121 155.697 33.1564V36.0032L157.308 33.1608C157.352 33.0854 157.412 33.0206 157.484 32.971C157.545 32.9233 157.619 32.8956 157.696 32.8916H158.53C158.565 32.8916 158.599 32.8986 158.631 32.9123C158.663 32.9259 158.692 32.9459 158.716 32.971C158.765 33.022 158.792 33.0901 158.791 33.1608V36.6917C158.791 36.7265 158.784 36.7609 158.771 36.7929C158.757 36.8248 158.737 36.8535 158.711 36.8771C158.686 36.9029 158.656 36.9232 158.622 36.9369C158.589 36.9505 158.553 36.9572 158.517 36.9566H158.009C157.973 36.9572 157.938 36.9505 157.904 36.9369C157.871 36.9232 157.841 36.9029 157.815 36.8771C157.79 36.8535 157.769 36.8248 157.756 36.7929C157.742 36.7609 157.735 36.7265 157.736 36.6917V34.0435L156.257 36.6917C156.214 36.7679 156.151 36.8317 156.076 36.8771C156.01 36.9261 155.93 36.9538 155.847 36.9566H154.92C154.885 36.9572 154.849 36.9504 154.817 36.9367C154.784 36.923 154.755 36.9027 154.73 36.8771C154.705 36.8535 154.684 36.8248 154.671 36.7929C154.657 36.7609 154.65 36.7265 154.651 36.6917H154.642ZM159.554 33.1608C159.554 33.1254 159.56 33.0902 159.574 33.0576C159.588 33.0249 159.608 32.9954 159.634 32.971C159.657 32.9455 159.686 32.9252 159.718 32.9115C159.75 32.8978 159.784 32.891 159.819 32.8916H162.092C162.33 32.8888 162.567 32.9246 162.794 32.9975C163.005 33.0701 163.19 33.2019 163.328 33.3771C163.48 33.5634 163.558 33.7989 163.549 34.0391C163.548 34.1852 163.514 34.3291 163.449 34.46C163.384 34.5908 163.289 34.705 163.173 34.7938C163.346 34.8824 163.488 35.0195 163.583 35.1882C163.678 35.3568 163.721 35.5497 163.708 35.7428C163.711 35.9147 163.673 36.0849 163.596 36.2387C163.519 36.3925 163.406 36.5253 163.266 36.6255C162.96 36.8475 162.589 36.9609 162.211 36.9477H159.806C159.736 36.9455 159.67 36.9169 159.621 36.8677C159.572 36.8185 159.543 36.7524 159.541 36.6829V33.152L159.554 33.1608ZM160.609 36.2018H162.207C162.269 36.2046 162.331 36.1942 162.389 36.1714C162.447 36.1486 162.499 36.1138 162.542 36.0694C162.616 35.9647 162.655 35.8398 162.655 35.7119C162.655 35.5839 162.616 35.4591 162.542 35.3544C162.501 35.3088 162.449 35.2733 162.392 35.2504C162.335 35.2274 162.273 35.2177 162.211 35.222H160.614V36.2327L160.609 36.2018ZM160.609 34.4363H162.105C162.183 34.431 162.257 34.4042 162.32 34.3589C162.382 34.3135 162.431 34.2516 162.461 34.1799C162.49 34.1083 162.499 34.0298 162.486 33.9535C162.473 33.8771 162.439 33.8059 162.388 33.7478C162.351 33.7118 162.306 33.6838 162.258 33.6656C162.209 33.6474 162.157 33.6393 162.105 33.6419H160.609V34.4672V34.4363ZM163.95 36.6917L164.63 34.0259C164.818 33.2903 165.438 32.921 166.488 32.918H167.998C168.03 32.918 168.063 32.925 168.092 32.9388C168.122 32.9525 168.149 32.9725 168.17 32.9975C168.213 33.0493 168.237 33.1151 168.236 33.1829V36.7359C168.237 36.7707 168.231 36.8053 168.217 36.8374C168.203 36.8694 168.183 36.898 168.157 36.9212C168.132 36.9457 168.103 36.9651 168.072 36.978C168.04 36.9909 168.006 36.9971 167.971 36.9963H167.455C167.42 36.9974 167.385 36.9914 167.352 36.9785C167.319 36.9656 167.29 36.9461 167.265 36.9212C167.241 36.8961 167.221 36.8664 167.208 36.8339C167.196 36.8013 167.189 36.7665 167.19 36.7315V36.012H165.208L165.018 36.7315C165.003 36.8081 164.959 36.8759 164.895 36.9212C164.834 36.9687 164.76 36.995 164.683 36.9963H164.131C164.099 36.9978 164.068 36.9919 164.038 36.9788C164.009 36.9658 163.984 36.946 163.964 36.9212C163.937 36.887 163.923 36.8451 163.924 36.8021C163.924 36.8021 163.924 36.7624 163.924 36.7359L163.95 36.6917ZM165.433 35.1646H167.199V33.6772H166.395C166.226 33.6744 166.06 33.7305 165.928 33.8361C165.795 33.9409 165.7 34.0868 165.658 34.251L165.42 35.1646H165.433ZM169.061 36.6873V33.1564C169.06 33.1213 169.066 33.0862 169.079 33.0535C169.092 33.0208 169.111 32.9912 169.136 32.9666C169.162 32.9408 169.192 32.9205 169.225 32.9068C169.259 32.8932 169.294 32.8865 169.331 32.8872H169.851C169.886 32.886 169.921 32.8926 169.953 32.9063C169.985 32.92 170.014 32.9406 170.037 32.9666C170.062 32.991 170.083 33.0205 170.096 33.0531C170.11 33.0858 170.117 33.121 170.116 33.1564V34.4672H172.041V33.1873C172.04 33.1166 172.067 33.0485 172.116 32.9975C172.14 32.9718 172.169 32.9515 172.202 32.9379C172.235 32.9242 172.27 32.9174 172.305 32.918H172.826C172.862 32.9172 172.897 32.9238 172.93 32.9375C172.962 32.9512 172.992 32.9716 173.016 32.9975C173.042 33.0219 173.062 33.0514 173.076 33.084C173.089 33.1167 173.096 33.1519 173.095 33.1873V36.7182C173.096 36.753 173.089 36.7874 173.075 36.8194C173.062 36.8513 173.041 36.88 173.016 36.9036C172.992 36.9292 172.962 36.9495 172.929 36.9632C172.897 36.9769 172.862 36.9836 172.826 36.983H172.305C172.235 36.9839 172.167 36.9569 172.116 36.908C172.091 36.8839 172.072 36.855 172.059 36.8231C172.046 36.7912 172.04 36.757 172.041 36.7226V35.2617H170.103V36.7226C170.104 36.7574 170.098 36.7921 170.084 36.8241C170.07 36.8561 170.049 36.8848 170.024 36.908C169.999 36.9325 169.97 36.9518 169.939 36.9647C169.907 36.9776 169.873 36.9839 169.838 36.983H169.317C169.282 36.9831 169.247 36.9761 169.214 36.9625C169.182 36.9488 169.152 36.9288 169.128 36.9036C169.102 36.88 169.082 36.8513 169.068 36.8194C169.054 36.7874 169.048 36.753 169.048 36.7182L169.061 36.6873ZM173.894 36.6873V33.1564C173.894 33.1203 173.9 33.0845 173.914 33.0511C173.928 33.0177 173.948 32.9874 173.974 32.9622C174.028 32.9123 174.099 32.8854 174.172 32.8872H174.68C174.751 32.8863 174.819 32.9132 174.87 32.9622C174.895 32.9866 174.916 33.0161 174.929 33.0487C174.943 33.0814 174.95 33.1166 174.949 33.152V35.9988L176.56 33.1564C176.604 33.081 176.665 33.0162 176.737 32.9666C176.798 32.9194 176.872 32.8918 176.949 32.8872H177.783C177.818 32.886 177.852 32.8926 177.884 32.9063C177.916 32.92 177.945 32.9406 177.968 32.9666C177.994 32.991 178.014 33.0205 178.028 33.0531C178.041 33.0858 178.048 33.121 178.048 33.1564V36.6873C178.047 36.7223 178.04 36.7569 178.025 36.7889C178.011 36.8208 177.99 36.8493 177.964 36.8727C177.938 36.8985 177.908 36.9188 177.875 36.9325C177.841 36.9461 177.806 36.9528 177.769 36.9521H177.262C177.226 36.9528 177.19 36.9461 177.157 36.9325C177.123 36.9188 177.093 36.8985 177.068 36.8727C177.042 36.8491 177.022 36.8204 177.008 36.7885C176.995 36.7565 176.988 36.7221 176.988 36.6873V34.0391L175.514 36.6873C175.467 36.7626 175.404 36.826 175.329 36.8727C175.262 36.9217 175.182 36.9494 175.099 36.9521H174.164C174.128 36.9527 174.093 36.946 174.06 36.9323C174.028 36.9186 173.998 36.8983 173.974 36.8727C173.948 36.8491 173.928 36.8204 173.914 36.7885C173.901 36.7565 173.894 36.7221 173.894 36.6873ZM178.807 36.6873V33.1564C178.806 33.121 178.813 33.0858 178.827 33.0531C178.84 33.0205 178.86 32.991 178.886 32.9666C178.936 32.9187 179.002 32.8918 179.072 32.8916H182.285C182.319 32.8904 182.354 32.897 182.386 32.9107C182.418 32.9244 182.447 32.945 182.47 32.971C182.496 32.9954 182.516 33.0249 182.53 33.0576C182.543 33.0902 182.55 33.1254 182.549 33.1608V33.43C182.55 33.4654 182.543 33.5006 182.53 33.5333C182.516 33.5659 182.496 33.5954 182.47 33.6198C182.446 33.6443 182.417 33.6636 182.385 33.6765C182.353 33.6894 182.319 33.6957 182.285 33.6948H179.848V34.5202H181.949C181.984 34.5202 182.018 34.5272 182.05 34.5409C182.082 34.5546 182.111 34.5745 182.135 34.5996C182.184 34.6506 182.21 34.7188 182.21 34.7894V35.0587C182.21 35.1293 182.184 35.1975 182.135 35.2485C182.111 35.2736 182.082 35.2935 182.05 35.3072C182.018 35.3209 181.984 35.3279 181.949 35.3279H179.848V36.1665H182.285C182.318 36.1658 182.352 36.172 182.383 36.185C182.414 36.1979 182.442 36.2171 182.466 36.2415C182.491 36.2662 182.51 36.2958 182.523 36.3285C182.536 36.3612 182.542 36.3962 182.541 36.4313V36.705C182.541 36.7393 182.535 36.7733 182.522 36.8051C182.509 36.837 182.49 36.8659 182.466 36.8903C182.441 36.916 182.412 36.9363 182.379 36.95C182.346 36.9636 182.311 36.9704 182.276 36.9698H179.063C179.027 36.9692 178.992 36.9617 178.96 36.9476C178.928 36.9335 178.898 36.9132 178.874 36.8878C178.849 36.8624 178.83 36.8324 178.817 36.7995C178.804 36.7666 178.797 36.7315 178.798 36.6961L178.807 36.6873ZM185.374 36.4975C185.035 36.049 184.851 35.502 184.851 34.9395C184.851 34.3771 185.035 33.83 185.374 33.3815C185.811 33.0151 186.373 32.8344 186.941 32.8783H187.581C187.983 32.8701 188.378 32.9873 188.711 33.2138C188.866 33.3105 188.993 33.4461 189.08 33.6071C189.167 33.7681 189.21 33.949 189.205 34.1318C189.209 34.1774 189.202 34.2233 189.184 34.2655C189.166 34.3077 189.139 34.3451 189.104 34.3746C189.047 34.4191 188.977 34.4439 188.905 34.4452H188.561C188.468 34.4427 188.379 34.411 188.305 34.3548C188.231 34.2985 188.177 34.2205 188.15 34.1318C188.095 33.9963 187.999 33.8811 187.876 33.8021C187.753 33.7231 187.608 33.6841 187.462 33.6904H186.963C186.814 33.6727 186.662 33.6875 186.519 33.734C186.375 33.7805 186.244 33.8575 186.133 33.9597C185.988 34.269 185.913 34.6066 185.913 34.9483C185.913 35.2901 185.988 35.6276 186.133 35.937C186.244 36.0399 186.375 36.1174 186.518 36.1639C186.662 36.2105 186.814 36.2249 186.963 36.2062H187.519C187.666 36.2132 187.811 36.1744 187.934 36.0954C188.057 36.0163 188.153 35.9008 188.208 35.7649C188.234 35.6775 188.287 35.6005 188.359 35.5444C188.431 35.4883 188.518 35.4558 188.609 35.4515H188.905C188.943 35.4528 188.98 35.4603 189.016 35.4736C189.061 35.4961 189.1 35.5295 189.13 35.5707C189.172 35.6268 189.193 35.6951 189.192 35.7649C189.197 35.9467 189.155 36.1267 189.07 36.2875C188.984 36.4482 188.859 36.5844 188.707 36.6829C188.375 36.9087 187.982 37.0259 187.581 37.0183H186.901C186.344 37.0492 185.797 36.8624 185.374 36.4975ZM189.788 36.705V33.174C189.787 33.1386 189.794 33.1035 189.808 33.0708C189.821 33.0381 189.842 33.0087 189.867 32.9843C189.891 32.9597 189.92 32.9404 189.952 32.9275C189.984 32.9146 190.018 32.9084 190.053 32.9092H193.279C193.314 32.9098 193.348 32.9172 193.38 32.931C193.412 32.9449 193.441 32.9649 193.465 32.9899C193.489 33.0149 193.508 33.0444 193.521 33.0768C193.534 33.1091 193.54 33.1437 193.54 33.1784V33.4477C193.541 33.4828 193.535 33.5178 193.522 33.5505C193.509 33.5832 193.49 33.6128 193.464 33.6375C193.415 33.6853 193.348 33.7122 193.279 33.7125H190.803V34.5379H192.9C192.934 34.5367 192.969 34.5433 193.001 34.557C193.033 34.5707 193.062 34.5913 193.085 34.6173C193.111 34.6417 193.131 34.6712 193.145 34.7039C193.158 34.7365 193.165 34.7717 193.164 34.8071V35.0763C193.165 35.1117 193.158 35.1469 193.145 35.1796C193.131 35.2122 193.111 35.2417 193.085 35.2661C193.062 35.2921 193.033 35.3127 193.001 35.3264C192.969 35.3401 192.934 35.3467 192.9 35.3456H190.803V36.1842H193.235C193.269 36.1839 193.302 36.1904 193.333 36.2033C193.364 36.2162 193.392 36.2352 193.416 36.2592C193.465 36.3101 193.492 36.3783 193.491 36.449V36.7226C193.492 36.7574 193.485 36.7918 193.471 36.8238C193.457 36.8557 193.437 36.8844 193.412 36.908C193.388 36.9331 193.359 36.9531 193.327 36.9667C193.295 36.9804 193.261 36.9874 193.226 36.9874H190.013C189.978 36.9886 189.944 36.982 189.911 36.9683C189.879 36.9546 189.851 36.934 189.828 36.908C189.801 36.8832 189.78 36.8531 189.767 36.8196C189.753 36.7861 189.747 36.75 189.748 36.7138L189.788 36.705Z" fill="white"/>
<path d="M193.684 36.7406L194.395 34.0086C194.586 33.273 195.204 32.9037 196.249 32.9007H197.648C197.68 32.9002 197.713 32.9075 197.742 32.9221C197.771 32.9367 197.796 32.9582 197.815 32.9846C197.86 33.036 197.885 33.1017 197.886 33.17V36.7009C197.886 36.7352 197.88 36.7693 197.867 36.8011C197.854 36.8329 197.835 36.8619 197.811 36.8863C197.788 36.9123 197.759 36.9328 197.727 36.9466C197.695 36.9603 197.66 36.9668 197.626 36.9657H197.092C197.057 36.9668 197.022 36.9603 196.99 36.9466C196.958 36.9328 196.929 36.9123 196.906 36.8863C196.881 36.8627 196.86 36.834 196.847 36.8021C196.833 36.7701 196.826 36.7357 196.827 36.7009V33.6908H196.147C195.978 33.6908 195.815 33.7473 195.682 33.8513C195.549 33.9553 195.455 34.1008 195.414 34.2646L194.774 36.7009C194.755 36.7772 194.71 36.8444 194.646 36.8907C194.587 36.9372 194.514 36.9635 194.439 36.9657H193.865C193.816 36.9647 193.769 36.9449 193.734 36.9105C193.698 36.8761 193.678 36.8296 193.675 36.7803C193.673 36.7628 193.673 36.745 193.675 36.7274L193.684 36.7406ZM198.685 36.7053V33.1744C198.684 33.1025 198.711 33.033 198.76 32.9802C198.811 32.9312 198.879 32.9043 198.95 32.9051H199.497C199.532 32.9045 199.568 32.9113 199.6 32.925C199.633 32.9386 199.662 32.959 199.687 32.9846C199.736 33.0356 199.763 33.1037 199.762 33.1744V34.291H201.143C201.539 34.2758 201.927 34.4026 202.238 34.6486C202.374 34.775 202.483 34.9283 202.558 35.0988C202.632 35.2693 202.671 35.4533 202.671 35.6394C202.671 35.8255 202.632 36.0095 202.558 36.1801C202.483 36.3506 202.374 36.5038 202.238 36.6303C201.926 36.8726 201.538 36.9976 201.143 36.9834H198.959C198.925 36.9838 198.892 36.9769 198.862 36.9632C198.831 36.9495 198.804 36.9292 198.782 36.9039C198.733 36.8511 198.706 36.7817 198.707 36.7097L198.685 36.7053ZM199.74 36.1757H201.121C201.435 36.1757 201.594 35.9947 201.594 35.6328C201.594 35.2709 201.435 35.0899 201.121 35.0899H199.74V36.1757ZM202.829 36.8951C202.827 36.8805 202.827 36.8656 202.829 36.851C202.832 36.8002 202.853 36.752 202.887 36.7141L204.299 34.8825L202.975 33.17C202.942 33.1315 202.922 33.0836 202.918 33.0331C202.915 33.0171 202.915 33.0007 202.918 32.9846C202.929 32.9564 202.95 32.9329 202.976 32.9177C203.002 32.9025 203.033 32.8965 203.063 32.9007H203.664C203.761 32.9025 203.856 32.9279 203.942 32.9748C204.027 33.0217 204.1 33.0887 204.153 33.17L204.921 34.163L205.689 33.17C205.744 33.0892 205.816 33.0227 205.902 32.9758C205.987 32.929 206.082 32.9032 206.179 32.9007H206.78C206.81 32.8965 206.84 32.9025 206.867 32.9177C206.893 32.9329 206.914 32.9564 206.925 32.9846C206.928 33.0007 206.928 33.0171 206.925 33.0331C206.92 33.0834 206.9 33.131 206.868 33.17L205.544 34.8825L206.956 36.7141C206.991 36.7516 207.011 36.8 207.014 36.851C207.018 36.8653 207.018 36.8808 207.014 36.8951C207.002 36.9233 206.981 36.9468 206.955 36.962C206.929 36.9772 206.898 36.9832 206.868 36.979H206.25C206.153 36.9766 206.058 36.9514 205.973 36.9053C205.888 36.8593 205.815 36.7938 205.76 36.7141L204.908 35.6063L204.056 36.7141C204.001 36.7938 203.928 36.8593 203.843 36.9053C203.758 36.9514 203.663 36.9766 203.566 36.979H202.971C202.94 36.9832 202.91 36.9772 202.883 36.962C202.857 36.9468 202.836 36.9233 202.825 36.8951H202.829ZM207.808 36.5597C207.437 36.1021 207.235 35.531 207.235 34.9421C207.235 34.3531 207.437 33.782 207.808 33.3245C208.306 32.9935 208.89 32.8169 209.487 32.8169C210.085 32.8169 210.669 32.9935 211.167 33.3245C211.535 33.783 211.736 34.3537 211.736 34.9421C211.736 35.5304 211.535 36.1011 211.167 36.5597C210.669 36.8906 210.085 37.0672 209.487 37.0672C208.89 37.0672 208.306 36.8906 207.808 36.5597ZM208.572 33.9115C208.362 34.2083 208.262 34.5687 208.289 34.931C208.262 35.292 208.362 35.6512 208.572 35.9462C208.689 36.0672 208.832 36.1604 208.99 36.2192C209.148 36.278 209.317 36.3008 209.485 36.286C209.653 36.3018 209.823 36.2794 209.981 36.2206C210.139 36.1618 210.282 36.0679 210.399 35.9462C210.609 35.6512 210.709 35.292 210.681 34.931C210.708 34.5687 210.608 34.2083 210.399 33.9115C210.283 33.7889 210.14 33.6946 209.981 33.6356C209.823 33.5767 209.653 33.5548 209.485 33.5716C209.317 33.5555 209.148 33.5777 208.989 33.6366C208.831 33.6954 208.688 33.7894 208.572 33.9115ZM212.05 35.8535C212.046 35.8079 212.053 35.762 212.071 35.7198C212.088 35.6775 212.116 35.6402 212.151 35.6107C212.205 35.5665 212.271 35.5417 212.341 35.5401H212.667C212.759 35.5435 212.848 35.5756 212.921 35.6318C212.993 35.6879 213.047 35.7655 213.073 35.8535C213.121 35.9579 213.204 36.0422 213.307 36.0918C213.419 36.1538 213.546 36.1858 213.674 36.1845H214.556C214.71 36.1911 214.863 36.156 214.998 36.083C215.046 36.0416 215.085 35.9901 215.112 35.9322C215.139 35.8743 215.152 35.8113 215.152 35.7475C215.152 35.6838 215.139 35.6208 215.112 35.5629C215.085 35.505 215.046 35.4536 214.998 35.4121C214.863 35.3389 214.71 35.3038 214.556 35.3106H213.833C213.763 35.3084 213.697 35.2798 213.648 35.2306C213.599 35.1814 213.57 35.1153 213.568 35.0458V34.8119C213.569 34.7415 213.595 34.674 213.643 34.6221C213.665 34.597 213.692 34.5769 213.723 34.5632C213.753 34.5495 213.786 34.5425 213.819 34.5426H214.451C214.619 34.5608 214.789 34.5349 214.945 34.4676C214.993 34.4262 215.032 34.3747 215.059 34.3168C215.086 34.2589 215.099 34.1959 215.099 34.1321C215.099 34.0684 215.086 34.0054 215.059 33.9475C215.032 33.8896 214.993 33.8382 214.945 33.7967C214.79 33.7195 214.618 33.6845 214.446 33.6952H213.766C213.639 33.6847 213.512 33.7122 213.4 33.7743C213.288 33.8364 213.198 33.9302 213.14 34.0439C213.112 34.1226 213.061 34.1908 212.993 34.2391C212.925 34.2873 212.844 34.3132 212.76 34.3131H212.429C212.392 34.317 212.355 34.317 212.319 34.3131C212.272 34.2901 212.233 34.2551 212.204 34.2116C212.162 34.154 212.14 34.0842 212.142 34.013C212.146 33.8506 212.192 33.692 212.277 33.5533C212.361 33.4146 212.481 33.3006 212.623 33.2229C212.933 33.0163 213.297 32.9072 213.669 32.9096H214.504C215.589 32.9096 216.132 33.3245 216.132 34.1542C216.138 34.3111 216.107 34.4672 216.04 34.6093C215.973 34.7514 215.873 34.8754 215.748 34.9708C215.889 35.0547 216.005 35.1754 216.083 35.32C216.16 35.4646 216.197 35.6277 216.19 35.7917C216.206 35.9707 216.178 36.151 216.108 36.3166C216.038 36.4822 215.928 36.6278 215.788 36.7406C215.441 36.9558 215.035 37.0577 214.627 37.0319H213.555C213.182 37.0341 212.817 36.9233 212.509 36.7141C212.364 36.6318 212.244 36.5131 212.159 36.3699C212.075 36.2267 212.029 36.0638 212.027 35.8976L212.05 35.8535ZM216.441 33.426V33.1567C216.439 33.1213 216.445 33.0858 216.457 33.0526C216.47 33.0194 216.489 32.9891 216.514 32.9638C216.539 32.9385 216.569 32.9186 216.602 32.9055C216.635 32.8923 216.67 32.8862 216.706 32.8875H220.237C220.272 32.8863 220.307 32.8924 220.34 32.9053C220.372 32.9182 220.402 32.9377 220.427 32.9625C220.452 32.9878 220.473 33.018 220.486 33.0514C220.5 33.0848 220.507 33.1207 220.506 33.1567V33.426C220.507 33.4614 220.5 33.4966 220.487 33.5293C220.473 33.5621 220.453 33.5915 220.427 33.6158C220.403 33.6415 220.373 33.6616 220.34 33.6746C220.307 33.6876 220.272 33.6931 220.237 33.6908H219.005V36.7053C219.007 36.7401 219 36.7748 218.986 36.8068C218.973 36.8389 218.952 36.8675 218.926 36.8907C218.902 36.9152 218.873 36.9345 218.841 36.9474C218.809 36.9603 218.775 36.9666 218.741 36.9657H218.211C218.142 36.9654 218.075 36.9386 218.026 36.8907C218 36.8671 217.981 36.8383 217.968 36.8063C217.955 36.7743 217.949 36.7398 217.951 36.7053V33.6908H216.71C216.675 33.692 216.64 33.686 216.608 33.6731C216.575 33.6603 216.545 33.6408 216.52 33.616C216.496 33.5911 216.476 33.5614 216.463 33.5287C216.45 33.4961 216.444 33.4611 216.446 33.426H216.441ZM220.978 36.6921V33.1611C220.978 33.1257 220.985 33.0906 220.998 33.0579C221.012 33.0252 221.032 32.9958 221.058 32.9713C221.108 32.9235 221.174 32.8966 221.243 32.8963H224.47C224.504 32.8958 224.539 32.9026 224.571 32.9163C224.603 32.93 224.631 32.9502 224.655 32.9758C224.681 33.0002 224.701 33.0297 224.715 33.0623C224.728 33.095 224.735 33.1301 224.734 33.1656V33.4348C224.735 33.4702 224.728 33.5054 224.715 33.538C224.701 33.5707 224.681 33.6002 224.655 33.6246C224.631 33.6491 224.602 33.6684 224.57 33.6813C224.538 33.6942 224.504 33.7004 224.47 33.6996H222.033V34.525H224.134C224.169 34.525 224.203 34.532 224.235 34.5457C224.267 34.5593 224.296 34.5793 224.32 34.6044C224.368 34.6554 224.395 34.7235 224.395 34.7942V35.0634C224.395 35.1341 224.368 35.2023 224.32 35.2532C224.296 35.2783 224.267 35.2983 224.235 35.312C224.203 35.3256 224.169 35.3327 224.134 35.3327H222.033V36.1713H224.465C224.499 36.171 224.532 36.1776 224.563 36.1904C224.594 36.2033 224.623 36.2223 224.646 36.2463C224.695 36.2973 224.722 36.3654 224.721 36.4361V36.7097C224.722 36.7445 224.715 36.779 224.701 36.8109C224.688 36.8428 224.667 36.8715 224.642 36.8951C224.618 36.9202 224.589 36.9402 224.557 36.9539C224.525 36.9675 224.491 36.9745 224.456 36.9745H221.243C221.208 36.974 221.173 36.9664 221.14 36.9524C221.108 36.9383 221.079 36.918 221.054 36.8926C221.029 36.8672 221.01 36.8372 220.997 36.8043C220.984 36.7714 220.978 36.7363 220.978 36.7009V36.6921ZM224.911 36.8819C224.908 36.8673 224.908 36.8523 224.911 36.8377C224.914 36.7869 224.934 36.7387 224.968 36.7009L226.381 34.8692L225.057 33.1567C225.021 33.1197 224.999 33.0713 224.995 33.0199C224.992 33.0038 224.992 32.9874 224.995 32.9713C225.006 32.9432 225.027 32.9196 225.053 32.9044C225.08 32.8892 225.11 32.8833 225.14 32.8875H225.745C225.842 32.8896 225.937 32.9152 226.021 32.9621C226.106 33.009 226.178 33.0758 226.231 33.1567L226.999 34.1498L227.767 33.1567C227.821 33.076 227.894 33.0094 227.979 32.9626C228.064 32.9158 228.159 32.89 228.257 32.8875H228.857C228.887 32.8833 228.918 32.8892 228.944 32.9044C228.97 32.9196 228.991 32.9432 229.002 32.9713C229.005 32.9874 229.005 33.0038 229.002 33.0199C228.999 33.0707 228.979 33.1189 228.945 33.1567L227.621 34.8692L229.033 36.7009C229.068 36.7383 229.088 36.7868 229.091 36.8377C229.095 36.8521 229.095 36.8675 229.091 36.8819C229.079 36.9101 229.059 36.9336 229.032 36.9488C229.006 36.964 228.975 36.9699 228.945 36.9657H228.349C228.253 36.9634 228.159 36.9381 228.074 36.8921C227.99 36.846 227.918 36.7805 227.864 36.7009L227.007 35.5931L226.156 36.7009C226.101 36.7802 226.029 36.8456 225.945 36.8916C225.86 36.9376 225.766 36.963 225.67 36.9657H225.052C225.022 36.9699 224.991 36.964 224.965 36.9488C224.939 36.9336 224.918 36.9101 224.907 36.8819H224.911ZM229.545 36.7009V33.17C229.544 33.0993 229.571 33.0311 229.62 32.9802C229.646 32.9544 229.676 32.9341 229.709 32.9204C229.743 32.9067 229.778 32.9001 229.815 32.9007H230.335C230.37 32.8996 230.405 32.9062 230.437 32.9199C230.469 32.9336 230.498 32.9542 230.521 32.9802C230.546 33.0046 230.567 33.0341 230.58 33.0667C230.594 33.0994 230.601 33.1346 230.6 33.17V34.4676H232.525V33.1876C232.524 33.1522 232.531 33.1171 232.544 33.0844C232.558 33.0517 232.578 33.0223 232.604 32.9978C232.628 32.9727 232.657 32.9527 232.689 32.9391C232.72 32.9254 232.755 32.9184 232.789 32.9184H233.31C233.346 32.9174 233.382 32.924 233.416 32.9377C233.449 32.9514 233.479 32.9719 233.504 32.9978C233.553 33.0488 233.58 33.117 233.579 33.1876V36.7186C233.58 36.7533 233.573 36.7878 233.559 36.8197C233.546 36.8517 233.525 36.8804 233.5 36.9039C233.476 36.9296 233.446 36.9499 233.413 36.9636C233.381 36.9772 233.346 36.984 233.31 36.9834H232.789C232.72 36.9831 232.654 36.9562 232.604 36.9083C232.578 36.8851 232.557 36.8565 232.544 36.8245C232.53 36.7924 232.523 36.7578 232.525 36.723V35.262H230.6V36.723C230.601 36.7578 230.595 36.7924 230.581 36.8245C230.567 36.8565 230.547 36.8851 230.521 36.9083C230.497 36.9329 230.468 36.9522 230.436 36.9651C230.404 36.978 230.37 36.9842 230.335 36.9834H229.815C229.779 36.9835 229.744 36.9765 229.712 36.9628C229.679 36.9492 229.649 36.9292 229.625 36.9039C229.599 36.8804 229.579 36.8517 229.565 36.8197C229.552 36.7878 229.545 36.7533 229.545 36.7186V36.7009ZM234.378 36.7009V33.17C234.378 33.1339 234.384 33.0981 234.398 33.0647C234.412 33.0313 234.432 33.001 234.458 32.9758C234.512 32.9259 234.583 32.899 234.656 32.9007H235.164C235.236 32.901 235.305 32.9277 235.358 32.9758C235.408 33.0263 235.437 33.0944 235.438 33.1656V36.0124L237.044 33.17C237.09 33.0945 237.152 33.0298 237.225 32.9802C237.284 32.9331 237.357 32.9054 237.433 32.9007H238.267C238.302 32.8996 238.336 32.9062 238.368 32.9199C238.4 32.9336 238.429 32.9542 238.452 32.9802C238.478 33.0046 238.498 33.0341 238.512 33.0667C238.525 33.0994 238.532 33.1346 238.532 33.17V36.7009C238.532 36.7361 238.525 36.7709 238.51 36.803C238.496 36.835 238.474 36.8635 238.448 36.8863C238.422 36.9121 238.392 36.9324 238.359 36.9461C238.325 36.9597 238.29 36.9664 238.253 36.9657H237.746C237.71 36.9663 237.675 36.9596 237.643 36.9459C237.61 36.9322 237.581 36.9119 237.556 36.8863C237.531 36.8627 237.51 36.834 237.497 36.8021C237.483 36.7701 237.476 36.7357 237.477 36.7009V34.0527L235.998 36.7009C235.951 36.7762 235.888 36.8396 235.813 36.8863C235.747 36.9345 235.669 36.9621 235.588 36.9657H234.648C234.612 36.9658 234.577 36.9588 234.545 36.9452C234.512 36.9315 234.482 36.9115 234.458 36.8863C234.432 36.8627 234.412 36.834 234.398 36.8021C234.385 36.7701 234.378 36.7357 234.378 36.7009ZM239.291 36.7009V33.17C239.29 33.134 239.297 33.0983 239.311 33.0649C239.325 33.0316 239.345 33.0013 239.37 32.9758C239.395 32.9501 239.424 32.9298 239.457 32.9161C239.489 32.9025 239.525 32.8957 239.56 32.8963H240.103C240.138 32.8958 240.172 32.9026 240.204 32.9163C240.236 32.93 240.265 32.9502 240.288 32.9758C240.314 33.0013 240.334 33.0316 240.347 33.0649C240.361 33.0983 240.368 33.134 240.368 33.17V34.5294H240.968C241.125 34.5342 241.28 34.4877 241.409 34.397C241.557 34.277 241.678 34.1264 241.762 33.9556L242.204 33.17C242.237 33.0894 242.293 33.0204 242.365 32.9717C242.438 32.923 242.523 32.8968 242.61 32.8963H243.254C243.325 32.8963 243.369 32.9228 243.382 32.9758C243.384 32.9889 243.384 33.0023 243.382 33.0155C243.38 33.0697 243.365 33.1227 243.338 33.17L242.729 34.2866C242.652 34.4364 242.552 34.5734 242.433 34.6927C242.311 34.8083 242.157 34.8864 241.992 34.9178C242.139 34.9563 242.271 35.0377 242.371 35.1517C242.503 35.2851 242.618 35.4332 242.716 35.5931L243.413 36.7274C243.443 36.7686 243.46 36.8178 243.462 36.8686C243.466 36.8845 243.466 36.9012 243.462 36.9172C243.462 36.9657 243.4 36.9922 243.325 36.9922H242.685C242.601 36.9885 242.52 36.961 242.451 36.9128C242.372 36.8676 242.305 36.804 242.257 36.7274L241.762 35.9329C241.668 35.767 241.548 35.6179 241.405 35.4916C241.281 35.3905 241.123 35.3387 240.963 35.3459H240.363V36.7274C240.364 36.7622 240.358 36.7969 240.344 36.8289C240.33 36.8609 240.31 36.8896 240.284 36.9128C240.259 36.9369 240.23 36.9559 240.199 36.9688C240.167 36.9817 240.133 36.9881 240.098 36.9878H239.573C239.538 36.9884 239.503 36.9817 239.47 36.968C239.437 36.9543 239.408 36.934 239.383 36.9083C239.358 36.8831 239.337 36.8528 239.324 36.8194C239.31 36.7861 239.303 36.7502 239.304 36.7141L239.291 36.7009ZM243.85 36.7009V33.17C243.849 33.1342 243.855 33.0986 243.868 33.0652C243.881 33.0318 243.9 33.0014 243.925 32.9758C243.979 32.9259 244.05 32.899 244.124 32.9007H244.631C244.703 32.9001 244.773 32.9269 244.825 32.9758C244.851 33.0002 244.871 33.0297 244.885 33.0623C244.899 33.095 244.905 33.1301 244.905 33.1656V36.0124L246.511 33.17C246.557 33.0945 246.619 33.0298 246.692 32.9802C246.752 32.9331 246.824 32.9054 246.9 32.9007H247.734C247.769 32.9001 247.805 32.9069 247.837 32.9206C247.87 32.9342 247.899 32.9545 247.924 32.9802C247.973 33.0311 248 33.0993 247.999 33.17V36.7009C247.999 36.7357 247.993 36.7701 247.979 36.8021C247.965 36.834 247.945 36.8627 247.919 36.8863C247.894 36.9117 247.864 36.9317 247.83 36.9454C247.797 36.959 247.761 36.9659 247.725 36.9657H247.209C247.173 36.9663 247.138 36.9596 247.106 36.9459C247.073 36.9322 247.043 36.9119 247.019 36.8863C246.993 36.8627 246.973 36.834 246.96 36.8021C246.946 36.7701 246.939 36.7357 246.94 36.7009V34.0527L245.461 36.7009C245.415 36.775 245.353 36.8383 245.28 36.8863C245.212 36.9337 245.133 36.9612 245.051 36.9657H244.11C244.076 36.9657 244.041 36.9587 244.01 36.945C243.978 36.9314 243.949 36.9114 243.925 36.8863C243.899 36.8627 243.879 36.834 243.866 36.8021C243.852 36.7701 243.845 36.7357 243.846 36.7009H243.85Z" fill="white"/>
</svg>
