<svg width="32" height="39" viewBox="0 0 32 39" fill="none" xmlns="http://www.w3.org/2000/svg">
<path d="M0.779115 18.4956L0.777246 18.4828L0.774718 18.4702C0.58913 17.5394 0.5 16.5829 0.5 15.6327C0.5 7.30188 7.44155 0.5 15.9916 0.5C24.5415 0.5 31.4838 7.30189 31.5 15.6337C31.4999 16.5808 31.403 17.5383 31.2245 18.4743L31.2225 18.4849L31.2209 18.4956C31.2157 18.5309 31.1865 18.6847 31.1194 18.98C30.8852 20.0065 30.5377 21.0023 30.0844 21.9596L30.081 21.9669L30.0777 21.9743C28.3888 25.8615 24.644 31.8866 16.4024 38.3612C16.2836 38.454 16.142 38.5 16 38.5C15.8579 38.5 15.7161 38.4539 15.5973 38.361C7.34772 31.8866 3.61131 25.8617 1.92225 21.9743L1.91904 21.9669L1.91558 21.9596C1.46273 21.0031 1.11499 19.9991 0.880516 18.9797C0.813442 18.6846 0.784274 18.5309 0.779115 18.4956Z" fill="#1D1D1B" stroke="#1D1D1B"/>
<path fill-rule="evenodd" clip-rule="evenodd" d="M24.9831 20.9664C24.8862 21.2044 24.7791 21.4355 24.6618 21.6582C23.9309 21.5545 23.4872 21.2196 22.9109 20.9001C22.9285 20.8563 22.9545 20.8165 22.9874 20.7828C23.1493 20.6407 23.3031 20.4898 23.4481 20.3306C23.545 20.2422 23.5841 20.2354 23.7337 20.3153C24.1739 20.555 24.5309 20.8066 24.9831 20.9664ZM22.4333 24.1213V24.1587C22.0358 24.4324 21.6115 24.6647 21.1669 24.8523C20.339 24.2216 20.0177 23.5961 19.5112 22.8991C19.3939 22.7376 19.3412 22.7138 19.2001 22.7189L18.9519 22.7563C18.974 22.6679 18.9978 22.5864 19.0233 22.4912C19.076 22.3076 19.1168 22.2787 19.2715 22.2532C19.5426 22.2386 19.8127 22.2091 20.0806 22.1648C20.2268 22.1648 20.2727 22.1835 20.39 22.345C20.9 23.0436 21.2179 23.6675 22.0457 24.2981C22.1783 24.2437 22.3075 24.1842 22.4333 24.1281V24.1213ZM17.5733 24.8455C17.4697 25.0559 17.3504 25.2582 17.2163 25.4506C16.9206 25.4302 16.6231 25.3962 16.3188 25.347C16.0145 25.2977 15.7017 25.2467 15.406 25.1583C14.896 24.0465 14.9232 23.3037 14.7923 22.3824C14.7924 22.3095 14.7707 22.2382 14.7302 22.1777C14.6896 22.1172 14.632 22.0701 14.5645 22.0424C14.265 21.9127 13.9732 21.7657 13.6908 21.6021C13.6568 21.5858 13.6215 21.5722 13.5854 21.5613C13.7809 21.4083 13.9747 21.2519 14.1872 21.0956C14.2343 21.0426 14.2991 21.0086 14.3694 20.9998C14.4398 20.9911 14.5109 21.0082 14.5696 21.048C14.8527 21.2116 15.145 21.3586 15.4451 21.4882C15.5135 21.5167 15.5718 21.5652 15.6121 21.6274C15.6525 21.6896 15.6731 21.7626 15.6711 21.8367C15.802 22.758 15.7748 23.5009 16.2848 24.6126C16.5891 24.6925 16.8968 24.7503 17.201 24.8013C17.3268 24.8217 17.4509 24.8387 17.575 24.854L17.5733 24.8455ZM12.5961 22.1869C12.1189 22.5667 11.572 22.8497 10.9863 23.0198C10.4312 22.6033 9.91051 22.1429 9.4292 21.6429C9.58219 20.453 10.0259 19.892 10.4219 19.1101C10.5154 18.9282 10.5018 18.8738 10.3947 18.6987C10.2043 18.4449 10.0259 18.1837 9.85927 17.9151C9.82218 17.8469 9.76477 17.7919 9.69502 17.7578C9.62526 17.7236 9.54662 17.7121 9.47 17.7247C8.55376 17.7247 7.83131 17.8573 6.6618 17.4986C6.41926 16.9255 6.22536 16.333 6.08214 15.7273C6.43159 15.3779 6.83801 15.0904 7.28395 14.8774C7.17856 14.9624 7.06977 15.0593 6.96098 15.1664C7.10373 15.7737 7.29589 16.3684 7.53553 16.9445C8.70505 17.3031 9.4275 17.1722 10.3454 17.1705C10.4218 17.1578 10.5003 17.1693 10.5698 17.2034C10.6393 17.2376 10.6964 17.2927 10.733 17.3609C10.903 17.6295 11.073 17.8913 11.2685 18.1446C11.3756 18.3146 11.3892 18.3741 11.2974 18.5559C10.8996 19.3379 10.4559 19.9039 10.3046 21.0888C10.7852 21.5895 11.3059 22.05 11.8617 22.4657C12.1137 22.3929 12.3593 22.2997 12.5961 22.1869V22.1869ZM8.49936 14.172V14.1516C8.46609 13.8758 8.45133 13.5981 8.45517 13.3203C8.43817 13.1656 8.40927 13.1231 8.23248 13.0279C7.46754 12.6098 6.80629 12.3735 6.05664 11.6323C6.11111 11.387 6.18037 11.1452 6.26403 10.9082C6.3403 10.6763 6.43056 10.4492 6.53431 10.2282C6.75903 10.189 6.98625 10.1657 7.21426 10.1585C7.19046 10.2197 7.16836 10.2826 7.14626 10.3472C7.0626 10.5842 6.99335 10.826 6.93888 11.0714C7.68852 11.8125 8.34978 12.0488 9.11642 12.467C9.28641 12.5622 9.32041 12.6047 9.3391 12.7594C9.33554 13.0371 9.34974 13.3147 9.3816 13.5906C9.3816 13.747 9.3544 13.7878 9.17932 13.8694C8.94813 13.9765 8.72375 14.0683 8.49936 14.1652V14.172ZM9.62638 9.73527L9.68588 9.65878C9.74708 9.55508 9.74538 9.51599 9.64678 9.3817C9.22861 8.81054 8.80874 8.39917 8.58776 7.64102C8.88631 7.4165 9.20172 7.21532 9.53119 7.03927L9.4683 7.08687C9.68758 7.84501 10.1074 8.25638 10.5256 8.82754C10.6242 8.96183 10.6276 8.99753 10.5647 9.10462C10.4227 9.28103 10.2927 9.46673 10.1754 9.66048C10.0905 9.76587 10.048 9.78287 9.86437 9.76247L9.62638 9.73527V9.73527ZM12.7763 7.41324C12.6981 6.96447 12.5893 6.5803 12.7525 6.08734C13.0142 6.06354 13.2794 6.05164 13.5463 6.05164C13.5676 6.37575 13.6125 6.69788 13.6806 7.01547C13.6993 7.14636 13.6806 7.16846 13.5599 7.21436C13.363 7.26519 13.1689 7.32647 12.9785 7.39794C12.9143 7.42133 12.8439 7.42133 12.7797 7.39794L12.7763 7.41324Z" fill="white"/>
<path fill-rule="evenodd" clip-rule="evenodd" d="M25.061 17.2436C25.0491 17.4289 25.0372 17.6193 25.0236 17.7348C25.0933 17.9813 25.0236 17.9048 25.1239 18.0391C25.5658 18.6137 25.9279 18.9435 26.3138 19.8019C26.1854 20.2059 26.0204 20.5974 25.8208 20.9714C25.0661 20.8626 24.619 20.5107 24.0138 20.181C23.8642 20.1011 23.8251 20.1079 23.7283 20.1963C23.583 20.3551 23.4298 20.5066 23.2693 20.6501C23.1741 20.7572 23.1622 20.7997 23.2081 20.9901C23.407 21.7755 23.6569 22.3908 23.6382 23.4158C23.2408 23.6901 22.8164 23.923 22.3718 24.1111C21.5456 23.4787 21.2226 22.8549 20.7178 22.1545C20.6005 21.9947 20.5478 21.9709 20.4067 21.9845C20.1389 22.0296 19.8688 22.0592 19.5976 22.0729C19.4429 22.0984 19.4038 22.1273 19.3511 22.3109C19.1165 23.1252 19.04 23.8289 18.4229 24.7162C18.1272 24.6975 17.828 24.6618 17.5254 24.6125C17.2228 24.5633 16.9134 24.5038 16.6109 24.4239C16.1009 23.3121 16.1264 22.5693 15.9955 21.648C15.9979 21.5737 15.9775 21.5006 15.9371 21.4383C15.8967 21.376 15.8382 21.3276 15.7694 21.2995C15.4692 21.1661 15.1774 21.0145 14.8957 20.8456C14.8366 20.8061 14.7653 20.7891 14.6947 20.7978C14.6242 20.8066 14.5591 20.8404 14.5115 20.8932C13.8112 21.4032 13.3216 21.9403 12.1946 22.2718C11.642 21.8554 11.1242 21.395 10.646 20.8949C10.7973 19.705 11.241 19.1457 11.6387 18.3621C11.6825 18.301 11.7038 18.2266 11.6988 18.1515C11.6938 18.0765 11.663 18.0055 11.6115 17.9507C11.4211 17.6974 11.241 17.4408 11.0761 17.1671C11.0394 17.0985 10.982 17.0432 10.9122 17.0091C10.8423 16.9749 10.7634 16.9636 10.6868 16.9767C9.76886 16.9767 9.04641 17.1093 7.87859 16.7506C7.63739 16.175 7.44463 15.5802 7.30234 14.9725C8.07918 14.2127 8.75913 14.0325 9.51218 13.6789C9.68216 13.5973 9.71446 13.5565 9.71616 13.4002C9.68289 13.1244 9.66812 12.8467 9.67197 12.5689C9.65497 12.4142 9.62607 12.3717 9.44928 12.2765C8.68264 11.8584 8.02138 11.6238 7.27344 10.8809C7.32756 10.6349 7.39682 10.3925 7.48082 10.1551C7.55765 9.92339 7.64789 9.69635 7.7511 9.47514C8.75573 9.30515 9.39658 9.47514 10.2057 9.56013C10.3876 9.58053 10.4318 9.56013 10.5151 9.45814C10.6323 9.26398 10.763 9.07825 10.9061 8.90228C10.9673 8.79859 10.9639 8.75949 10.8653 8.6269C10.4488 8.05404 10.0272 7.64267 9.80796 6.88453C10.1472 6.62763 10.5077 6.40015 10.8857 6.20457C11.7849 6.47825 12.2337 6.82673 12.8592 7.1956C12.9039 7.2334 12.958 7.25842 13.0158 7.26799C13.0735 7.27757 13.1328 7.27135 13.1873 7.25C13.3782 7.17636 13.5728 7.11281 13.7704 7.05961C13.8877 7.01372 13.9098 6.98992 13.8911 6.86072C13.8163 6.34056 13.6616 5.92749 13.8435 5.37673C14.2544 5.34037 14.6673 5.33299 15.0793 5.35463C15.7303 5.8646 15.953 6.25727 16.3355 6.73833C16.381 6.81287 16.4534 6.86705 16.5378 6.88962V6.90322C16.0587 6.85485 15.5756 6.86113 15.098 6.92192C13.1227 7.1786 11.8971 8.24613 11.2716 9.69442C10.7004 11.022 10.6953 12.6845 11.3225 14.4082C11.947 16.0541 12.9829 17.5126 14.3313 18.6443C15.6623 19.773 17.301 20.5974 18.989 20.8541C20.7994 21.1278 22.3888 20.713 23.5107 19.7424C24.258 19.0842 24.7731 18.2025 24.9794 17.2283L25.061 17.2436Z" fill="white"/>
<path fill-rule="evenodd" clip-rule="evenodd" d="M15.9236 7.74805C17.5673 7.55257 19.4797 8.27332 21.0232 9.58732C21.1932 9.72501 21.3394 9.8661 21.4907 10.0123H19.5664C18.2779 9.14026 16.816 8.69149 15.5258 8.84448C14.0061 9.02466 13.0814 9.9052 12.6836 11.1053C12.7131 10.7998 12.7752 10.4984 12.8689 10.2061C13.2871 8.90227 14.2781 7.94354 15.9287 7.74805H15.9236ZM23.6325 17.2436C23.4321 17.6803 23.1413 18.0696 22.7795 18.3857C22.4176 18.7019 21.9928 18.9377 21.5332 19.0777C21.7338 18.9522 21.9197 18.8045 22.0873 18.6375C22.4725 18.2477 22.7557 17.7689 22.9118 17.2436H23.6325Z" fill="white"/>
<path fill-rule="evenodd" clip-rule="evenodd" d="M15.3453 7.07662C17.0333 6.85564 18.9915 7.4064 20.688 8.53002C19.0595 7.4727 17.1914 6.96103 15.5884 7.17012C13.7287 7.4115 12.5813 8.41783 11.9965 9.77773C11.4594 11.0203 11.4543 12.5774 12.0424 14.1974C12.6298 15.7349 13.6006 17.0965 14.8625 18.153C16.1085 19.2087 17.6435 19.9821 19.2244 20.2218C20.9243 20.4785 22.4151 20.0909 23.4588 19.1798C24.0501 18.663 24.4872 17.993 24.7218 17.2436H24.8221C24.5965 18.0957 24.1232 18.8618 23.4622 19.4449C22.3862 20.3816 20.8461 20.781 19.1003 20.5176C17.4718 20.2694 15.8909 19.4755 14.6075 18.3859C13.3065 17.2935 12.307 15.886 11.7041 14.2977C11.099 12.6369 11.1041 11.0322 11.6565 9.75223C12.2583 8.35663 13.4397 7.3248 15.347 7.07662H15.3453Z" fill="white"/>
</svg>
