<svg width="32" height="39" viewBox="0 0 32 39" fill="none" xmlns="http://www.w3.org/2000/svg">
<path d="M0.779115 18.4956L0.777246 18.4828L0.774718 18.4702C0.58913 17.5394 0.5 16.5829 0.5 15.6327C0.5 7.30188 7.44155 0.5 15.9916 0.5C24.5415 0.5 31.4838 7.30189 31.5 15.6337C31.4999 16.5808 31.403 17.5383 31.2245 18.4743L31.2225 18.4849L31.2209 18.4956C31.2157 18.531 31.1865 18.6849 31.1193 18.9804C30.8851 20.0068 30.5376 21.0024 30.0844 21.9596L30.081 21.9669L30.0777 21.9743C28.3888 25.8615 24.6441 31.8865 16.4026 38.3611C16.2838 38.4539 16.1421 38.5 16 38.5C15.858 38.5 15.7163 38.4539 15.5975 38.3611C7.34777 31.8867 3.61132 25.8618 1.92225 21.9743L1.91904 21.9669L1.91558 21.9596C1.46274 21.0031 1.115 19.9992 0.880526 18.9798C0.813446 18.6846 0.784274 18.5309 0.779115 18.4956Z" fill="white" stroke="#1D1D1B"/>
<path fill-rule="evenodd" clip-rule="evenodd" d="M24.9831 20.9665C24.8862 21.2045 24.7791 21.4357 24.6618 21.6583C23.9309 21.5546 23.4872 21.2198 22.9109 20.9002C22.9285 20.8565 22.9545 20.8166 22.9874 20.7829C23.1493 20.6409 23.3031 20.4899 23.4481 20.3307C23.545 20.2423 23.5841 20.2355 23.7337 20.3154C24.1739 20.5551 24.5309 20.8067 24.9831 20.9665ZM22.4333 24.1215V24.1589C22.0358 24.4325 21.6115 24.6649 21.1669 24.8524C20.339 24.2218 20.0177 23.5962 19.5112 22.8993C19.3939 22.7378 19.3412 22.714 19.2001 22.7191L18.9519 22.7565C18.974 22.6681 18.9978 22.5865 19.0233 22.4913C19.076 22.3077 19.1168 22.2788 19.2715 22.2533C19.5426 22.2387 19.8127 22.2092 20.0806 22.1649C20.2268 22.1649 20.2727 22.1836 20.39 22.3451C20.9 23.0437 21.2179 23.6676 22.0457 24.2983C22.1783 24.2439 22.3075 24.1844 22.4333 24.1283V24.1215ZM17.5733 24.8456C17.4697 25.056 17.3504 25.2583 17.2163 25.4508C16.9206 25.4304 16.6231 25.3964 16.3188 25.3471C16.0145 25.2978 15.7017 25.2468 15.406 25.1584C14.896 24.0467 14.9232 23.3038 14.7923 22.3825C14.7924 22.3096 14.7707 22.2384 14.7302 22.1778C14.6896 22.1173 14.632 22.0702 14.5645 22.0425C14.265 21.9128 13.9732 21.7658 13.6908 21.6022C13.6568 21.5859 13.6215 21.5723 13.5854 21.5614C13.7809 21.4085 13.9747 21.2521 14.1872 21.0957C14.2343 21.0427 14.2991 21.0087 14.3694 20.9999C14.4398 20.9912 14.5109 21.0083 14.5696 21.0481C14.8527 21.2117 15.145 21.3587 15.4451 21.4884C15.5135 21.5168 15.5718 21.5653 15.6121 21.6275C15.6525 21.6897 15.6731 21.7627 15.6711 21.8368C15.802 22.7582 15.7748 23.501 16.2848 24.6127C16.5891 24.6926 16.8968 24.7504 17.201 24.8014C17.3268 24.8218 17.4509 24.8388 17.575 24.8541L17.5733 24.8456ZM12.5961 22.187C12.1189 22.5669 11.572 22.8498 10.9863 23.0199C10.4312 22.6034 9.91051 22.143 9.4292 21.643C9.58219 20.4531 10.0259 19.8922 10.4219 19.1102C10.5154 18.9283 10.5018 18.8739 10.3947 18.6989C10.2043 18.445 10.0259 18.1838 9.85927 17.9152C9.82218 17.847 9.76477 17.792 9.69502 17.7579C9.62526 17.7238 9.54662 17.7122 9.47 17.7248C8.55376 17.7248 7.83131 17.8574 6.6618 17.4987C6.41926 16.9256 6.22536 16.3331 6.08214 15.7275C6.43159 15.378 6.83801 15.0906 7.28395 14.8775C7.17856 14.9625 7.06977 15.0594 6.96098 15.1665C7.10373 15.7739 7.29589 16.3685 7.53553 16.9446C8.70505 17.3033 9.4275 17.1724 10.3454 17.1707C10.4218 17.1579 10.5003 17.1694 10.5698 17.2036C10.6393 17.2377 10.6964 17.2928 10.733 17.361C10.903 17.6296 11.073 17.8914 11.2685 18.1447C11.3756 18.3147 11.3892 18.3742 11.2974 18.5561C10.8996 19.338 10.4559 19.9041 10.3046 21.0889C10.7852 21.5896 11.3059 22.0501 11.8617 22.4658C12.1137 22.393 12.3593 22.2998 12.5961 22.187ZM8.49936 14.1721V14.1517C8.46609 13.8759 8.45133 13.5982 8.45517 13.3204C8.43817 13.1657 8.40927 13.1233 8.23248 13.0281C7.46754 12.6099 6.80629 12.3736 6.05664 11.6325C6.11111 11.3871 6.18037 11.1453 6.26403 10.9083C6.3403 10.6764 6.43056 10.4493 6.53431 10.2284C6.75903 10.1891 6.98625 10.1658 7.21426 10.1587C7.19046 10.2199 7.16836 10.2828 7.14626 10.3474C7.0626 10.5843 6.99335 10.8262 6.93888 11.0715C7.68852 11.8126 8.34978 12.0489 9.11642 12.4671C9.28641 12.5623 9.32041 12.6048 9.3391 12.7595C9.33554 13.0372 9.34974 13.3148 9.3816 13.5907C9.3816 13.7471 9.3544 13.7879 9.17932 13.8695C8.94813 13.9766 8.72375 14.0684 8.49936 14.1653V14.1721ZM9.62638 9.7354L9.68588 9.6589C9.74708 9.55521 9.74538 9.51611 9.64678 9.38182C9.22861 8.81066 8.80874 8.39929 8.58776 7.64114C8.88631 7.41662 9.20172 7.21544 9.53119 7.03939L9.4683 7.08699C9.68758 7.84513 10.1074 8.2565 10.5256 8.82766C10.6242 8.96195 10.6276 8.99765 10.5647 9.10474C10.4227 9.28116 10.2927 9.46685 10.1754 9.6606C10.0905 9.76599 10.048 9.78299 9.86437 9.76259L9.62638 9.7354ZM12.7763 7.41336C12.6981 6.96459 12.5893 6.58042 12.7525 6.08746C13.0142 6.06366 13.2794 6.05176 13.5463 6.05176C13.5676 6.37587 13.6125 6.698 13.6806 7.01559C13.6993 7.14648 13.6806 7.16858 13.5599 7.21448C13.363 7.26531 13.1689 7.32659 12.9785 7.39806C12.9143 7.42145 12.8439 7.42145 12.7797 7.39806L12.7763 7.41336Z" fill="#1D1D1B"/>
<path fill-rule="evenodd" clip-rule="evenodd" d="M25.0619 17.2438C25.05 17.4291 25.0381 17.6195 25.0245 17.7351C25.0942 17.9816 25.0245 17.9051 25.1248 18.0394C25.5668 18.6139 25.9289 18.9437 26.3147 19.8021C26.1863 20.2062 26.0213 20.5976 25.8218 20.9717C25.067 20.8629 24.62 20.511 24.0148 20.1812C23.8652 20.1013 23.8261 20.1081 23.7292 20.1965C23.5839 20.3554 23.4308 20.5069 23.2703 20.6504C23.1751 20.7575 23.1632 20.8 23.2091 20.9904C23.408 21.7757 23.6578 22.3911 23.6391 23.4161C23.2418 23.6903 22.8174 23.9233 22.3727 24.1113C21.5466 23.479 21.2236 22.8551 20.7187 22.1548C20.6015 21.995 20.5488 21.9712 20.4077 21.9848C20.1399 22.0299 19.8697 22.0594 19.5985 22.0732C19.4438 22.0987 19.4047 22.1276 19.352 22.3112C19.1175 23.1254 19.041 23.8292 18.4239 24.7165C18.1281 24.6978 17.829 24.6621 17.5264 24.6128C17.2238 24.5635 16.9144 24.504 16.6118 24.4241C16.1019 23.3124 16.1274 22.5695 15.9965 21.6482C15.9989 21.574 15.9785 21.5008 15.9381 21.4385C15.8977 21.3762 15.8391 21.3278 15.7704 21.2997C15.4702 21.1663 15.1784 21.0148 14.8967 20.8459C14.8376 20.8063 14.7663 20.7893 14.6957 20.7981C14.6252 20.8068 14.5601 20.8407 14.5125 20.8935C13.8121 21.4034 13.3226 21.9406 12.1956 22.2721C11.643 21.8557 11.1251 21.3952 10.647 20.8952C10.7983 19.7052 11.2419 19.146 11.6397 18.3623C11.6835 18.3012 11.7047 18.2268 11.6998 18.1518C11.6948 18.0768 11.664 18.0058 11.6125 17.951C11.4221 17.6977 11.2419 17.441 11.077 17.1673C11.0403 17.0988 10.983 17.0435 10.9131 17.0093C10.8433 16.9751 10.7644 16.9638 10.6878 16.9769C9.76983 16.9769 9.04739 17.1095 7.87957 16.7509C7.63836 16.1752 7.44561 15.5805 7.30331 14.9728C8.08016 14.2129 8.76011 14.0328 9.51315 13.6792C9.68314 13.5976 9.71544 13.5568 9.71714 13.4004C9.68387 13.1246 9.6691 12.8469 9.67294 12.5692C9.65594 12.4145 9.62704 12.372 9.45026 12.2768C8.68361 11.8586 8.02236 11.624 7.27441 10.8812C7.32854 10.6352 7.3978 10.3928 7.4818 10.1553C7.55862 9.92363 7.64887 9.6966 7.75208 9.47538C8.75671 9.30539 9.39756 9.47538 10.2067 9.56038C10.3886 9.58077 10.4328 9.56037 10.5161 9.45838C10.6333 9.26423 10.764 9.07849 10.9071 8.90252C10.9682 8.79883 10.9648 8.75973 10.8663 8.62714C10.4498 8.05429 10.0282 7.64291 9.80893 6.88477C10.1482 6.62787 10.5087 6.4004 10.8867 6.20482C11.7859 6.4785 12.2347 6.82697 12.8602 7.19584C12.9049 7.23365 12.959 7.25866 13.0168 7.26824C13.0745 7.27781 13.1338 7.27159 13.1883 7.25024C13.3792 7.1766 13.5738 7.11305 13.7713 7.05986C13.8886 7.01396 13.9107 6.99016 13.892 6.86097C13.8172 6.34081 13.6626 5.92773 13.8444 5.37697C14.2553 5.34062 14.6683 5.33324 15.0803 5.35488C15.7313 5.86484 15.954 6.25751 16.3365 6.73858C16.382 6.81311 16.4544 6.86729 16.5387 6.88987V6.90347C16.0597 6.85509 15.5766 6.86137 15.099 6.92217C13.1237 7.17885 11.8981 8.24637 11.2725 9.69467C10.7014 11.0223 10.6963 12.6847 11.3235 14.4084C11.9479 16.0544 12.9838 17.5128 14.3323 18.6445C15.6633 19.7732 17.302 20.5977 18.99 20.8544C20.8003 21.128 22.3897 20.7133 23.5116 19.7426C24.259 19.0845 24.7741 18.2028 24.9803 17.2285L25.0619 17.2438Z" fill="#BBC406"/>
<path fill-rule="evenodd" clip-rule="evenodd" d="M15.9245 7.74799C17.5683 7.55251 19.4807 8.27326 21.0242 9.58726C21.1942 9.72495 21.3403 9.86604 21.4916 10.0122H19.5674C18.2789 9.14019 16.817 8.69143 15.5268 8.84442C14.0071 9.0246 13.0823 9.90514 12.6846 11.1053C12.7141 10.7998 12.7762 10.4983 12.8699 10.206C13.288 8.90221 14.2791 7.94348 15.9296 7.74799H15.9245ZM23.6335 17.2435C23.433 17.6802 23.1423 18.0695 22.7804 18.3857C22.4186 18.7018 21.9938 18.9377 21.5341 19.0777C21.7348 18.9522 21.9207 18.8045 22.0883 18.6374C22.4735 18.2476 22.7567 17.7689 22.9127 17.2435H23.6335Z" fill="#1D1D1B"/>
<path fill-rule="evenodd" clip-rule="evenodd" d="M15.3453 7.07687C17.0333 6.85588 18.9915 7.40665 20.688 8.53027C19.0595 7.47294 17.1914 6.96128 15.5884 7.17036C13.7287 7.41175 12.5813 8.41807 11.9965 9.77798C11.4594 11.0206 11.4543 12.5777 12.0424 14.1977C12.6298 15.7351 13.6006 17.0968 14.8625 18.1533C16.1085 19.2089 17.6435 19.9823 19.2244 20.222C20.9243 20.4787 22.4151 20.0911 23.4588 19.18C24.0501 18.6632 24.4872 17.9932 24.7218 17.2438H24.8221C24.5965 18.096 24.1232 18.862 23.4622 19.4452C22.3862 20.3818 20.8461 20.7813 19.1003 20.5178C17.4718 20.2696 15.8909 19.4758 14.6075 18.3862C13.3065 17.2937 12.307 15.8862 11.7041 14.298C11.099 12.6372 11.1041 11.0325 11.6565 9.75248C12.2583 8.35688 13.4397 7.32505 15.347 7.07687H15.3453Z" fill="#1D1D1B"/>
</svg>
