<svg width="65" height="35" viewBox="0 0 65 35" fill="none" xmlns="http://www.w3.org/2000/svg">
<path d="M25.1617 0.470677C25.2459 0.43734 24.2247 0.39172 23.9878 0.488223C18.5626 2.74814 13.6024 5.99766 9.70191 10.3666C7.53849 12.7897 2.86951 19.6747 2.71862 19.8976C3.77137 14.6934 6.44362 8.02597 8.88076 2.87798C9.54988 2.18353 9.94074 1.26758 9.97914 0.303991C9.97914 0.184678 8.48948 -0.103076 8.42632 0.0390466C8.04733 0.89178 7.68412 1.75504 7.3297 2.61128C6.68751 3.31312 5.82776 3.8395 4.93643 4.30798C3.83805 4.88524 1.66586 5.61515 1.92028 7.20657C1.9501 7.39782 3.30114 7.55749 3.47134 7.47152C4.15354 7.07475 4.75813 6.55754 5.25576 5.94502C5.19435 6.0152 4.77325 5.82921 4.37846 5.70815C5.03995 5.21861 5.91198 4.87296 6.48398 4.57292L6.55241 4.53783C2.90285 12.4335 1.25879 18.6553 0.00776555 25.5772C-0.0957556 26.3861 0.869272 27.316 0.907873 27.1739C1.13039 26.3366 1.39627 25.5114 1.70446 24.7016C2.79056 21.8399 5.06451 17.5727 10.609 10.8982C14.4411 6.29418 19.6171 2.77973 25.1617 0.470677ZM26.4671 19.7712C26.8302 19.6319 27.1726 19.4436 27.4847 19.2115L27.2689 19.1045C26.9654 18.9027 26.4285 18.4992 26.2004 18.5781C25.8835 18.7008 25.5875 18.8718 25.3231 19.0852C23.3509 19.9116 21.749 18.5939 19.7487 19.0852C19.3399 19.187 18.1906 19.7695 18.4538 20.3029C18.717 20.8363 19.7943 21.0749 20.4137 21.0152C20.4997 21.0152 20.0733 20.7222 20.0277 20.6994C19.9558 20.6591 19.868 20.6029 19.775 20.5485C19.9154 20.2888 20.2488 20.0871 20.4769 19.9467C21.2489 19.4852 22.1069 19.6361 22.7982 19.7397C23.2878 19.8116 23.6211 19.8941 24.1159 19.952C23.3392 20.6503 22.6072 21.3969 21.9244 22.1873C20.7857 23.505 19.8435 25.0543 20.9822 26.1036C22.0104 27.0511 23.6422 27.1563 25.2266 26.7282C25.7477 26.5884 26.256 26.4047 26.7461 26.179C27.676 25.7772 27.1514 25.5017 26.6811 24.8701C26.3302 25.0456 25.6021 25.4281 25.2564 25.5596C24.5077 25.8471 23.7358 26.0701 22.9491 26.2264C22.1701 26.379 21.9911 26.1018 21.9525 25.9632C21.6016 24.6736 22.9631 23.2646 23.9352 22.2066C24.6019 21.4802 25.5301 20.4415 26.4671 19.7695V19.7712ZM15.6237 18.8185C14.6452 18.4677 13.6118 18.2948 12.5724 18.3079C9.7756 18.3079 7.58411 19.4028 6.08042 20.9714C4.65218 22.4593 4.10826 24.1156 4.30302 25.793C4.42408 26.8458 6.16464 26.9844 6.16464 26.9844C5.18382 25.8632 5.48386 24.4981 6.09621 23.0155C6.79805 21.3223 8.1912 20.3169 9.38784 19.8081C10.3793 19.345 11.4625 19.1117 12.5566 19.1255C14.22 19.1255 15.4763 19.5624 16.0957 20.3538C16.5799 20.9766 16.6922 21.8224 16.4273 22.8646C16.2167 23.6998 15.757 24.556 14.9797 25.5632C14.887 25.6872 14.7856 25.8045 14.6762 25.9141C14.6384 25.9284 14.5968 25.9293 14.5584 25.9165C14.52 25.9037 14.4873 25.8781 14.4656 25.8439C14.0077 25.1736 13.7901 24.2033 13.8024 22.8786C13.8009 22.2488 13.8443 21.6196 13.9322 20.9959V20.9573C13.9336 20.9421 13.9319 20.9268 13.927 20.9123C13.9222 20.8978 13.9144 20.8845 13.9042 20.8731C13.8708 20.8328 13.8024 20.7977 13.5392 20.7977C13.2092 20.8041 12.8809 20.8465 12.5601 20.924C12.4128 20.9135 12.2654 20.9082 12.1162 20.9082C10.6441 20.9082 9.18957 21.4346 8.22805 22.3119C7.41743 23.0541 6.98229 23.8296 6.89456 24.6859C6.79981 25.6088 7.42093 26.751 8.44737 26.9177C8.66037 26.9513 8.87567 26.9684 9.09131 26.9686C10.5494 26.9686 11.9232 26.2106 12.7093 25.5403C12.7836 25.729 12.8716 25.9119 12.9725 26.0878C13.2181 26.5089 13.5655 26.7422 14.2428 26.7422C14.8593 26.7375 15.464 26.5724 15.9974 26.2632C16.6834 25.8228 17.3204 25.0017 17.7046 24.0665C18.1819 22.8997 18.2152 21.8294 17.8029 20.8819C17.3652 19.9421 16.586 19.2043 15.6237 18.8185ZM11.8987 23.9296C11.4811 24.9455 10.6862 25.7369 9.46504 26.3475C9.43521 26.3264 9.40714 26.3053 9.37731 26.2808C9.10003 26.0346 8.89757 25.7154 8.79303 25.3596C8.55967 24.7227 8.76145 24.0489 8.96849 23.5963C9.20536 23.0822 9.81947 22.1382 11.2495 21.5785C11.5881 21.4453 11.9511 21.3855 12.3145 21.403H12.3654C12.3408 22.054 12.125 23.3769 11.8987 23.9296ZM61.7696 0.404003C60.2834 1.08654 59.2219 2.95519 58.5183 4.31149C56.6461 7.92771 55.4776 11.8685 54.2318 15.7322C53.8809 15.7462 53.544 15.7515 53.2019 15.7427C52.8597 15.7339 52.2614 16.2691 51.9964 16.4586C51.9438 16.5024 51.2841 17.02 51.4174 17.02C52.2336 17.0427 53.0503 17.0005 53.8598 16.8937C52.8702 19.9379 51.8999 22.8892 50.8139 25.9193C50.7735 26.0281 50.8577 26.3053 51.3174 26.544C51.5683 26.6756 51.8245 26.8142 51.9754 26.8949C53.179 23.5226 54.2108 20.0748 55.2881 16.6428C55.7916 16.5322 56.2882 16.4007 56.776 16.2445C57.2076 16.1059 57.6164 15.7901 57.9814 15.5286C58.0656 15.469 58.6411 14.9443 58.5621 14.9707C57.6009 15.2758 56.6135 15.492 55.6127 15.6164C56.5479 12.6756 57.5322 9.75424 58.706 6.91005C59.5184 4.93963 60.336 3.20785 61.752 1.79189C62.0573 1.48659 62.7662 1.19357 63.1838 1.06899C63.2317 1.0538 63.2811 1.0438 63.3311 1.03917C63.6119 1.40588 63.8575 1.91646 63.4294 2.14281C63.5487 2.0814 64.4576 3.22188 64.7699 3.05871C65.7104 2.57444 63.5803 -0.429431 61.7696 0.404003ZM63.4662 1.0532C63.5154 1.06373 63.5171 1.07777 63.4662 1.0532V1.0532ZM52.3895 14.9724C51.4275 15.2769 50.4396 15.4924 49.4382 15.6164C50.3734 12.6756 51.3578 9.75424 52.5316 6.91005C53.3422 4.93963 54.1599 3.20785 55.5758 1.79189C55.8811 1.48659 56.59 1.19357 57.0093 1.06899C57.0572 1.05351 57.1066 1.0435 57.1567 1.03917C57.4375 1.40588 57.6831 1.91646 57.2532 2.14281C57.3725 2.0814 58.2832 3.22188 58.5937 3.05871C59.5359 2.57093 57.4059 -0.43294 55.5969 0.400493C54.1107 1.08303 53.0492 2.95168 52.3474 4.30798C50.4752 7.92771 49.3119 11.8685 48.0609 15.7322C47.71 15.7462 47.3731 15.7515 47.0309 15.7427C46.6888 15.7339 46.0887 16.2691 45.8255 16.4586C45.7624 16.5024 45.1079 17.0148 45.2448 17.0165C46.0604 17.0392 46.8765 16.997 47.6854 16.8902C46.6976 19.9344 45.7255 22.8856 44.6412 25.9158C44.6008 26.0246 44.685 26.3018 45.143 26.5405C45.3957 26.6721 45.6518 26.8107 45.8027 26.8914C47.0064 23.5191 48.0381 20.0713 49.1154 16.6393C49.619 16.5287 50.1155 16.3971 50.6015 16.241C51.0349 16.1024 51.442 15.7865 51.807 15.5251C51.8912 15.4707 52.4702 14.9461 52.3895 14.9724ZM57.2901 1.0532C57.3392 1.06373 57.3427 1.07777 57.2901 1.0532V1.0532ZM34.0346 18.5693C32.9293 18.3798 31.966 19.3729 31.2448 20.366C31.2951 20.0397 31.3484 19.7204 31.4045 19.408C31.4361 19.2326 31.0062 18.8659 30.9062 18.7606C30.8729 18.722 30.2939 18.2132 30.2921 18.2237C29.9043 20.3608 29.7394 22.9242 28.5603 24.8438C28.3127 25.2259 28.0308 25.5848 27.7181 25.9158C27.6198 26.0194 28.5638 27.0563 28.6358 26.9826C28.8974 26.7242 29.1325 26.4403 29.3376 26.1352C30.8009 24.0946 31.5028 21.3977 33.689 19.9642C34.1434 19.6677 34.9348 19.473 35.3594 19.8081C35.3861 19.9581 35.4008 20.1101 35.4032 20.2625C35.4014 20.654 35.3501 21.0437 35.2506 21.4223C34.9979 22.561 34.4751 23.605 34.0417 24.6771C33.8744 25.0821 33.7286 25.4955 33.6048 25.9158C33.5048 26.2667 34.6242 26.8458 34.7628 26.9458C34.9323 26.3749 35.1374 25.8153 35.3769 25.2701C35.8331 24.1911 36.3209 23.1523 36.4876 21.9241C36.6788 20.4941 35.4822 18.8167 34.0346 18.5693ZM42.0058 18.6641C40.8197 18.3132 39.0861 19.9677 38.7194 20.4432C37.8018 21.6346 36.4876 24.0244 37.5877 25.4614C38.2018 26.2632 39.0177 26.9616 40.0564 26.9774C41.811 27.0019 43.1796 25.4789 43.9165 24.0331C44.5815 22.7312 44.5728 20.7187 43.5937 19.5975C43.1631 19.1428 42.6126 18.8191 42.0058 18.6641ZM42.4164 24.0893C40.7705 26.2738 38.7107 25.8772 38.4299 25.8263C38.4291 25.8235 38.4291 25.8204 38.4299 25.8176C38.1141 24.5367 38.744 22.8734 39.4914 21.9013C41.4689 19.3308 42.7374 19.6414 42.8006 19.6519C42.9041 19.873 43.9183 22.0943 42.4164 24.0893Z" fill="white"/>
<path d="M38.6374 32.4062C38.6374 32.9607 38.5075 33.3906 38.2531 33.6818C38.1078 33.8354 37.9304 33.9551 37.7336 34.0324C37.5368 34.1098 37.3254 34.1428 37.1144 34.1292C36.7284 34.1292 36.4459 34.0222 36.2757 33.8117C36.1055 33.6011 36.0283 33.2607 36.0283 32.7589V29.9814H35.4756V32.9238C35.4695 33.1622 35.4847 33.4006 35.5212 33.6362C35.5464 33.7643 35.5945 33.8867 35.6633 33.9976C35.7864 34.1888 35.9635 34.3391 36.1722 34.4293C36.4391 34.5382 36.7256 34.5911 37.0138 34.5848C37.3021 34.5784 37.5859 34.513 37.8478 34.3924C38.0943 34.2605 38.2991 34.0624 38.4391 33.8204L38.6742 33.4327V34.4661H39.1831V29.9814H38.6374V32.4062ZM33.6315 28.6584H33.0876V29.9814H32.3858V30.3551H33.0876V33.6608C33.0876 33.9924 33.149 34.2205 33.2736 34.3398C33.3982 34.4591 33.635 34.5152 33.9754 34.5152C34.0639 34.5146 34.1524 34.5094 34.2404 34.4995C34.3158 34.4907 34.3965 34.4784 34.486 34.4644V34.0398H34.3579C34.2895 34.0398 34.2298 34.0398 34.1825 34.0398C34.1043 34.048 34.0252 34.0389 33.9509 34.0131C33.8766 33.9874 33.8089 33.9455 33.7526 33.8906C33.6552 33.7405 33.6124 33.5614 33.6315 33.3835V30.3551H34.486V29.9744H33.6315V28.6584ZM30.4066 31.9342L29.6381 31.7588C29.4089 31.7224 29.1908 31.6355 28.9994 31.5044C28.9331 31.4488 28.8804 31.3788 28.8454 31.2997C28.8104 31.2206 28.7941 31.1346 28.7976 31.0482C28.7922 30.9308 28.8175 30.814 28.8711 30.7094C28.9246 30.6047 29.0045 30.5159 29.1029 30.4516C29.3457 30.3108 29.6246 30.2449 29.9048 30.2621C30.2011 30.2475 30.4944 30.3281 30.7417 30.492C30.8344 30.557 30.9131 30.6398 30.9734 30.7356C31.0336 30.8314 31.0742 30.9383 31.0926 31.0499H31.619C31.6117 30.8841 31.5678 30.722 31.4904 30.5752C31.4131 30.4284 31.3042 30.3005 31.1716 30.2007C30.8029 29.9388 30.3563 29.8095 29.9048 29.834C29.4676 29.8104 29.0352 29.9339 28.6765 30.1849C28.5379 30.2888 28.4266 30.4248 28.3523 30.5814C28.278 30.7379 28.2429 30.9101 28.2502 31.0833C28.2397 31.2211 28.257 31.3597 28.301 31.4908C28.345 31.6219 28.4148 31.7428 28.5063 31.8465C28.6818 32.022 29.0169 32.1781 29.4924 32.2922L30.3838 32.522C30.6131 32.5594 30.83 32.6522 31.0154 32.7922C31.0794 32.8568 31.1291 32.934 31.1615 33.0189C31.1938 33.1038 31.208 33.1945 31.2032 33.2853C31.2062 33.4156 31.1755 33.5446 31.114 33.6595C31.0525 33.7745 30.9623 33.8716 30.8522 33.9415C30.5882 34.1005 30.2828 34.1775 29.9749 34.1626C29.6396 34.182 29.3079 34.0847 29.0362 33.8871C28.8263 33.709 28.691 33.4585 28.6572 33.1853H28.1309C28.1324 33.3791 28.1736 33.5706 28.2517 33.748C28.3298 33.9254 28.4434 34.085 28.5853 34.217C28.8853 34.4837 29.3292 34.6188 29.9012 34.6188C30.4732 34.6188 30.954 34.4907 31.2751 34.2363C31.4333 34.1121 31.559 33.9515 31.6415 33.7682C31.724 33.5848 31.7608 33.3842 31.7488 33.1835C31.7591 33.0425 31.7402 32.9009 31.6934 32.7675C31.6466 32.6341 31.5729 32.5117 31.4769 32.408C31.2909 32.222 30.9294 32.0658 30.4066 31.9342ZM46.0225 28.8514H46.5664V28.1952H46.0225V28.8514ZM46.0225 34.4661H46.5664V29.9814H46.0225V34.4661ZM44.01 30.8095L43.7836 30.5113C43.6229 30.2958 43.4129 30.1219 43.1713 30.0042C42.9137 29.8844 42.6324 29.8244 42.3484 29.8287C42.0789 29.8178 41.8107 29.8704 41.5653 29.9822C41.32 30.0941 41.1044 30.2621 40.9359 30.4727C40.585 30.9043 40.399 31.5008 40.399 32.243C40.399 32.9852 40.5745 33.5555 40.9341 33.9818C41.1043 34.1902 41.3208 34.356 41.5663 34.4659C41.8118 34.5759 42.0796 34.627 42.3484 34.6153C42.6226 34.6173 42.8937 34.5574 43.1414 34.4398C43.3933 34.314 43.6143 34.1343 43.7889 33.9134L44.0135 33.6415V34.4644H44.5398V28.2005H44.0135L44.01 30.8095ZM43.6432 33.6292C43.5102 33.8016 43.3376 33.9395 43.14 34.0311C42.9424 34.1227 42.7256 34.1654 42.508 34.1556C42.2921 34.1644 42.0772 34.1229 41.8801 34.0343C41.6831 33.9457 41.5094 33.8124 41.3728 33.645C41.0854 33.2544 40.9416 32.7765 40.9657 32.2922C40.9657 31.6693 41.0991 31.1763 41.3588 30.8306C41.4907 30.6548 41.6635 30.5139 41.8623 30.42C42.061 30.3261 42.2797 30.2822 42.4992 30.2919C42.7166 30.2782 42.9341 30.3156 43.1343 30.4013C43.3345 30.4869 43.5119 30.6183 43.652 30.785C43.9064 31.1043 44.0363 31.5763 44.0363 32.1887C44.0363 32.801 43.9099 33.2888 43.6503 33.6292H43.6432ZM51.5144 30.4463C51.1424 30.034 50.609 29.8252 49.9352 29.8252C49.2615 29.8252 48.7281 30.0358 48.3561 30.4481C47.9841 30.8604 47.7929 31.4605 47.7929 32.2167C47.7929 32.973 47.9824 33.5765 48.3578 33.9924C48.7333 34.4082 49.2615 34.6117 49.937 34.6117C50.6125 34.6117 51.1441 34.403 51.5161 33.9906C51.8881 33.5783 52.0776 32.9782 52.0776 32.2167C52.0776 31.4552 51.8951 30.8604 51.5214 30.4463H51.5144ZM51.1073 33.6432C50.9668 33.8149 50.7877 33.9508 50.5846 34.0398C50.3815 34.1289 50.1601 34.1685 49.9387 34.1556C49.7159 34.1677 49.4933 34.1277 49.2886 34.0388C49.0839 33.9498 48.9028 33.8144 48.7596 33.6432C48.4894 33.3098 48.3543 32.8308 48.3543 32.2167C48.3543 31.6026 48.4894 31.1254 48.7579 30.7937C48.9012 30.6222 49.0825 30.4865 49.2876 30.3976C49.4926 30.3086 49.7156 30.2688 49.9387 30.2814C50.1604 30.2688 50.382 30.309 50.5851 30.3987C50.7882 30.4884 50.9672 30.625 51.1073 30.7973C51.3722 31.1289 51.5056 31.6079 51.5056 32.2167C51.5056 32.8256 51.3793 33.3098 51.1143 33.6432H51.1073Z" fill="white"/>
</svg>
