<?xml version="1.0" standalone="no"?>
<!DOCTYPE svg PUBLIC "-//W3C//DTD SVG 20010904//EN"
 "http://www.w3.org/TR/2001/REC-SVG-20010904/DTD/svg10.dtd">
<svg version="1.0" xmlns="http://www.w3.org/2000/svg"
 width="700.000000pt" height="700.000000pt" viewBox="0 0 700.000000 700.000000"
 preserveAspectRatio="xMidYMid meet">
<metadata>
Created by potrace 1.11, written by Peter Selinger 2001-2013
</metadata>
<g transform="translate(0.000000,700.000000) scale(0.100000,-0.100000)"
fill="#000000" stroke="none">
<path d="M2519 6343 l-57 -4 -11 -44 c-12 -48 -14 -168 -4 -228 4 -29 14 -44
42 -63 46 -31 75 -30 173 3 l80 27 -5 41 c-9 71 -28 209 -33 243 l-5 32 -62
-2 c-34 -1 -87 -3 -118 -5z"/>
<path d="M3251 6039 c-41 -5 -120 -20 -176 -33 -271 -66 -464 -167 -641 -339
-197 -190 -331 -439 -394 -732 -31 -143 -38 -426 -15 -590 29 -213 76 -384
164 -596 343 -831 1123 -1515 1971 -1729 211 -53 296 -64 530 -64 238 -1 348
15 533 75 395 128 709 428 851 812 34 91 39 117 23 117 -8 0 -28 -36 -47 -86
-113 -291 -340 -536 -631 -680 -724 -360 -1791 -68 -2530 693 -648 668 -922
1539 -698 2218 133 403 416 694 804 828 183 63 335 87 548 87 217 0 400 -28
620 -94 61 -19 113 -33 115 -31 2 2 -52 22 -121 44 -131 42 -315 83 -457 101
-98 12 -342 11 -449 -1z"/>
<path d="M1430 6018 c-19 -12 -79 -50 -132 -85 l-98 -64 26 -67 c38 -102 85
-179 211 -347 l115 -154 69 -7 c38 -4 71 -6 74 -6 14 2 115 152 115 171 0 11
-49 85 -109 165 -120 159 -173 246 -209 345 -13 36 -24 67 -25 68 -2 1 -18 -8
-37 -19z"/>
<path d="M4300 5882 c8 -5 26 -13 40 -16 17 -5 20 -4 10 2 -8 5 -26 13 -40 16
-17 5 -20 4 -10 -2z"/>
<path d="M3355 5825 c-326 -60 -563 -209 -721 -450 -89 -136 -162 -326 -178
-465 l-7 -55 40 82 c105 218 250 366 452 462 103 49 229 86 346 102 120 16
351 6 478 -21 215 -45 453 -142 662 -268 l102 -62 288 0 288 1 -70 65 c-38 36
-122 105 -185 153 -325 245 -682 404 -1025 456 -121 18 -372 18 -470 0z"/>
<path d="M755 5103 c-11 -1 -54 -5 -96 -8 l-77 -7 -30 -71 c-34 -83 -97 -275
-107 -328 -7 -36 -6 -37 86 -113 106 -87 243 -172 444 -275 77 -40 149 -81
161 -92 19 -18 22 -36 28 -157 4 -75 9 -139 12 -141 4 -5 244 96 257 109 5 4
5 81 1 171 -7 162 -8 164 -35 189 -15 14 -62 43 -105 65 -269 136 -395 213
-514 316 -49 42 -70 67 -70 83 0 12 16 73 36 135 19 62 34 116 32 119 -2 4
-12 6 -23 5z"/>
<path d="M718 3631 c-126 -74 -268 -190 -268 -219 0 -50 143 -482 172 -519 14
-17 206 -60 333 -74 74 -8 182 -9 331 -5 166 5 228 4 248 -5 29 -13 231 -299
241 -342 4 -16 -10 -54 -50 -127 -176 -332 -221 -441 -252 -617 l-17 -95 45
-41 c24 -23 83 -79 131 -124 49 -45 134 -118 190 -163 90 -72 104 -80 131 -74
46 10 189 69 254 105 72 41 176 110 171 114 -2 2 -44 -11 -93 -30 l-89 -33
-66 50 c-102 80 -248 209 -332 295 l-77 78 19 96 c36 186 66 259 264 632 20
38 36 79 36 92 0 26 -187 310 -222 338 -21 15 -57 17 -343 21 -328 4 -367 7
-526 52 -45 13 -63 23 -73 43 -24 46 -107 293 -136 405 l-29 109 42 38 c23 21
40 38 37 38 -3 1 -35 -17 -72 -38z"/>
<path d="M5525 2933 c-14 -57 -94 -210 -144 -278 -71 -94 -104 -128 -180 -186
-35 -27 -58 -49 -51 -49 22 0 174 76 245 123 120 79 255 227 323 355 l33 62
-109 0 -110 0 -7 -27z"/>
<path d="M5693 1982 c-34 -31 -66 -66 -72 -78 -13 -27 2 -94 26 -112 75 -55
342 -162 404 -162 11 0 32 34 63 101 26 56 46 102 44 104 -2 1 -37 18 -78 37
-41 19 -127 65 -190 101 -63 37 -119 67 -125 67 -5 -1 -38 -26 -72 -58z"/>
<path d="M2840 1744 c-83 -64 -109 -89 -99 -96 8 -5 80 -42 161 -83 111 -56
151 -82 162 -102 7 -16 21 -95 30 -178 23 -210 54 -386 83 -480 42 -133 85
-234 102 -239 79 -24 297 -61 472 -81 45 -5 58 -3 70 11 21 25 98 158 93 163
-2 2 -43 10 -91 17 -48 8 -134 24 -190 35 l-102 21 -30 72 c-72 176 -99 295
-136 606 -18 155 -29 210 -42 229 -17 22 -333 190 -359 191 -7 0 -62 -39 -124
-86z"/>
<path d="M4540 1458 c-41 -5 -76 -11 -78 -12 -1 -2 -11 -32 -20 -68 l-18 -65
27 -10 c28 -11 47 -36 200 -256 82 -118 218 -271 308 -347 l49 -40 119 59
c158 79 327 188 228 146 -89 -37 -80 -38 -142 14 -114 95 -192 187 -338 396
-136 195 -136 195 -204 194 -31 -1 -90 -6 -131 -11z"/>
</g>
</svg>
